<?xml version="1.0" encoding="UTF-8"?>
<svg id="Layer_2" data-name="Layer 2" xmlns="http://www.w3.org/2000/svg" viewBox="0 0 382.06 334.75">
  <defs>
    <style>
      .cls-1 {
        fill: #fee1c1;
      }

      .cls-2 {
        fill: #614644;
      }

      .cls-3 {
        fill: #4c9b4b;
      }

      .cls-4 {
        stroke: #dfd7da;
        stroke-miterlimit: 10;
      }

      .cls-4, .cls-5, .cls-6 {
        fill: none;
      }

      .cls-7 {
        fill: #c86c4e;
      }

      .cls-8 {
        fill: #67c02f;
      }

      .cls-9 {
        fill: #ffa159;
      }

      .cls-5 {
        stroke: #614644;
        stroke-width: 3px;
      }

      .cls-5, .cls-6 {
        stroke-linecap: round;
        stroke-linejoin: round;
      }

      .cls-10 {
        fill: #fc6b55;
      }

      .cls-11 {
        fill: #fefcef;
      }

      .cls-12 {
        fill: #84b259;
      }

      .cls-6 {
        stroke: #a96260;
        stroke-width: 1.5px;
      }

      .cls-13 {
        fill: #b7acb9;
      }

      .cls-14 {
        fill: #ffc651;
      }

      .cls-15 {
        fill: #bdb0c2;
      }

      .cls-16 {
        fill: #443b4f;
      }

      .cls-17 {
        fill: #fffbf4;
      }

      .cls-18 {
        fill: #070707;
      }

      .cls-19 {
        fill: #f9caaa;
      }

      .cls-20 {
        fill: #b3dd58;
      }

      .cls-21 {
        fill: #e5a695;
      }

      .cls-22 {
        fill: #da6e4a;
      }
    </style>
  </defs>
  <g id="Layer_2-2" data-name="Layer 2">
    <g>
      <g>
        <g>
          <g>
            <g>
              <path class="cls-20" d="M238.77,217.1s.03.02.05.03c0-.03,0-.05,0-.05l-.04.02Z"/>
              <path class="cls-20" d="M192.86,236.25v14.74s6.73,23.17,6.73,23.17c0,0,.44.02,1.22.04.78.03,1.92.06,3.31.09,2.94.06,7.04.11,11.46.07,8.4-.08,17.97-.48,23.02-1.77.4-.1.78-.21,1.13-.33h0c.75-.26,1.35-.54,1.76-.85,4.46-3.39-.37-38.71-2.11-50.5-.22.16-.39.24-.39.24-.61.48-1.22.93-1.85,1.38-.54.39-1.1.76-1.66,1.13-.55.36-1.11.71-1.67,1.05-.56.33-1.13.66-1.7.98-17.33,9.62-39.26,10.57-39.26,10.57ZM233.3,268.88c.66,0,1.28-.02,1.85-.02-.02.12-.03.25-.05.37l-1.82-.23s0-.08.02-.12ZM237.24,269s0-.07,0-.11c.78.02,1.4.05,1.84.07,0,.09-.02.17-.03.27l-1.82-.23Z"/>
              <path class="cls-17" d="M208.8,292.1c5.49-1.9,15.44-4.36,30.16-4.37l-.45,9.13-.32,6.51s-9.19,4.08-18.28,5.31c-9.09,1.22-9.29-4.09-9.29-4.09,0,0,.03-.54,0-1.46,0,0,0,0,0-.02s0-.02,0-.02c0-.09,0-.19,0-.29s0-.2,0-.31c0-.11,0-.22,0-.33-.02-.58-.06-1.23-.13-1.96,0-.14-.03-.28-.04-.43-.05-.45-.1-.91-.17-1.4v-.02c-.05-.31-.09-.63-.15-.96,0-.03,0-.06,0-.07-.05-.27-.09-.53-.15-.8-.04-.24-.08-.47-.15-.71,0-.04,0-.07-.02-.11-.03-.12-.06-.25-.08-.38-.06-.24-.11-.49-.17-.74-.04-.12-.06-.24-.1-.37-.06-.25-.14-.5-.21-.74-.03-.08-.06-.17-.08-.27,0,0,0-.02,0-.02-.06-.22-.14-.44-.21-.66-.02-.06-.05-.13-.06-.19-.03-.07-.06-.15-.09-.23h0s0,0,0,0Z"/>
              <path class="cls-17" d="M239.16,283.81l-.1,2.08c-15.2-.02-25.33,2.5-30.96,4.48-.04-.08-.07-.17-.11-.24-.02-.04-.04-.07-.06-.11-.16-.33-.32-.66-.5-.98,0-.02-.02-.03-.03-.05-.05-.08-.09-.17-.14-.25,5.07-1.96,15.53-4.95,31.89-4.93Z"/>
              <path class="cls-17" d="M239.34,280.11v.27s-.09,1.6-.09,1.6c-17.1-.05-27.83,3.11-32.96,5.15-.38-.68-.7-1.36-.97-2.04-.03-.08-.06-.15-.08-.23,6.49-2.08,12.65-3.28,17.96-3.97,7.67-.98,13.58-.89,16.14-.78Z"/>
              <path class="cls-1" d="M203.93,278.23c.02.55.06,1.13.13,1.74h0c.04.31.07.62.13.94.15.95.37,1.93.69,2.94.11.34.23.67.36,1.01,15.85-5.07,29.77-4.94,34.11-4.75l.37-7.41.02-.43h0l.16-3.23s-.28-.03-.81-.06c0,.09-.02.17-.03.27l-1.82-.23s0-.07,0-.11c-.61-.02-1.3-.03-2.1-.03-.02.12-.03.25-.05.37l-1.82-.23s0-.08.02-.12c-6.31.14-16.69.98-29,4.42,0,0,0,.03-.02.07,0,.07-.05.22-.08.42-.02.1-.04.22-.06.36,0,.05,0,.08-.02.13,0,.08-.03.19-.04.28,0,.03,0,.05,0,.06,0,.03,0,.06,0,.08,0,.1-.02.2-.04.32,0,.06,0,.14-.02.21,0,.1-.02.21-.03.33,0,.13-.02.27-.03.4,0,.04,0,.08,0,.13,0,.11-.02.22-.02.34-.02.54-.03,1.14,0,1.77Z"/>
              <path class="cls-14" d="M210.02,315.68l.4,2.89c7.64,1.66,12.26.68,12.26.68,4.59,8.17,8.99,5.62,8.99,5.62,12.52-9.77,21.4-8.54,26.04-7.29l-12.16-11.81c-.15-.26-1.02-4.49,0-7.2,1.02-2.7-22.92-2.6-23.79,3.11-.79,5.26-.13,5.47-.02,5.47-.45-.02-8.92-.36-9.27-3.99,0,0-1.53-3.46-2.44,2.55-.92,6.03,0,9.96,0,9.96Z"/>
              <path class="cls-16" d="M210.41,318.56l.31,2.32s4.39,1.94,10.92.92c0,0,2.45,11.64,25.12,9.7,22.66-1.94,13.07-11.84,13.07-11.84l-2.14-2.08c-4.64-1.25-13.52-2.48-26.04,7.29,0,0-4.39,2.55-8.99-5.62,0,0-4.61.98-12.26-.68Z"/>
            </g>
            <path class="cls-12" d="M192.86,233.63v2.62s34.86,0,46.14-15.11c0,0,.17-.08.39-.24-.32-2.13-.53-3.49-.58-3.77-.02,0-.03-.02-.05-.03l-.76.27-45.14,13.72v2.53Z"/>
            <path class="cls-12" d="M192.86,247.74s18.48.77,25.37-5.51c0,0-5.46,6.43-17.92,6.94l9.8,5.77-17.25-3.98v-3.22Z"/>
          </g>
          <path class="cls-22" d="M244.72,305.95s-4.95-2.76-19.3,3.47c0,0,10.36-2.96,19.3-3.47Z"/>
          <path class="cls-2" d="M238.8,217.09s0,.02,0,.05c.05.28.26,1.64.58,3.77,1.75,11.79,6.57,47.11,2.11,50.5-.41.31-1.01.6-1.76.85h0l-.02.43-.37,7.41h0s0,.28,0,.28l-.08,1.6c-.12,0-.25,0-.37,0-16.88,0-27.5,3.13-32.59,5.15-.38-.68-.7-1.36-.97-2.04-.03-.08-.06-.15-.08-.23h0c-.13-.35-.25-.68-.36-1.02-.32-1-.54-1.98-.69-2.94-.06-.31-.09-.62-.13-.93h0c-.07-.62-.11-1.19-.13-1.75-.03-.63-.02-1.23,0-1.77,0-.09,0-.17,0-.27,0-.03,0-.05,0-.07,0-.05,0-.09,0-.13,0-.14.02-.28.03-.4,0-.12.02-.23.03-.33,0-.07,0-.15.02-.21.02-.12.03-.22.04-.32,0-.03,0-.06,0-.08,0-.02,0-.04,0-.06,0-.09.03-.2.04-.28-1.39-.04-2.53-.06-3.31-.09-.78-.02-1.22-.04-1.22-.04l-6.73-23.17v-19.89l38-11.55.51-.16.32-.09.16-.05.08-.03,2.43-.74.46-.14.4-.12.06-.02,2.71-.83.76-.27.04-.02M235.1,269.23c.02-.12.03-.25.05-.37-.57,0-1.19,0-1.85.02,0,.04,0,.08-.02.12l1.82.23M239.06,269.23c0-.09.02-.17.03-.27-.44-.03-1.06-.06-1.84-.07,0,.04,0,.07,0,.11l1.82.23M239.01,283.81s.1,0,.15,0l-.1,2.08c-.06,0-.11,0-.16,0-15.1,0-25.19,2.51-30.8,4.48h0c-.03-.08-.06-.16-.1-.24-.02-.04-.04-.07-.06-.11-.16-.33-.32-.66-.5-.98,0-.02-.02-.03-.03-.05-.05-.08-.09-.17-.14-.25,5.06-1.95,15.46-4.93,31.74-4.93M238.97,287.72h0M238.97,287.72l-.45,9.13c.25,0,.49,0,.73.02.43,0,.85.04,1.24.06.06,0,.1,0,.15,0,.3.02.6.05.88.07.03,0,.06,0,.08,0,.16,0,.3.03.45.05.06,0,.14.02.21.03.07,0,.14.02.2.03.05,0,.08,0,.13.02.35.05.67.11.96.17.15.04.28.06.42.1.08.02.17.05.24.06,0,0,.02,0,.03,0,.07.02.14.04.2.06.1.04.19.07.28.11.03,0,.05.02.07.03.08.04.15.06.22.1.07.04.14.08.19.12.12.07.2.16.26.24,0,.02.02.03.03.05,0,0,0,.02.02.03,0,0,0,.02,0,.03.03.06.04.11.04.17s0,.11-.03.17c-1.02,2.71-.15,6.95,0,7.2l12.16,11.81,2.14,2.08s9.59,9.9-13.07,11.84c-1.74.15-3.36.22-4.88.22-18.15,0-20.24-9.92-20.24-9.92-1.36.21-2.63.3-3.78.3-4.39,0-7.14-1.22-7.14-1.22l-.31-2.32-.4-2.89s-.92-3.93,0-9.96c.06-.35.11-.67.17-.96.05-.23.09-.43.14-.62.03-.11.06-.21.08-.3.03-.1.06-.19.08-.28.03-.09.06-.18.08-.27,0,0,0-.02.02-.03.02-.05.04-.09.06-.13,0,0,0,0,0-.02v-.04c0-.09,0-.17,0-.28,0-.1,0-.2,0-.31,0-.11,0-.22,0-.33-.02-.58-.06-1.23-.13-1.96,0-.14-.03-.28-.04-.43-.05-.45-.1-.91-.17-1.4v-.02c-.05-.31-.09-.63-.15-.96,0-.03,0-.06,0-.07-.05-.27-.09-.53-.15-.8-.04-.24-.08-.47-.15-.71,0-.04,0-.07-.02-.11-.03-.12-.06-.25-.08-.38-.06-.24-.11-.49-.17-.74-.04-.12-.06-.24-.1-.37-.06-.25-.14-.5-.21-.74-.03-.08-.06-.17-.08-.27,0,0,0-.02,0-.02-.06-.22-.14-.44-.21-.66-.02-.06-.05-.13-.06-.19-.03-.08-.06-.16-.08-.24,5.49-1.9,15.44-4.36,30.16-4.37M238.8,214.09c-.39,0-.78.08-1.15.23l-.58.2-2.63.8h-.04s-.43.14-.43.14l-.47.14-2.45.75s-.05.02-.07.02h-.03s-.1.04-.1.04l-.3.09s-.04.01-.06.02l-.51.16-37.99,11.55c-1.26.38-2.13,1.55-2.13,2.87v19.89c0,.28.04.57.12.84l6.73,23.17c.36,1.24,1.47,2.11,2.76,2.16,0,0,.46.02,1.28.04.05,0,.11,0,.17,0,0,.35,0,.75.02,1.16.02.66.07,1.29.14,1.89,0,.03,0,.06,0,.08v.05c.05.33.09.66.15,1,.18,1.16.45,2.29.79,3.37.11.35.23.69.36,1.03,0,0,0,.01,0,.02.03.08.05.15.08.22.02.06.05.13.07.19.33.81.71,1.61,1.13,2.37.18.32.41.6.67.82.06.28.16.54.3.8l.09.16.05.09h0s.03.05.04.07c.14.26.27.52.39.78,0,.02.02.04.03.06l.03.06h0c.13.34.31.64.53.9.02.24.07.48.15.72l.06.17.02.05c.02.05.04.11.06.16,0,.02.01.03.02.05.06.19.12.37.18.55.02.06.03.11.05.17.02.06.04.12.05.17.06.2.12.4.17.6,0,.02.01.05.02.07l.03.1c.02.08.04.16.07.24.04.16.08.32.11.47l.03.14c.02.08.04.18.06.28.02.1.04.21.07.31.03.12.06.24.08.38,0,.05.02.1.03.15.04.19.07.38.11.57.01.1.03.19.05.29.04.23.07.46.1.68v.02s0,.05.01.08c.06.44.11.85.15,1.26,0,.09.01.17.02.26v.12s.01.04.02.07c.06.73.1,1.31.12,1.79,0,.05,0,.1,0,.15v.08s0,.08,0,.13c0,.03-.02.05-.02.08-.03.11-.06.21-.09.32-.04.12-.07.26-.11.4-.06.26-.12.5-.17.77-.06.33-.13.69-.19,1.08-.9,5.91-.17,10.06,0,10.94l.38,2.78.31,2.31c.14,1.03.81,1.92,1.76,2.34.34.15,3.47,1.47,8.35,1.47.63,0,1.27-.02,1.9-.07,2,3.62,7.52,9.69,22.12,9.69,1.63,0,3.36-.08,5.13-.23,10.05-.86,15.73-3.41,17.38-7.8,1.74-4.65-1.98-8.68-2.41-9.12-.02-.02-.04-.04-.07-.07l-2.14-2.08-11.53-11.2c-.19-1.16-.37-3.36.09-4.6.01-.04.03-.07.04-.11.12-.36.18-.74.18-1.11,0-.44-.08-.86-.24-1.26-.07-.19-.16-.37-.27-.54,0,0-.01-.02-.02-.03-.02-.03-.04-.07-.07-.1-.29-.43-.66-.8-1.11-1.09-.1-.07-.27-.18-.49-.29-.11-.05-.2-.1-.31-.14-.06-.03-.14-.06-.22-.09,0,0-.01,0-.02,0,.01,0,.03.01.04.02-.02,0-.03-.01-.05-.02-.11-.04-.22-.09-.34-.13-.07-.02-.14-.05-.21-.07-.07-.02-.13-.04-.2-.06-.04-.01-.08-.02-.12-.03h0c-.08-.02-.16-.05-.24-.07-.1-.02-.19-.05-.29-.07l-.13-.03c-.06-.01-.12-.03-.18-.04l-.12-.02c-.29-.06-.61-.11-.94-.16-.04,0-.09-.01-.13-.02,0,0-.01,0-.02,0l-.26-.03-.16-.02c-.21-.03-.4-.05-.58-.06-.04,0-.08,0-.13-.01-.03,0-.06,0-.09,0l.3-6.02c0-.09.01-.18.01-.27,0-.27-.04-.53-.1-.78.11-.29.17-.59.19-.91l.1-2.08c.02-.31-.02-.62-.1-.92.11-.28.17-.59.19-.91l.08-1.6s0-.03,0-.05v-.27s0,0,0,0l.3-5.97c.24-.14.47-.29.67-.45,1.87-1.42,6.24-4.75-.95-53.33-.33-2.17-.54-3.54-.59-3.82,0-.04-.01-.08-.02-.11-.16-.82-.65-1.54-1.37-1.99-.48-.3-1.03-.45-1.58-.45h0ZM238.97,290.72h0,0Z"/>
        </g>
        <path class="cls-11" d="M230.85,219.51s0,.02,0,.04c.07.3.62,2.5,1.26,6.14.08.44.16.91.24,1.4,1.45,8.83,3.13,24.47.94,41.81.66,0,1.28-.02,1.85-.02,2.25-18,.38-34.16-1.11-42.92-.07-.44-.15-.85-.21-1.25-.64-3.55-1.17-5.6-1.19-5.66l-.71.18-.08.03-.99.26Z"/>
        <g>
          <path class="cls-19" d="M203.95,276.11s0-.09,0-.13c0-.14.02-.28.03-.4,0-.12.02-.23.03-.33,0-.07,0-.15.02-.21.02-.12.03-.22.04-.32,0-.03,0-.06,0-.08,0-.02,0-.04,0-.06,0-.09.03-.2.04-.28,0-.05.02-.08.02-.13.02-.14.04-.26.06-.36.04-.2.07-.35.08-.42,0-.05.02-.07.02-.07,12.3-3.44,22.69-4.28,29-4.42.66,0,1.28-.02,1.85-.02.8,0,1.5,0,2.1.03.78.02,1.4.05,1.84.07.53.03.81.06.81.06l-.17,3.23-.02.43c-.2-.03-.57-.06-1.11-.1-2.73-.17-9.91-.27-23.02,1.77-3.45.53-7.33,1.22-11.65,2.09,0-.12,0-.23.02-.34Z"/>
          <path class="cls-11" d="M234.36,218.45s0,0,0,.03c.06.25.53,2.09,1.13,5.17.06.32.13.65.19.99,1.64,8.77,3.91,25.79,1.56,44.25.78.02,1.4.05,1.84.07,2.45-19.45-.16-37.31-1.81-45.8-.05-.22-.08-.44-.12-.64-.58-2.86-1-4.48-1.02-4.55l-.85.23-.94.25Z"/>
        </g>
      </g>
      <path class="cls-10" d="M239.25,281.97l-.09,1.84c-16.36-.02-26.82,2.98-31.89,4.93-.15-.26-.29-.51-.45-.74-.18-.29-.36-.58-.52-.87,5.13-2.04,15.86-5.2,32.96-5.15Z"/>
      <path class="cls-10" d="M239.06,285.89l-.09,1.84c-14.73,0-24.68,2.47-30.16,4.37,0,0,0,0,0,0,0-.02,0-.05-.02-.06-.06-.17-.13-.34-.19-.51-.06-.17-.14-.34-.2-.51-.09-.22-.18-.44-.28-.65,5.63-1.98,15.77-4.5,30.96-4.48Z"/>
    </g>
    <g>
      <g>
        <g>
          <g>
            <g>
              <path class="cls-20" d="M143.36,217.14s-.03.02-.05.03c0-.03,0-.05,0-.05l.04.02Z"/>
              <path class="cls-20" d="M150,225.71c-.57-.32-1.14-.65-1.7-.98-.56-.34-1.12-.69-1.67-1.05-.56-.37-1.12-.74-1.66-1.13-.62-.45-1.24-.9-1.85-1.38,0,0-.17-.08-.39-.24-1.75,11.79-6.57,47.11-2.11,50.5.41.31,1.01.6,1.76.85h0c.35.12.73.23,1.13.33,5.04,1.3,14.62,1.69,23.02,1.77,4.42.04,8.52-.02,11.46-.07,1.39-.04,2.53-.06,3.31-.09.78-.02,1.22-.04,1.22-.04l6.73-23.17v-14.74s-21.93-.95-39.26-10.57ZM148.85,269.03l-1.82.23c-.02-.12-.03-.25-.05-.37.57,0,1.19,0,1.85.02,0,.04,0,.08.02.12ZM143.07,269.26c0-.09-.02-.17-.03-.27.44-.03,1.06-.06,1.84-.07,0,.04,0,.07,0,.11l-1.82.23Z"/>
              <path class="cls-17" d="M143.12,286.85c6.32,0,18.71.6,30.42,4.73-.06.16-.12.32-.18.49-.04.1-.07.2-.11.3-.1.28-.19.57-.28.85,0,0,0,0,0,.02-.11.34-.21.67-.29,1.01-.04.13-.06.25-.1.37-.06.25-.12.5-.17.74-.03.13-.06.26-.08.38-.06.28-.12.54-.17.82-.06.27-.1.53-.15.8,0,.02,0,.05,0,.07-.06.32-.1.64-.15.96v.02c-.06.49-.12.95-.17,1.4,0,.15-.03.29-.04.43-.06.73-.11,1.38-.13,1.96,0,.23-.02.44-.02.64,0,.1,0,.18,0,.28v.05c0,.92.02,1.46.02,1.46,0,0-.2,5.31-9.29,4.09-9.09-1.23-18.28-5.31-18.28-5.31l-.32-6.5-.5-10.04Z"/>
              <path class="cls-17" d="M174.98,288.56c-.08.16-.17.31-.26.47,0,.02-.02.03-.03.05-.03.06-.06.13-.1.19-.04.06-.07.13-.1.19-.08.14-.15.28-.22.43-12.05-4.26-24.79-4.88-31.25-4.88l-.03-.51-.06-1.19c6.53,0,19.81.62,32.04,5.25Z"/>
              <path class="cls-17" d="M176.89,284.89c-.03.08-.06.16-.08.24-.25.62-.53,1.23-.87,1.85-12.62-4.86-26.39-5.51-33.09-5.49l-.06-1.07v-.28c4.33-.19,18.25-.32,34.1,4.75Z"/>
              <path class="cls-1" d="M178.19,278.26c-.02.55-.06,1.13-.13,1.74h0c-.04.31-.07.62-.13.94-.15.95-.37,1.93-.69,2.94-.11.34-.23.67-.36,1.01-15.85-5.07-29.77-4.94-34.11-4.75l-.37-7.41-.02-.43h0l-.16-3.23s.28-.03.81-.06c0,.09.02.17.03.27l1.82-.23s0-.07,0-.11c.61-.02,1.3-.03,2.1-.03.02.12.03.25.05.37l1.82-.23s0-.08-.02-.12c6.31.14,16.69.98,29,4.42,0,0,0,.03.02.07,0,.07.05.22.08.42.02.1.04.22.06.36,0,.05,0,.08.02.13,0,.08.03.19.04.28,0,.03,0,.05,0,.06,0,.03,0,.06,0,.08,0,.1.02.2.04.32,0,.06,0,.14.02.21,0,.1.02.21.03.33,0,.13.02.27.03.4,0,.04,0,.08,0,.13,0,.11.02.22.02.34.02.54.03,1.14,0,1.77Z"/>
              <path class="cls-14" d="M172.11,315.71l-.4,2.89c-7.64,1.66-12.26.68-12.26.68-4.59,8.17-8.99,5.62-8.99,5.62-12.52-9.77-21.4-8.54-26.04-7.29l12.16-11.81c.15-.26,1.02-4.49,0-7.2-1.02-2.7,22.92-2.6,23.79,3.11.79,5.26.13,5.47.02,5.47.45-.02,8.92-.36,9.27-3.99,0,0,1.53-3.46,2.44,2.55.92,6.03,0,9.96,0,9.96Z"/>
              <path class="cls-16" d="M171.72,318.6l-.31,2.32s-4.39,1.94-10.92.92c0,0-2.45,11.64-25.12,9.7-22.66-1.94-13.07-11.84-13.07-11.84l2.14-2.08c4.64-1.25,13.52-2.48,26.04,7.29,0,0,4.39,2.55,8.99-5.62,0,0,4.61.98,12.26-.68Z"/>
            </g>
            <path class="cls-12" d="M189.26,233.66v2.62s-34.86,0-46.14-15.11c0,0-.17-.08-.39-.24.32-2.13.53-3.49.58-3.77.02,0,.03-.02.05-.03l.76.27,45.14,13.72v2.53Z"/>
            <path class="cls-12" d="M189.26,247.77s-18.48.77-25.37-5.51c0,0,5.46,6.43,17.92,6.94l-9.8,5.77,17.25-3.98v-3.22Z"/>
          </g>
          <path class="cls-22" d="M137.4,305.98s4.95-2.76,19.3,3.47c0,0-10.36-2.96-19.3-3.47Z"/>
          <path class="cls-2" d="M143.33,217.12l.03.02h0l.76.27,2.71.83.47.14.46.14,2.43.74.08.03.98.29,38,11.55v19.89l-6.73,23.17s-.44.02-1.22.04c-.78.03-1.92.06-3.31.09,0,.08.03.19.04.28,0,.03,0,.05,0,.06,0,.03,0,.06,0,.08,0,.1.02.2.04.32,0,.06,0,.14.02.21,0,.1.02.21.03.33,0,.13.02.27.03.4,0,.04,0,.08,0,.13,0,.03,0,.05,0,.07,0,.09,0,.17,0,.27.02.54.03,1.14,0,1.77-.02.55-.06,1.13-.13,1.74h0c-.04.31-.07.62-.13.94-.15.96-.37,1.94-.69,2.94-.11.34-.23.67-.36,1.01-.03.08-.06.16-.08.24-.25.62-.53,1.23-.87,1.85-12.46-4.8-26.02-5.49-32.82-5.49-.09,0-.18,0-.27,0l-.06-1.07v-.28s-.38-7.41-.38-7.41l-.02-.43h0c-.75-.26-1.35-.54-1.76-.85-4.46-3.39.37-38.71,2.11-50.5h0c.32-2.13.53-3.49.58-3.77h0s0-.05,0-.05M147.03,269.27l1.82-.23s0-.08-.02-.12c-.66,0-1.28-.02-1.85-.02.02.12.03.25.05.37M143.07,269.27l1.82-.23s0-.07,0-.11c-.78.02-1.4.05-1.84.07,0,.09.02.17.03.27M143.08,283.31c6.58,0,19.76.65,31.9,5.25-.08.16-.17.31-.26.47,0,.02-.02.03-.03.05-.03.06-.06.13-.1.19-.04.06-.06.13-.09.19-.08.14-.16.28-.22.43-.03.06-.06.11-.08.17.03-.06.05-.11.07-.17-12.05-4.26-24.79-4.88-31.25-4.88l-.03-.51-.06-1.19s.09,0,.14,0M143.12,286.85c6.32,0,18.71.6,30.42,4.73-.06.16-.12.32-.18.49-.04.1-.07.2-.11.3-.1.28-.19.57-.28.85,0,0,0,0,0,.02-.1.34-.2.68-.29,1.01-.04.13-.06.25-.1.37-.06.25-.12.5-.17.74-.03.13-.06.26-.08.38-.06.28-.12.54-.17.82-.06.27-.1.53-.15.8,0,.02,0,.05,0,.07-.06.32-.1.64-.15.96v.02c-.06.49-.12.95-.17,1.4,0,.15-.03.29-.04.43-.06.73-.11,1.38-.13,1.96,0,.23-.02.44-.02.64,0,.1,0,.18,0,.28v.05s.03.05.04.06c0,.02.02.05.03.07,0,0,.02.02.02.03.03.08.06.17.08.27.03.09.06.18.08.28.03.09.06.19.08.3.05.19.09.4.14.62.06.28.11.61.17.96.92,6.03,0,9.96,0,9.96l-.4,2.89-.31,2.32s-2.75,1.22-7.14,1.22c-1.15,0-2.42-.08-3.78-.3,0,0-2.09,9.92-20.24,9.92-1.51,0-3.14-.07-4.88-.22-22.66-1.94-13.07-11.84-13.07-11.84l2.14-2.08,12.16-11.81c.15-.26,1.02-4.49,0-7.2-.02-.06-.03-.11-.03-.17s0-.11.04-.17c0,0,0-.02,0-.03s0-.02.02-.03c0-.02.02-.03.03-.05.06-.08.14-.17.26-.24.06-.04.12-.08.19-.12.07-.04.14-.06.22-.1.03,0,.05-.02.07-.03.09-.04.18-.07.28-.11.06-.02.13-.04.2-.06,0,0,.02,0,.03,0,.07-.02.16-.05.24-.06.13-.04.28-.06.42-.1.29-.06.62-.12.96-.17.05,0,.08,0,.13-.02.06,0,.14-.02.2-.03.07,0,.14-.02.21-.03.15-.02.29-.04.45-.05.03,0,.06,0,.08,0,.28-.03.58-.06.88-.07.05,0,.09,0,.15,0,.4-.02.81-.05,1.24-.06.24,0,.48-.02.73-.02l-.5-10.04M143.33,214.14c-.49,0-.97.12-1.41.35-.68.36-1.18.96-1.43,1.66-.07.2-.12.41-.15.62-.07.42-.27,1.74-.57,3.71,0,.03,0,.07-.01.1-7.18,48.51-2.81,51.83-.95,53.25.21.16.44.31.68.45l.3,6.01v.23s0,.04,0,.05l.06,1.07c.02.32.08.62.19.91-.08.3-.11.6-.1.91l.06,1.19.03.54c.02.32.08.62.19.9-.08.3-.11.61-.1.92l.35,7.05s-.09,0-.14.01h0s-.04,0-.06,0c-.19.01-.37.04-.56.06l-.13.02h-.08s-.03.02-.05.02h-.07s-.13.03-.13.03c0,0-.01,0-.02,0-.04,0-.09.01-.13.02-.34.05-.65.1-.95.16l-.12.02c-.06.01-.12.02-.17.04l-.11.02c-.12.03-.23.05-.33.08-.06.01-.12.03-.18.05-.09.02-.19.05-.28.08-.03,0-.06.02-.09.02-.07.02-.14.04-.21.07-.12.04-.23.09-.34.13,0,0-.01,0-.02,0-.06.02-.13.05-.19.08-.15.06-.24.11-.35.16-.23.11-.4.23-.49.29-.45.29-.82.65-1.11,1.09-.02.03-.04.07-.07.1-.02.03-.04.06-.06.1-.06.1-.11.2-.15.3-.21.45-.32.93-.32,1.43,0,.38.06.75.18,1.11.01.04.03.07.04.11.47,1.24.28,3.45.09,4.6l-11.53,11.2-2.14,2.08s-.04.04-.07.07c-.43.44-4.15,4.47-2.41,9.12,1.64,4.39,7.33,6.94,17.38,7.8,1.77.15,3.5.23,5.13.23,14.6,0,20.13-6.07,22.12-9.69.64.04,1.27.07,1.9.07,4.88,0,8.01-1.32,8.35-1.47.95-.42,1.62-1.31,1.76-2.34l.31-2.32.38-2.77c.18-.88.91-5.03,0-10.93-.06-.4-.12-.76-.19-1.07-.06-.29-.11-.52-.16-.75-.04-.18-.08-.31-.12-.43-.03-.11-.06-.21-.09-.32,0-.03-.02-.06-.03-.09,0-.09,0-.18.01-.28,0,0,0-.06,0-.07.02-.47.05-1.06.12-1.79,0-.02,0-.04,0-.07v-.12c.02-.08.03-.17.03-.26.04-.41.09-.82.15-1.26,0-.03,0-.05,0-.08v-.02c.04-.22.07-.45.11-.67.02-.09.03-.19.05-.29.03-.19.07-.38.11-.57,0-.04.02-.08.02-.11.04-.21.08-.42.13-.63.03-.14.06-.28.09-.42l.03-.11c.04-.15.07-.31.11-.47.02-.08.05-.16.07-.25l.03-.1c.08-.29.17-.58.25-.86.02-.05.04-.1.05-.16.07-.23.14-.46.22-.69l.07-.19.02-.06c.03-.08.06-.16.09-.23.02-.06.04-.11.06-.16.1-.24.17-.5.2-.76.14-.17.27-.36.37-.57l.06-.13s.07-.13.09-.18c.01-.03.03-.06.04-.09.07-.11.12-.22.17-.34.03-.06.06-.11.09-.17.01-.02.02-.04.04-.07l.09-.17c.05-.1.11-.2.16-.29.12-.23.21-.48.27-.73.26-.23.48-.5.66-.82.38-.69.72-1.4,1.03-2.18.02-.06.04-.12.06-.17l.02-.07.03-.09c.14-.37.27-.74.39-1.11.35-1.09.62-2.22.8-3.38.06-.34.1-.68.14-1.01,0-.03,0-.06,0-.09.07-.62.12-1.26.15-1.97.02-.4.02-.78.02-1.13.07,0,.14,0,.2,0,.78-.02,1.24-.04,1.24-.04,1.29-.05,2.4-.92,2.76-2.16l6.73-23.17c.08-.27.12-.55.12-.84v-19.89c0-1.32-.86-2.49-2.13-2.87l-38-11.55-.95-.28h-.04s-.05-.03-.07-.04l-2.43-.74-.47-.14-.48-.14-2.62-.8-.71-.25c-.13-.05-.26-.08-.4-.11-.2-.04-.41-.06-.62-.06h0Z"/>
        </g>
        <path class="cls-11" d="M151.27,219.54s0,.02,0,.04c-.07.3-.62,2.5-1.26,6.14-.08.44-.16.91-.24,1.4-1.45,8.83-3.13,24.47-.94,41.81-.66,0-1.28-.02-1.85-.02-2.25-18-.38-34.16,1.11-42.92.07-.44.15-.85.21-1.25.64-3.55,1.17-5.6,1.19-5.66l.71.18.08.03.99.26Z"/>
        <g>
          <path class="cls-19" d="M178.17,276.15s0-.09,0-.13c0-.14-.02-.28-.03-.4,0-.12-.02-.23-.03-.33,0-.07,0-.15-.02-.21-.02-.12-.03-.22-.04-.32,0-.03,0-.06,0-.08,0-.02,0-.04,0-.06,0-.09-.03-.2-.04-.28,0-.05-.02-.08-.02-.13-.02-.14-.04-.26-.06-.36-.04-.2-.07-.35-.08-.42,0-.05-.02-.07-.02-.07-12.3-3.44-22.69-4.28-29-4.42-.66,0-1.28-.02-1.85-.02-.8,0-1.5,0-2.1.03-.78.02-1.4.05-1.84.07-.53.03-.81.06-.81.06l.17,3.23.02.43c.2-.03.57-.06,1.11-.1,2.73-.17,9.91-.27,23.02,1.77,3.45.53,7.33,1.22,11.65,2.09,0-.12,0-.23-.02-.34Z"/>
          <path class="cls-11" d="M147.77,218.48s0,0,0,.03c-.06.25-.53,2.09-1.13,5.17-.06.32-.13.65-.19.99-1.64,8.77-3.91,25.79-1.56,44.25-.78.02-1.4.05-1.84.07-2.45-19.45.16-37.31,1.81-45.8.05-.22.08-.44.12-.64.58-2.86,1-4.48,1.02-4.55l.85.23.94.25Z"/>
        </g>
      </g>
      <path class="cls-10" d="M175.94,286.97c-.18.36-.4.72-.62,1.07-.11.17-.22.35-.32.52h0c-12.23-4.63-25.51-5.26-32.04-5.25l-.09-1.84c6.7-.02,20.46.63,33.09,5.49Z"/>
      <path class="cls-10" d="M174.27,289.89c-.03.06-.05.11-.07.17-.08.17-.16.33-.23.5-.07.17-.15.33-.22.51,0,.02-.02.05-.03.06-.06.15-.13.29-.17.44,0,0,0,0,0,.02-11.71-4.13-24.1-4.73-30.42-4.73l-.03-.51-.06-1.32c6.46,0,19.2.62,31.25,4.88Z"/>
    </g>
    <g>
      <path class="cls-2" d="M145.34,111.73l10.19,35.16-14.04,31.09s-19.01,12.4-27.67,18.46c-.75.17-1.49.32-2.21.46-.5.5-1.01.98-1.56,1.43-.12.1-.23.19-.33.28-3.4,2.96-18.77,8.45-27.43,11.24.02.88,0,1.78-.04,2.71,0,0-3.5,1.62-6.81,1.62-.61,0-1.21-.05-1.79-.18,0,0-8.08,9.63-22.79,14.83,0,0-10.82,6.68-18,6.68-2.32,0-4.26-.7-5.33-2.54-.04-.05-.07-.11-.1-.17,0,0-.61.19-1.56.38-.88.17-2.04.33-3.27.33-2.75,0-5.83-.81-6.72-4.2-.04-.14-.07-.27-.1-.43,0-.01-.01-.03-.01-.04,0,0-2.67,1.42-5.63,1.42-2.38,0-4.96-.92-6.47-4.25,0,0,1.5-2.26,4.31-5.31.07-.08.14-.15.21-.23,0,0-.06-.01-.18-.04-.93-.23-5.23-1.52-5.02-4.99.2-3.52,9.97-11.05,11.89-12.49,0,0,0,0,0,0,.21-.17.33-.25.33-.25,0,0-.02-.01-.07-.02,0,0,0,0,.01,0,0,0,0,0,0,0-.74-.25-7.01-2.54-6.15-7.33,0,0,13.47-7.35,22.3-9.39,4.41-1.02,7.73-1.78,10.63-1.78,2.9,0,5.37.75,8.11,2.75,0,0,0,0,0,0,.26,0,2.85-9.29,4.86-9.29.04,0,.08,0,.12.01.37.07,1.56.33,3.24.87,8.87-7.56,21.73-14.9,21.73-14.9,1.97-4.68,7.7-4.98,7.7-4.98,1.3-.94,2.85-1.43,4.43-1.43l24.92-17.95s2.94-8.61,6.56-13.47c3.63-4.86,21.74-14.04,21.74-14.04M145.34,108.73c-.47,0-.93.11-1.36.32-3.13,1.59-18.93,9.76-22.78,14.92-3.17,4.26-5.77,10.94-6.67,13.37l-23.45,16.89c-1.58.15-3.1.66-4.46,1.49-1.96.3-6.58,1.45-8.94,5.74-2.84,1.67-12.48,7.45-20.12,13.7-1.12-.31-1.84-.45-2.01-.48-.22-.04-.44-.06-.66-.06h0c-2.97,0-4.64,3.19-6.4,7.9-2.06-.93-4.18-1.37-6.57-1.37-3.29,0-6.83.82-11.31,1.85-9.13,2.11-22.49,9.37-23.06,9.68-.8.44-1.36,1.21-1.52,2.11-.64,3.59,1.15,6.4,3.69,8.35C4.87,207.1.21,211.77.01,215.25c-.17,2.83,1.27,4.9,3.28,6.3-1.34,1.65-2.06,2.73-2.1,2.79-.57.86-.66,1.96-.23,2.9,1.76,3.88,5.03,6.01,9.2,6.01,1.47,0,2.85-.26,4-.59,1.66,2.47,4.61,3.84,8.46,3.84,1.15,0,2.38-.12,3.64-.35,1.32,1.28,3.38,2.36,6.62,2.36,7.37,0,17.24-5.71,19.3-6.96,12.12-4.36,19.88-11.51,22.65-14.38.21.01.41.02.62.02,3.86,0,7.65-1.7,8.07-1.9,1.02-.47,1.69-1.47,1.74-2.59,0-.22.02-.44.02-.66,6.46-2.14,22.37-7.65,26.41-11.16.09-.08.18-.15.28-.24.36-.3.72-.62,1.09-.97.48-.1.95-.2,1.41-.3.38-.09.74-.25,1.06-.47,8.52-5.96,27.4-18.28,27.59-18.4.48-.31.86-.76,1.1-1.28l14.04-31.09c.29-.65.35-1.38.15-2.07l-10.19-35.16c-.25-.86-.87-1.56-1.69-1.92-.38-.17-.79-.25-1.2-.25h0Z"/>
      <path class="cls-8" d="M111.32,164.76c9.97,9.06,9.09,24.94-1.26,33.56-.12.1-.23.19-.33.28-4.69,4.07-32.15,12.98-33.36,12.98s-29.87-15.08-25.8-24.29c4.07-9.21,29.43-23.69,29.43-23.69,1.97-4.68,7.7-4.98,7.7-4.98h0c1.46-1.06,3.25-1.56,5.05-1.41,5.31.43,12.59,2.13,18.57,7.56Z"/>
      <path class="cls-8" d="M145.34,111.73s-18.11,9.18-21.74,14.04c-3.62,4.86-6.56,13.47-6.56,13.47l-25.99,18.72c-1.28.68-2.27,1.21-2.27,1.21,0,0-20.12,47.4,25.03,37.27,8.66-6.06,27.67-18.46,27.67-18.46l14.04-31.09-10.19-35.16Z"/>
      <g>
        <path class="cls-11" d="M82.26,212.56s-4.9,2.27-8.6,1.44c0,0-8.08,9.63-22.79,14.83,0,0-18.95,11.69-23.33,4.14-.04-.05-.07-.11-.1-.17,0,0-.61.19-1.56.38-2.84.54-8.71,1.03-9.99-3.87-.04-.14-.07-.27-.1-.43,0-.01-.01-.03-.01-.04,0,0-8.71,4.63-12.1-2.83,0,0,1.5-2.26,4.31-5.31.07-.08.14-.15.21-.23,0,0-.06-.01-.18-.04-.93-.23-5.23-1.52-5.02-4.99.2-3.52,9.98-11.06,11.9-12.49.21-.17.33-.25.33-.25,0,0-.02-.01-.07-.02-.74-.25-7.01-2.54-6.15-7.33,0,0,13.47-7.35,22.3-9.39,8.82-2.04,13.27-3.03,18.74.98.22.16,2.94-9.66,4.98-9.28s28.52,6.34,27.24,34.93Z"/>
        <path class="cls-13" d="M53.52,208.98c-1.91,1.11-16.26,8.7-24.07-6.92,0,0-7.16,2.48-14.56.87.21-.17.33-.25.33-.25,0,0-.02-.01-.07-.02,3.56.2,11.41.36,14.76-1.83,0,0,9.91,15.85,23.61,8.16Z"/>
        <path class="cls-13" d="M27.56,207.62c.17.28,3.85,8.26,15.9,16.86l-15.9-16.86Z"/>
        <path class="cls-13" d="M8,220.69c.07-.08.14-.15.21-.23,0,0-.06-.01-.18-.04,2.71-1.74,15.49-9.56,20.16-11.63l.03.06c.11.17.22.37.36.58,0,0-15.76,10.34-20.57,11.27Z"/>
        <path class="cls-13" d="M35.14,216.91s-.12.09-.35.25c-2.19,1.63-14.13,10.44-18.89,12.13-.04-.14-.07-.27-.1-.43,3.21-2.33,13.79-9.76,18.41-12.31.17-.1.34-.19.5-.27l.44.63Z"/>
        <path class="cls-13" d="M41.22,222.35s-.1.09-.3.25c-1.52,1.29-8.62,7.29-13.37,10.36-.04-.05-.07-.11-.1-.17,0,0-.61.19-1.56.38,3.49-2.85,10.91-8.76,14.43-11.04.17-.11.33-.21.48-.31l.42.53Z"/>
      </g>
      <path class="cls-4" d="M55.03,177.78c2.04.38,28.52,6.34,27.24,34.93"/>
      <path class="cls-3" d="M86.16,168.28s15.96-4.98,23.54,3.85c0,0,3.62,4.75,0,12s-3.96,5.66-3.62,4.98,2.6-2.83,2.38-5.89c-.23-3.06-12.56-13.35-12.56-13.35,0,0-7.58-1.81-9.73-1.58Z"/>
      <path class="cls-15" d="M51.06,187.63c-.54-.4,16.72,9.88,21.29,24.67,0,0-6.81-14.03-21.29-24.67Z"/>
    </g>
    <g>
      <path class="cls-2" d="M236.72,111.78s18.11,9.18,21.74,14.04c3.62,4.86,6.56,13.47,6.56,13.47l24.92,17.95c1.59,0,3.14.5,4.43,1.43,0,0,5.73.31,7.7,4.98,0,0,12.86,7.35,21.73,14.9,1.68-.54,2.87-.8,3.24-.87.04,0,.08-.01.12-.01,2.01,0,4.6,9.29,4.86,9.29,0,0,0,0,0,0,2.73-2,5.21-2.75,8.11-2.75s6.22.76,10.63,1.78c8.83,2.04,22.3,9.39,22.3,9.39.86,4.8-5.41,7.08-6.15,7.33,0,0,0,0,0,0,0,0,0,0,.01,0-.05.01-.07.02-.07.02,0,0,.11.08.33.25,0,0,0,0,0,0,1.92,1.43,11.69,8.96,11.89,12.49.2,3.47-4.09,4.76-5.02,4.99-.12.03-.18.04-.18.04.07.08.14.15.21.23,2.81,3.05,4.31,5.31,4.31,5.31-1.51,3.33-4.08,4.25-6.47,4.25-2.96,0-5.63-1.42-5.63-1.42,0,.01-.01.03-.01.04-.03.15-.06.29-.1.43-.89,3.39-3.97,4.2-6.72,4.2-1.23,0-2.39-.16-3.27-.33-.95-.18-1.56-.38-1.56-.38-.03.06-.06.12-.1.17-1.07,1.85-3.01,2.54-5.33,2.54-7.18,0-18-6.68-18-6.68-14.71-5.2-22.79-14.83-22.79-14.83-.57.13-1.18.18-1.79.18-3.31,0-6.81-1.62-6.81-1.62-.04-.93-.05-1.83-.04-2.71-8.66-2.8-24.03-8.29-27.43-11.24-.1-.09-.21-.18-.33-.28-.55-.46-1.06-.94-1.56-1.43-.72-.14-1.45-.29-2.21-.46-8.66-6.06-27.67-18.46-27.67-18.46l-14.04-31.09,10.19-35.16M366.91,202.71h0M236.72,108.78c-.41,0-.81.08-1.2.25-.82.36-1.44,1.06-1.69,1.92l-10.19,35.16c-.2.69-.15,1.42.15,2.07l14.04,31.09c.24.52.62.97,1.1,1.28.19.12,19.07,12.44,27.59,18.4.32.22.68.38,1.06.47.47.1.93.2,1.41.3.37.34.73.66,1.09.97.1.08.19.16.28.24,4.04,3.51,19.95,9.02,26.41,11.16,0,.22.01.44.02.66.05,1.12.72,2.12,1.74,2.59.42.19,4.21,1.9,8.07,1.9.21,0,.42,0,.62-.02,2.77,2.87,10.53,10.02,22.65,14.38,2.06,1.24,11.92,6.96,19.3,6.96,3.23,0,5.3-1.08,6.62-2.36,1.27.23,2.49.35,3.64.35,3.85,0,6.8-1.37,8.46-3.84,1.15.33,2.53.59,4,.59,4.17,0,7.44-2.14,9.2-6.01.43-.94.34-2.04-.23-2.9-.04-.07-.76-1.15-2.1-2.79,2-1.39,3.44-3.47,3.28-6.3-.2-3.48-4.86-8.14-9.73-12.1,2.53-1.94,4.33-4.76,3.69-8.35-.16-.9-.72-1.67-1.52-2.11-.56-.31-13.93-7.58-23.06-9.68-4.48-1.04-8.02-1.85-11.31-1.85-2.39,0-4.52.43-6.57,1.37-1.76-4.71-3.43-7.9-6.4-7.9-.22,0-.44.02-.66.06-.17.03-.89.17-2.01.48-7.64-6.25-17.27-12.03-20.12-13.7-2.35-4.29-6.98-5.44-8.94-5.74-1.36-.83-2.87-1.34-4.46-1.49l-23.45-16.89c-.89-2.44-3.49-9.11-6.66-13.37-3.85-5.16-19.66-13.34-22.79-14.92-.43-.22-.89-.32-1.36-.32h0Z"/>
      <path class="cls-8" d="M270.75,164.81c-9.97,9.06-9.09,24.94,1.26,33.56.12.1.23.19.33.28,4.69,4.07,32.15,12.98,33.36,12.98s29.87-15.08,25.8-24.29c-4.07-9.21-29.43-23.69-29.43-23.69-1.97-4.68-7.7-4.98-7.7-4.98h0c-1.46-1.06-3.25-1.56-5.05-1.41-5.31.43-12.59,2.13-18.57,7.56Z"/>
      <path class="cls-8" d="M236.72,111.78s18.11,9.18,21.74,14.04c3.62,4.86,6.56,13.47,6.56,13.47l25.99,18.72c1.28.68,2.27,1.21,2.27,1.21,0,0,20.12,47.4-25.03,37.27-8.66-6.06-27.67-18.46-27.67-18.46l-14.04-31.09,10.19-35.16Z"/>
      <g>
        <path class="cls-11" d="M299.8,212.6s4.9,2.27,8.6,1.44c0,0,8.08,9.63,22.79,14.83,0,0,18.95,11.69,23.33,4.14.04-.05.07-.11.1-.17,0,0,.61.19,1.56.38,2.84.54,8.71,1.03,9.99-3.87.04-.14.07-.27.1-.43,0-.01.01-.03.01-.04,0,0,8.71,4.63,12.1-2.83,0,0-1.5-2.26-4.31-5.31-.07-.08-.14-.15-.21-.23,0,0,.06-.01.18-.04.93-.23,5.23-1.52,5.02-4.99-.2-3.52-9.98-11.06-11.9-12.49-.21-.17-.33-.25-.33-.25,0,0,.02-.01.07-.02.74-.25,7.01-2.54,6.15-7.33,0,0-13.47-7.35-22.3-9.39-8.82-2.04-13.27-3.03-18.74.98-.22.16-2.94-9.66-4.98-9.28s-28.52,6.34-27.24,34.93Z"/>
        <path class="cls-13" d="M328.54,209.03c1.91,1.11,16.26,8.7,24.07-6.92,0,0,7.16,2.48,14.56.87-.21-.17-.33-.25-.33-.25,0,0,.02-.01.07-.02-3.56.2-11.41.36-14.76-1.83,0,0-9.91,15.85-23.61,8.16Z"/>
        <path class="cls-13" d="M354.51,207.67c-.17.28-3.85,8.26-15.9,16.86l15.9-16.86Z"/>
        <path class="cls-13" d="M374.06,220.73c-.07-.08-.14-.15-.21-.23,0,0,.06-.01.18-.04-2.71-1.74-15.49-9.56-20.16-11.63l-.03.06c-.11.17-.22.37-.36.58,0,0,15.76,10.34,20.57,11.27Z"/>
        <path class="cls-13" d="M346.92,216.95s.12.09.35.25c2.19,1.63,14.13,10.44,18.89,12.13.04-.14.07-.27.1-.43-3.21-2.33-13.79-9.76-18.41-12.31-.17-.1-.34-.19-.5-.27l-.44.63Z"/>
        <path class="cls-13" d="M340.84,222.39s.1.09.3.25c1.52,1.29,8.62,7.29,13.37,10.36.04-.05.07-.11.1-.17,0,0,.61.19,1.56.38-3.49-2.85-10.91-8.76-14.43-11.04-.17-.11-.33-.21-.48-.31l-.42.53Z"/>
      </g>
      <path class="cls-4" d="M327.04,177.83c-2.04.38-28.52,6.34-27.24,34.93"/>
      <path class="cls-3" d="M295.91,168.32s-15.96-4.98-23.54,3.85c0,0-3.62,4.75,0,12s3.96,5.66,3.62,4.98-2.6-2.83-2.38-5.89,12.56-13.35,12.56-13.35c0,0,7.58-1.81,9.73-1.58Z"/>
      <path class="cls-15" d="M331,187.68c.54-.4-16.72,9.88-21.29,24.67,0,0,6.81-14.03,21.29-24.67Z"/>
    </g>
    <path class="cls-8" d="M169.49,131.63c-25.87,20.05-30.79,49.89-30.79,49.89-6.88-13.13-3.48-24.67-3.48-24.67,9.12-11.32,14.43-38.63,14.43-38.63l19.84,13.41Z"/>
    <path class="cls-20" d="M161.68,227.66s-1.03,20.01,29.38,20.01,29.32-19.39,29.32-19.39l-58.7-.62Z"/>
    <g>
      <path class="cls-20" d="M191.06,237.65c-34.14-3.04-46.27-11.59-50.45-18.2-3-4.76-1.91-8.51-1.91-8.51v-29.43s4.92-29.84,30.79-49.89l21.57,14.59,21.57-14.59c25.87,20.05,30.79,49.89,30.79,49.89v29.43s6.26,21.5-52.36,26.71Z"/>
      <path class="cls-8" d="M243.43,181.52s-1.06-6.46-4.81-15.39c-2.29,6.42-5.69,17.23-5.08,23.46.94,9.64,1.82,36.06,1.83,36.32.03.83-.62,1.52-1.45,1.55h-.05c-.8,0-1.47-.64-1.5-1.45-.01-.26-.88-26.58-1.82-36.13-.79-8,4.16-22.01,6.32-27.67-4.57-9.62-12.09-21.18-24.23-30.58l19.84-13.42s5.31,27.32,14.43,38.64c0,0,3.39,11.54-3.48,24.67Z"/>
      <path class="cls-8" d="M146.5,160.65c1.6,4.03,7.8,20.35,6.93,29.23-.94,9.55-1.82,35.87-1.82,36.13-.03.81-.7,1.45-1.5,1.45h-.05c-.83-.03-1.48-.72-1.45-1.55.01-.26.88-26.68,1.83-36.32.67-6.82-3.47-19.13-5.71-25.16-4.34,9.8-5.54,17.09-5.54,17.09-6.87-13.13-3.48-24.67-3.48-24.67,9.12-11.32,14.43-38.64,14.43-38.64l19.84,13.42c-11.49,8.9-18.84,19.73-23.48,29.02Z"/>
      <path class="cls-5" d="M138.96,181.89v29.43s-1.09,3.75,1.91,8.51c4.18,6.61,16.31,15.17,50.45,18.2,58.63-5.2,52.36-26.71,52.36-26.71v-29.43h0c6.88-13.13,3.48-24.67,3.48-24.67-9.12-11.32-14.43-38.63-14.43-38.63l-19.84,13.41h0l-21.57,14.59-21.3-14.4c.08-.06.15-.12.23-.18l-19.84-13.41s-5.32,27.32-14.43,38.63c0,0-3.26,11.12,3.12,23.95-.09.46-.14.72-.14.72"/>
    </g>
    <g>
      <path class="cls-2" d="M190.41,3h0c53.09.18,55.92,56.51,55.71,71.5.16-.12.25-.2.26-.21,0,0,0-.01.01-.01h0c1.65-1.49,3.32-2.5,4.83-2.5,1.09,0,2.08.53,2.92,1.79,5.27,7.94,6.42,14.65,2.32,21.79-2.93,5.12-11.06,13.41-17.2,13.41-.58,0-1.13-.07-1.67-.23.09,1.25.18,2.39.26,3.35.19,2.34-.05,4.7-.79,6.92-11.03,33.11-40.51,35.27-46.11,35.27-.38,0-.66-.01-.8-.02-.15.01-.42.02-.8.02-5.57,0-34.83-2.17-45.86-35.27-.74-2.23-.98-4.58-.79-6.92.08-.96.17-2.1.26-3.35-.54.16-1.09.23-1.67.23-6.14,0-14.27-8.29-17.2-13.41-4.09-7.14-2.94-13.84,2.32-21.79.84-1.26,1.83-1.79,2.92-1.79,1.5,0,3.18,1.01,4.83,2.5h0s0,0,.01.01c.01.01.11.09.26.21-.21-14.99,2.62-71.31,55.71-71.49h0s.08,0,.13,0c.04,0,.08,0,.13,0M190.41,0h-.14s-.11,0-.11,0c-.06,0-.12,0-.17,0-16.13.09-29.28,5.19-39.09,15.17-15.69,15.96-18.92,40.18-19.39,53.94-.73-.23-1.45-.35-2.16-.35-2.15,0-4.08,1.11-5.42,3.13-6.12,9.23-6.89,17.16-2.43,24.94,2.79,4.86,10.71,13.66,18.22,14.8,0,0,0,0,0,0-.23,2.83.08,5.56.94,8.11,12.09,36.28,44.99,37.33,48.71,37.33.3,0,.57,0,.8-.02.22.01.5.02.8.02,3.74,0,36.86-1.05,48.95-37.33.85-2.56,1.17-5.28.94-8.11,0,0,0,0,0,0,7.51-1.14,15.43-9.94,18.22-14.8,4.46-7.78,3.69-15.71-2.42-24.94-1.34-2.02-3.27-3.13-5.42-3.13-.71,0-1.43.12-2.16.35-.47-13.76-3.7-37.98-19.39-53.94C219.87,5.2,206.72.09,190.59,0c-.06,0-.11,0-.17,0h0Z"/>
      <path class="cls-1" d="M254.15,73.56c-1.99-3-4.9-1.86-7.75.72h0s0,0-.01.01c-.09.08-4.29,3.39-7.28,6.2l-2.36,13.13s-3.08-36.89-9.64-42.78c-6.32-5.67-34.78-.41-36.82-.02-2.03-.38-30.49-5.64-36.82.02-6.56,5.89-9.64,42.78-9.64,42.78l-2.36-13.13c-2.99-2.81-7.19-6.12-7.28-6.2,0,0,0-.01-.01-.01h0c-2.85-2.57-5.76-3.71-7.75-.71-5.27,7.94-6.42,14.65-2.32,21.79,3.23,5.63,12.75,15.13,19,13.15,12.69,34.33,44.08,40.07,47.06,40.54v.04s.05,0,.13-.02c.08.01.13.02.13.02v-.04c2.98-.47,34.38-6.21,47.06-40.54,6.24,1.98,15.77-7.52,19-13.15,4.09-7.14,2.94-13.84-2.32-21.79Z"/>
      <path class="cls-21" d="M127.14,80.49s7.77-.23,10.79,12.15c0,0-7.77,3.83-.91,10.86,0,0-17.5-10.6-9.88-23.01Z"/>
      <ellipse class="cls-18" cx="169.77" cy="98.9" rx="3.62" ry="6.41"/>
      <path class="cls-9" d="M158.75,85.99c1.51-.44,4.75-2.64,15.39,4.3,0,0,5.36,1.89,7.54.45,0,0,2.79,2.87-.98,4.75s-12.45-4.45-17.5-5.66-8.45-.3-8.45-.3c0,0,2.72-3.17,4-3.55Z"/>
      <path class="cls-19" d="M190.41,3h0s-.08,0-.13,0c-.04,0-.08,0-.13,0h0c-53.15.18-55.92,56.63-55.71,71.55.3,1.14.46,1.48.46,1.48l6.56,4.45,2.36,13.13s3.08-36.89,9.64-42.78c6.22-5.58,33.88-.57,36.69-.05v.05s.05,0,.13-.02c.08.01.13.02.13.02v-.05c2.82-.53,30.47-5.53,36.69.05,6.56,5.89,9.64,42.78,9.64,42.78l2.36-13.13,6.56-4.45s.16-.34.46-1.48c.21-14.92-2.56-71.36-55.71-71.54Z"/>
      <path class="cls-21" d="M253.44,80.49s-7.77-.23-10.79,12.15c0,0,7.77,3.83.91,10.86,0,0,17.5-10.6,9.88-23.01Z"/>
      <path class="cls-9" d="M237.86,111.88c-.34-4.19-.89-11.6-1.12-18.26,0,0-7,19.52-20.87,28.93-.96-2.87-8.29-1.71-15.99-11.33,0,0-2.79,6.27-9.6,6.47-6.81-.2-9.6-6.47-9.6-6.47-7.7,9.62-15.03,8.46-15.99,11.33-13.88-9.41-20.87-28.93-20.87-28.93-.23,6.66-.78,14.08-1.12,18.26-.19,2.34.05,4.7.79,6.92,11.79,35.39,44.4,35.43,46.66,35.25,2.26.17,35.12.13,46.91-35.25.74-2.23.98-4.58.79-6.92ZM190.29,140.78c-20.61-4.42-17.82-13.67-17.82-13.67,13.78-1.09,17.1-5.14,17.82-7.57.73,2.42,4.04,6.48,17.82,7.57,0,0,2.79,9.24-17.82,13.67Z"/>
      <ellipse class="cls-18" cx="210.81" cy="98.9" rx="3.62" ry="6.41"/>
      <path class="cls-9" d="M221.82,85.99c-1.51-.44-4.75-2.64-15.39,4.3,0,0-5.36,1.89-7.54.45,0,0-2.79,2.87.98,4.75s12.45-4.45,17.5-5.66,8.45-.3,8.45-.3c0,0-2.72-3.17-4-3.55Z"/>
      <path class="cls-19" d="M199.53,107.11c2.73,2.82.55,3.69-2.55,5.52-3.62,2.14-6.69,3.1-6.69,3.1,0,0-3.07-.95-6.69-3.1-3.1-1.84-5.28-2.71-2.55-5.52.31-.32-3.61,1.5-3.34,3.08.26,1.58,8.54,8.62,12.58,7.92,4.04.7,12.32-6.33,12.58-7.92.26-1.58-3.66-3.4-3.34-3.08Z"/>
      <path class="cls-6" d="M181.05,107.11c.31-.32-3.61,1.5-3.34,3.08.26,1.58,8.54,8.62,12.58,7.92,4.04.7,12.32-6.33,12.58-7.92.26-1.58-3.66-3.4-3.34-3.08"/>
      <path class="cls-19" d="M190.29,130.16c-6.33.63-9.96-1.09-9.96-1.09,1.31,2.83,9.96,3.24,9.96,3.24,0,0,8.66-.42,9.96-3.24,0,0-3.63,1.72-9.96,1.09Z"/>
      <path class="cls-7" d="M155.99,124.71l-3.97,10.5c-.65-.85-1.28-1.73-1.9-2.67l5.88-7.83Z"/>
      <path class="cls-7" d="M147.84,114.53l-4.03,5.16c-.1-.3-.2-.59-.31-.89-.11-.33-.21-.66-.3-1l4.63-3.27Z"/>
      <path class="cls-7" d="M164.02,146.32c-.88-.56-1.75-1.17-2.63-1.81l3.76-8.48-1.13,10.29Z"/>
      <path class="cls-7" d="M180.35,153c-.76-.16-1.56-.36-2.37-.58l.27-8.47,2.1,9.05Z"/>
      <path class="cls-7" d="M224.68,125.84l3.88,9.35c.65-.85,1.28-1.73,1.9-2.67l-5.79-6.68Z"/>
      <path class="cls-7" d="M232.6,113.53l4.16,6.13c.1-.3.2-.59.31-.89.11-.33.21-.66.3-1l-4.76-4.25Z"/>
      <path class="cls-7" d="M216.55,146.3c.88-.56,1.75-1.17,2.63-1.81l-4.75-8,2.12,9.81Z"/>
      <path class="cls-7" d="M200.23,152.98c.76-.16,1.56-.36,2.37-.58l-.72-8.22-1.66,8.8Z"/>
    </g>
  </g>
</svg>