<?xml version="1.0" encoding="UTF-8"?>
<svg id="Layer_2" data-name="Layer 2" xmlns="http://www.w3.org/2000/svg" viewBox="0 0 219.59 353.05">
  <defs>
    <style>
      .cls-1 {
        fill: #fee1c1;
      }

      .cls-2 {
        fill: #614644;
      }

      .cls-3 {
        fill: #c63d3e;
      }

      .cls-4 {
        fill: #4b3743;
      }

      .cls-5 {
        fill: #afdbde;
      }

      .cls-6 {
        fill: #d03f42;
      }

      .cls-7 {
        fill: #fc6b55;
      }

      .cls-8 {
        fill: #f8fef2;
      }

      .cls-9 {
        fill: none;
        stroke: #a96260;
        stroke-linecap: round;
        stroke-linejoin: round;
        stroke-width: 1.5px;
      }

      .cls-10 {
        fill: #694851;
      }

      .cls-11 {
        fill: #443b4f;
      }

      .cls-12 {
        fill: #070707;
      }

      .cls-13 {
        fill: #816067;
      }

      .cls-14 {
        fill: #f9caaa;
      }

      .cls-15 {
        fill: #ff6c55;
      }
    </style>
  </defs>
  <g id="Layer_2-2" data-name="Layer 2">
    <g>
      <g>
        <g>
          <path class="cls-7" d="M156.74,324.69s0-4.43-2.91-10.46c-2.91-6.03,7.92-6.83,7.92-6.83l2.83,13.38-7.85,3.91Z"/>
          <path class="cls-6" d="M163.42,308.78c-.29.07-7.56,1.38-7.27,3.63s2.47,10.86,2.47,10.86h5.16s2.33-7.88,2.18-8.32-2.54-6.18-2.54-6.18Z"/>
          <path class="cls-8" d="M156.22,292.81c.12.77.27,1.5.41,2.19.15.71.32,1.37.48,2,.12.44.25.87.36,1.26.23.73.44,1.37.66,1.94.74,2.04,1.36,3.09,1.36,3.09l2.03,22.21c0-.41.24-1.14,2.83,2.44,3.2,4.41,24.82-2.74,24.82-2.74l-2.3-10.7s-.47-4.96,1.81-15.42c.17-.77.29-1.54.37-2.3.07-.71.11-1.4.11-2.08.02-.48.01-.95-.02-1.42-.03-.73-.09-1.44-.19-2.13-.06-.5-.14-1-.24-1.48-4.78-.87-15.98-1.85-32.49,3.14Z"/>
          <path class="cls-14" d="M155.55,284.85c11.81-.69,23.26-.7,31.6-.54-1.22-3.17-2.57-5.16-2.57-5.16,0,0-1.22-9.72-3.5-14.12-2.28-4.41-24.02-1.52-25.32,14.12-.17,2.02-.23,3.92-.21,5.7Z"/>
          <path class="cls-1" d="M155.55,284.85c.03,3.01.29,5.67.66,7.97,16.52-4.99,27.72-4.01,32.5-3.14-.39-2-.96-3.83-1.57-5.37-8.34-.16-19.79-.15-31.6.54Z"/>
          <path class="cls-15" d="M157.11,297c17.87-5.37,28.09-4.47,32.03-3.71-.03-.73-.09-1.44-.19-2.13-4.59-.8-14.89-1.36-32.32,3.85l.48,2Z"/>
          <path class="cls-15" d="M157.47,298.26c.23.73.44,1.37.66,1.94,17.11-4.99,26.99-4.17,30.92-3.42.07-.71.11-1.4.11-2.08-4.4-.81-14.49-1.48-31.69,3.56Z"/>
          <path class="cls-7" d="M144.09,336.14c.12.35.28.71.44,1.07,1.48,3.18,18.59,2.08,20.81,1.92h.24c9,3.03,23.52.97,27.97.24-.16.64-.36,1.29-.58,1.98.46-1.27.76-2.43.94-3.49,1.05-6.08-1.9-9.03-3.02-13.61-1.49-6.06-12.09-1.69-14.02-1.32s-2.74,3.28-8.66,3.28-6.67-4.89-6.67-4.89l-4.9,1.61c-3.28,1.37-6.94,1.93-9.62,2.34-2.5,2.2-4.79,5.78-2.91,10.89Z"/>
          <path class="cls-11" d="M142.09,341.92c6.27,2.96,22.91,2.16,22.91,2.16,1.94,1.03,5.48.8,5.48.8,14.14,1.48,20.66.63,20.97,0,.62-1.26,1.11-2.42,1.49-3.5.01-.02.01-.03.02-.05.23-.69.42-1.34.58-1.98-4.44.74-18.97,2.79-27.97-.24h-.24c-2.22.16-19.33,1.26-20.81-1.92-.16-.36-.32-.72-.44-1.07-1.88-5.11.41-8.69,2.91-10.89-.91.12-1.71.25-2.35.37-4.35.84-5.91,3.29-6.04,3.48-.41.61-2.79,9.86,3.48,12.82Z"/>
        </g>
        <path class="cls-2" d="M175.64,263.15c2.73,0,4.81.66,5.43,1.87,2.28,4.4,3.5,14.13,3.5,14.13,0,0,2.98,4.4,4.13,10.53.09.48.17.97.24,1.48.1.7.16,1.41.19,2.13.03.46.04.93.02,1.42,0,.69-.04,1.37-.11,2.08-.08.76-.19,1.53-.37,2.3-2.28,10.46-1.81,15.42-1.81,15.42l1.49,6.93c1.22.44,2.15,1.3,2.52,2.81,1.12,4.59,4.06,7.53,3.02,13.61-.18,1.06-.48,2.22-.94,3.49-.01.02-.01.03-.02.05-.38,1.08-.87,2.24-1.49,3.5-.18.37-2.54.82-7.35.82-3.33,0-7.84-.21-13.62-.82,0,0-.33.02-.84.02-1.17,0-3.29-.11-4.63-.82,0,0-2.05.1-4.97.1-5.42,0-13.87-.34-17.94-2.26-6.27-2.96-3.89-12.22-3.48-12.82.13-.18,1.69-2.64,6.04-3.48.64-.12,1.44-.25,2.35-.37,2.68-.41,6.31-.96,9.58-2.32-.26-1.83-.94-4.96-2.75-8.71-2.13-4.41,3.1-6.02,6.06-6.57l-.4-4.37s-.63-1.05-1.36-3.09c-.22-.56-.43-1.21-.66-1.94-.11-.39-.24-.82-.36-1.26-.16-.63-.33-1.29-.48-2-.14-.69-.29-1.42-.41-2.19-.6-3.65-.91-8.23-.46-13.67.95-11.36,12.66-16,19.89-16M175.64,260.15h0c-8.85,0-21.8,5.82-22.88,18.75-.42,5.01-.25,9.85.49,14.4.14.89.31,1.71.43,2.32.15.7.32,1.4.52,2.15.14.5.26.94.38,1.33,0,.02.01.04.02.05.26.85.49,1.51.71,2.1.49,1.35.94,2.33,1.24,2.92l.11,1.2c-2.82.91-4.72,2.32-5.68,4.2-.64,1.26-1.13,3.31.14,5.96,1,2.07,1.62,3.92,2,5.43-2.31.67-4.69,1.04-6.56,1.32-1,.14-1.83.26-2.49.39-4.87.94-7.16,3.59-7.92,4.68-.02.02-.02.03-.04.06-.92,1.36-1.92,6.38-.79,10.51.85,3.1,2.74,5.42,5.47,6.71,3.58,1.69,10.05,2.55,19.22,2.55,1.97,0,3.54-.04,4.4-.07,1.7.65,3.71.8,5.21.8.32,0,.58,0,.76-.01,5.21.54,9.82.81,13.7.81,8.17,0,9.35-1.08,10.04-2.49.66-1.36,1.18-2.58,1.6-3.76.01-.03.02-.06.03-.09.49-1.34.85-2.69,1.08-4,.86-5-.53-8.3-1.75-11.22-.51-1.22-1-2.38-1.3-3.62-.43-1.74-1.4-3.15-2.8-4.1l-1.15-5.34c-.04-.83-.16-5.55,1.76-14.36.18-.77.32-1.64.42-2.61.09-.85.13-1.61.13-2.34.02-.53.01-1.07-.02-1.64-.04-.84-.11-1.62-.22-2.37-.06-.51-.15-1.05-.26-1.64-1.01-5.33-3.27-9.47-4.19-11-.34-2.46-1.55-10.27-3.72-14.46-1.16-2.25-4.04-3.49-8.1-3.49h0Z"/>
      </g>
      <g>
        <g>
          <path class="cls-8" d="M187.03,219.19s2.21,29.4,0,35.51c0,0,4,18.58,3.16,23.06-.84,4.48-49.12,2.66-49.12,2.66l-.63-63.5s39.31-6.34,46.59,2.27Z"/>
          <path class="cls-2" d="M167.2,214.67c8.7,0,16.88,1.04,19.82,4.52,0,0,2.21,29.4,0,35.51,0,0,4,18.58,3.16,23.06-.46,2.47-15.35,3.03-28.61,3.03-10.79,0-20.51-.37-20.51-.37l-.63-63.5s13.95-2.25,26.76-2.25M167.21,211.67v3-3h0c-12.91,0-26.66,2.19-27.24,2.29-1.46.24-2.54,1.51-2.52,2.99l.63,63.5c.02,1.6,1.29,2.91,2.89,2.97.1,0,9.9.37,20.62.37,8.03,0,14.54-.2,19.35-.6,7.44-.61,11.59-1.57,12.21-4.88.85-4.53-2.08-19.06-3.02-23.5,1.9-7.59.26-31.05-.1-35.85-.05-.63-.29-1.23-.7-1.71-3.17-3.76-10.41-5.58-22.11-5.58h0Z"/>
        </g>
        <path class="cls-5" d="M140.44,216.92l.64,63.5s5.55.21,12.92.31l.32-16.62-2.4-48.62c-6.62.64-11.48,1.42-11.48,1.42Z"/>
      </g>
    </g>
    <g>
      <g>
        <g>
          <path class="cls-7" d="M91.49,329.28s0-4.65-3.06-10.98c-3.06-6.33,8.31-7.18,8.31-7.18l2.98,14.05-8.23,4.11Z"/>
          <path class="cls-6" d="M98.49,312.57c-.31.08-7.93,1.45-7.62,3.82s2.6,11.4,2.6,11.4h5.42s2.43-8.28,2.28-8.74-2.67-6.48-2.67-6.48Z"/>
          <g>
            <path class="cls-8" d="M108.78,309.72c1.43,1.32,4.92,4.39,6.54,4.56.05,0,.1,0,.16,0,1.27,0,3.58-1.37,5.49-2.69l.35-2.5c.25-.18.48-.36.7-.58-.2,0-.4.09-.57.21-2.54,1.9-5.26,3.49-5.94,3.5-.69-.1-3.33-2.16-5.34-4.02-.42-.39-1.07-.35-1.46.06-.38.43-.36,1.07.07,1.45Z"/>
            <path class="cls-8" d="M91.45,296.89c.05.36.11.73.17,1.1,11.85-3.48,28.8-1.34,34.98-.38.06-.38.12-.77.17-1.16-5.68-.9-23.7-3.29-35.32.44Z"/>
            <path class="cls-8" d="M90.87,292.46c.09.79.2,1.59.3,2.38,12.15-3.76,30.01-1.38,35.85-.44.05-.5.1-1.01.14-1.51-4.66-1.79-16.54-4.88-36.3-.43Z"/>
            <path class="cls-14" d="M90.22,285.79c15.54-.4,30.04.3,37.2.74.02-5.89-.48-10.55-.48-10.55-3.37-12.51-16.17-12.96-16.17-12.96,0,0-20.3.18-20.73,15.73-.06,2.13.01,4.51.19,7.03Z"/>
            <path class="cls-1" d="M90.22,285.79c.15,2.14.37,4.38.65,6.67,19.76-4.45,31.64-1.37,36.29.42.18-2.17.24-4.33.25-6.35-7.15-.44-21.66-1.14-37.2-.74Z"/>
            <path class="cls-5" d="M108.78,309.72c1.43,1.32,4.92,4.39,6.54,4.56.05,0,.1,0,.16,0,1.27,0,3.58-1.37,5.49-2.69l.35-2.5c.25-.18.48-.36.7-.58-.2,0-.4.09-.57.21-2.54,1.9-5.26,3.49-5.94,3.5-.69-.1-3.33-2.16-5.34-4.02-.42-.39-1.07-.35-1.46.06-.38.43-.36,1.07.07,1.45Z"/>
            <path class="cls-15" d="M91.17,294.84c.09.69.19,1.37.28,2.06,11.62-3.73,29.63-1.34,35.32-.44.1-.68.18-1.37.26-2.06-5.85-.94-23.71-3.32-35.85.44Z"/>
            <path class="cls-15" d="M91.61,298h0c.1.69.21,1.37.32,2.05,11.27-3.41,28.13-1.33,34.26-.39.15-.66.28-1.36.4-2.04-6.19-.96-23.13-3.1-34.98.38Z"/>
          </g>
          <path class="cls-8" d="M96.35,322.69c-.07.31-1.22,6.08,4.66,6.08,6.04,0,6.86-3.18,8.83-3.59,1.19-.24,5.51-2.04,9.13-2.05h.41s1.59-11.53,1.59-11.53c-1.92,1.32-4.22,2.69-5.49,2.69-.06,0-.11,0-.16,0-1.62-.17-5.11-3.24-6.54-4.56-.43-.38-.45-1.02-.07-1.45.39-.41,1.04-.45,1.46-.06,2.01,1.86,4.65,3.91,5.34,4.02.67,0,3.39-1.61,5.94-3.5.17-.12.37-.2.57-.21,2.07-1.9,3.38-5.14,4.18-8.85-6.14-.94-23-3.03-34.26.39,1.66,10.62,3.89,20.42,4.42,22.63h0Z"/>
          <path class="cls-7" d="M77.21,340.32c.12.35.28.7.45,1.06,1.48,3.16,18.64,2.05,20.86,1.89.15,0,.24,0,.24,0,9.03,3,23.59.95,28.05.22.19-.7.32-1.38.43-2.01,1.06-6.64-1.94-9.85-3.08-14.85-.61-2.67-2.73-3.49-5.17-3.49-3.62,0-7.95,1.81-9.13,2.05-1.97.41-2.79,3.59-8.83,3.59-5.88,0-4.73-5.76-4.66-6.08h0s-7.14,2.5-7.14,2.5c-1.54.69-3.15,1.19-4.7,1.58t-.02,0c-.55.22-10.67,4.43-7.28,13.54Z"/>
          <path class="cls-11" d="M74.41,345.95c6.39,3.23,23.36,2.35,23.36,2.35,1.98,1.12,5.59.87,5.59.87,14.42,1.6,21.07.67,21.38-.02.98-2.14,1.65-4,2.07-5.67-4.46.73-19.02,2.78-28.05-.22,0,0-.09,0-.24,0-2.22.16-19.38,1.27-20.86-1.89-.17-.36-.32-.71-.45-1.06-3.39-9.11,6.73-13.32,7.28-13.54-2.99.73-5.8,1.03-7.48,1.38-4.43.92-6.02,3.6-6.15,3.8-.43.66-2.84,10.77,3.56,14Z"/>
        </g>
        <path class="cls-2" d="M110.76,263.03s12.82.45,16.18,12.95c0,0,.91,8.4.22,16.9-.04.5-.08,1.01-.14,1.51-.07.69-.15,1.39-.25,2.06-.05.4-.11.79-.17,1.17-.11.68-.25,1.38-.4,2.04-.79,3.71-2.11,6.95-4.18,8.85-.22.22-.46.4-.7.58l-.35,2.5-1.59,11.53h-.39c2.43,0,4.54.83,5.15,3.49,1.14,5,4.14,8.21,3.08,14.85-.1.64-.24,1.31-.43,2.01-.43,1.67-1.1,3.54-2.07,5.67-.19.41-2.6.9-7.55.9-3.39,0-7.97-.23-13.83-.88,0,0-.34.02-.88.02-1.19,0-3.34-.12-4.71-.89,0,0-2.13.11-5.16.11-5.53,0-14.07-.37-18.2-2.46-6.4-3.23-3.98-13.33-3.56-14,.13-.2,1.72-2.88,6.15-3.8,1.69-.35,4.5-.65,7.48-1.38t.02,0c1.56-.39,3.17-.88,4.7-1.58l1.55-.54c-.45-1.75-1.17-3.93-2.33-6.34-2.06-4.25,2.41-6.03,5.54-6.73-.68-3.46-1.4-7.43-2.04-11.52-.11-.68-.22-1.36-.32-2.04h0c-.05-.38-.11-.75-.16-1.11-.1-.69-.19-1.37-.29-2.06-.1-.8-.2-1.58-.3-2.38-.6-4.96-.96-9.75-.84-13.7.44-15.56,20.73-15.72,20.73-15.72M110.76,260.03s-.02,0-.02,0c-8.02.07-23.29,4.05-23.71,18.64-.11,3.77.19,8.53.87,14.14.05.4.1.8.15,1.21.05.39.1.78.15,1.17,0,.02,0,.04,0,.05l.14,1.03.14,1.02c.02.18.05.38.09.58.02.15.05.29.07.44,0,.05.01.09.02.14.11.7.21,1.38.33,2.08.43,2.79.95,5.79,1.54,8.94-2.47.96-4.15,2.34-5.01,4.12-.61,1.27-1.07,3.35.22,6.01.51,1.07.96,2.14,1.34,3.22-.96.37-2.05.71-3.29,1.02h0s-.08.02-.12.03c-1.74.42-3.4.68-4.88.92-.91.14-1.7.27-2.38.41-4.98,1.04-7.28,3.9-8.05,5.08-.8,1.24-2,6.71-.73,11.38.87,3.19,2.75,5.59,5.44,6.95,3.64,1.84,10.22,2.78,19.55,2.78,2.03,0,3.66-.05,4.55-.08,1.74.7,3.79.86,5.32.86.33,0,.6,0,.79-.02,5.29.58,9.97.88,13.92.88,8.38,0,9.61-1.2,10.28-2.65,1.03-2.25,1.77-4.28,2.25-6.18.18-.67.34-1.43.48-2.27.85-5.33-.54-8.87-1.77-12-.53-1.35-1.03-2.62-1.35-4.01-.57-2.49-2.09-4.26-4.34-5.16l1.21-8.78.19-1.36c2.31-2.17,3.99-5.65,5-10.36.15-.65.29-1.39.42-2.18l.05-.35c.05-.29.09-.59.13-.9.11-.69.2-1.42.27-2.16.06-.53.11-1.06.15-1.59.7-8.66-.19-17.1-.23-17.45-.02-.15-.05-.31-.09-.46-3.12-11.58-13.78-14.98-18.98-15.16-.03,0-.07,0-.1,0h0Z"/>
      </g>
      <g>
        <path class="cls-8" d="M86.66,225.44l1.37,53.35.04,1.42c4.13.57,6.97.14,11.75.25,14.4.35,26.11,1.05,33.67.52h0c3.1-.22,5.54-.49,7.26-.72l.07-.49,2.07-15.69c13.35-1.56,10.1-35.03,10.1-35.03-23.89-7.71-66.33-3.6-66.33-3.6Z"/>
        <path class="cls-15" d="M97.35,224.76l.81,55.68c.6,0,1.23,0,1.9,0l-.82-55.78c-.65.03-1.28.06-1.89.1Z"/>
        <path class="cls-15" d="M91.41,225.12l.82,55.38c.65.02,1.27.02,1.91.02l-.82-55.52c-.68.05-1.32.09-1.9.12Z"/>
      </g>
      <path class="cls-2" d="M112.17,224.34c13.34,0,29.25.96,40.82,4.7,0,0,3.25,33.47-10.1,35.03l-2.07,15.69-.07.49c-1.72.23-4.15.5-7.26.72h0c-1.96.14-4.21.2-6.71.2-7.12,0-16.3-.45-26.96-.71-.38,0-.73-.01-1.09-.01-.16,0-.32,0-.47,0-.03,0-.07,0-.1,0h0s-.08,0-.12,0c-1.43,0-2.69.04-3.91.06v.02h-.03c-.41,0-.83,0-1.24-.01-1.53,0-3.05-.06-4.79-.3l-.04-1.42-1.37-53.35s11.29-1.09,25.51-1.09M112.17,221.34h0c-14.2,0-25.33,1.06-25.8,1.11-1.57.15-2.75,1.49-2.71,3.06l1.37,53.35.04,1.43c.04,1.47,1.14,2.68,2.59,2.88,2.09.29,3.8.33,5.2.33h.19c.35,0,.7.01,1.05.01.14,0,.27,0,.41-.03h.73c.85-.03,1.74-.05,2.71-.05.07,0,.14,0,.2,0h.1s.32,0,.32,0h.15s.19,0,.19,0c.27,0,.54,0,.83.01,4.11.1,7.93.23,11.63.35,5.89.19,10.98.36,15.4.36,2.71,0,4.96-.07,6.87-.2.02,0,.04,0,.06,0,3.4-.24,5.93-.53,7.44-.74,1.34-.18,2.4-1.23,2.58-2.58l.07-.49,1.8-13.65c13.17-4.68,10.72-34.23,10.38-37.75-.12-1.19-.93-2.2-2.06-2.57-9.95-3.21-24-4.84-41.74-4.84h0Z"/>
    </g>
    <g>
      <g>
        <g>
          <path class="cls-15" d="M180.96,148.57l13.73,35.61,4.41,12.32c4.49-1.53,8.65-2.92,9.69-3.14,2.44-.52,4.72-6.04,5.02-7.26.31-1.21-10.81-22.09-11.88-28.88-.69-4.36-2.49-9.36-3.71-12.39-.62-1.55-2.38-2.29-3.92-1.66l-13.35,5.41Z"/>
          <path class="cls-3" d="M175.58,180.93s10.06,19.95,10.51,19.95c.15,0,2.33-.73,5.3-1.75,2.29-.78,5.07-1.74,7.72-2.63l-4.41-12.32-13.73-35.61-.16.06-.72.3-4.5,32Z"/>
        </g>
        <path class="cls-14" d="M175.01,213.84c.08,1.44,1.48,9.67,2.62,14.29.4,1.61.76,2.8,1.03,3.09,1.03,1.14,1.27,1.83,1.27,1.83,0,0,7.4-1.86,15.65-4.66.01,0,.03-.01.04-.01.17-.07.36-.14.53-.24,6.23-3.06,3.2-27.52,2.01-35.69,8.7-3.82,12.4-2.93,13.01-2.93h.07s-.5-2.12-.5-2.12c0,0-5.51-2.16-12.98,2.47-.28.16-.56.35-.83.53-.01,0-.02.01-.05.02-.01.01-.02.01-.02.01-1.17.44-15.49,4.45-15.79,4.67-8.34,6.17-6.17,16.8-6.06,18.74Z"/>
        <path class="cls-1" d="M195.62,228.38c8.27-2.8,17.4-6.54,20.84-10.29,0,0,1.25-15.83-4.35-24.97l-.86-3.61h-.07c-.61.01-4.31-.87-13.01,2.94,1.19,8.17,4.23,32.62-2.01,35.69-.17.09-.36.16-.53.24Z"/>
      </g>
      <path class="cls-2" d="M195.44,142.95c1.19,0,2.32.71,2.79,1.89,1.21,3.03,3.02,8.04,3.71,12.39,1.07,6.79,12.19,27.67,11.88,28.88-.18.73-1.05,2.95-2.24,4.76l.54,2.25c5.61,9.14,4.35,24.97,4.35,24.97-3.44,3.74-12.57,7.49-20.84,10.29-.01,0-.03.01-.04.01-8.26,2.8-15.65,4.66-15.65,4.66,0,0-.24-.69-1.27-1.83-.27-.29-.63-1.47-1.03-3.09-1.14-4.62-2.54-12.85-2.62-14.29-.11-1.94-2.28-12.57,6.06-18.74.06-.04.63-.22,1.51-.49-3.06-5.85-7.01-13.69-7.01-13.69l4.5-32,.72-.3.16-.06,13.35-5.41c.37-.15.76-.22,1.13-.22M195.44,139.95h0c-.78,0-1.54.15-2.26.44l-13.31,5.39-.13.05s-.06.02-.09.04l-.72.3c-.98.41-1.67,1.3-1.82,2.35l-4.5,32c-.09.61.02,1.22.29,1.77.03.07,2.9,5.75,5.62,11.01-8.08,6.64-6.94,16.7-6.57,20.08.03.27.06.49.07.64.1,1.76,1.57,10.24,2.71,14.83.66,2.65,1.06,3.68,1.74,4.41.37.41.57.71.65.85.19.75.62,1.25,1.28,1.66.39.24.81.33,1.24.33.34,0,.68-.06,1.02-.14.31-.08,7.55-1.91,15.79-4.69.05-.01.09-.03.14-.04,11.45-3.88,18.88-7.61,22.09-11.1.45-.49.73-1.12.78-1.79.05-.68,1.23-16.46-4.53-26.35l-.15-.61c1.01-1.79,1.74-3.67,1.95-4.55.37-1.44-.04-2.37-3.81-10.45-2.96-6.33-7.44-15.9-8.02-19.61-.71-4.52-2.5-9.59-3.88-13.04-.92-2.29-3.1-3.77-5.57-3.77h0Z"/>
    </g>
    <g>
      <path class="cls-1" d="M76.22,60.42s-4.8,15.31,0,27.66c0,0-4.34,27.88,13.26,43.88l29.71,4.57,46.4-12.11s20.57-20.11,12.8-57.14c-7.77-37.03-94.17-45.71-102.17-6.86Z"/>
      <path class="cls-14" d="M107.99,111.31s-11.42,18.29-15.5,21.11l12.43,1.91,14.28,2.2-.88-12.17-9.02-13.05h-1.31Z"/>
      <path class="cls-1" d="M77.94,88.19l-8.34,17.37s1.03,4,9.6,5.49l-1.26-22.86Z"/>
      <ellipse class="cls-12" cx="82.08" cy="92.11" rx="2.89" ry="6.6"/>
      <path class="cls-10" d="M91.92,74.19c-.8-.46-2.53-2.72-8.19,4.42,0,0-2.85,1.94-4.01.47,0,0-1.48,2.95.52,4.89s6.62-4.58,9.31-5.82,4.49-.31,4.49-.31c0,0-1.44-3.26-2.13-3.65Z"/>
      <path class="cls-10" d="M76.95,59.11s2.74-5.97,5.6-6.86c.23-.07.46-.11.69-.11,3.09,0,30.86,9.26,30.86,9.26,0,0-11.89,5.61-12.79,10.4-.92,4.8-3.21,21.03-3.21,21.03,0,0,3.32,2.85,5.83,1.94l3.01,12.07.41,1.64,4.14,18.07,2.67-1.22,4.17-.97,44.87,1.52s7.24-.03,12.03-5.4c.71-.79,1.6-2.22,2.6-4.08,1.65-3.05,3.59-7.26,5.52-11.71,1.25-2.89,2.51-5.89,3.68-8.74h.01c3.35-8.21,6.02-15.23,6.02-15.23,0,0,6.08-15.29-.45-24.04-.74-1-1.65-1.91-2.75-2.7-8.44-6.11-33.69-23.34-46.8-30.98-3.59-2.09-6.26-3.46-7.45-3.68-1.35-.26-2.22-.03-2.79.45-1.5,1.3-.8,4.42-.57,5.32.04.15.07.25.07.25L95.57,3s-.28.04-.76.14c-3.88.77-21.14,4.98-18.09,17.57h0s-1.1.38-2.5,1.39c-.58.41-1.2.94-1.82,1.58-4.16,4.33-8.14,14.3,4.55,35.43Z"/>
      <path class="cls-4" d="M107.99,111.31l2.98,14.57,7.34-1.52,44.87,1.52s7.24-.03,12.03-5.4c.71-.79,1.6-2.22,2.6-4.08,1.65-3.05,3.59-7.26,5.52-11.71,1.25-2.89,2.51-5.89,3.68-8.74-.35.46-11.85,15.47-14.7,15.16,0,0,3.35-11.12,2.59-9.9-.76,1.22-22.09,15.55-22.09,15.55,0,0,4.41-10.97,4.26-13.87-.14-2.89-16.46,12.65-16.46,12.65,0,0,2.9-12.34,2.45-11.43-.46.92-18.82,7.35-18.82,7.35l.76-7.77-11.81,5.94s-4.23,1.1-5.22,1.69Z"/>
      <path class="cls-13" d="M132.83,19.76c-1.5,1.3-.8,4.42-.57,5.32l7.42,5c-.22-.26-4.29-5.1-2.85-7.99.44-.87,2.93-.32,6.23.91-3.59-2.09-6.26-3.46-7.45-3.68-1.35-.26-2.22-.03-2.79.45Z"/>
      <path class="cls-13" d="M76.72,20.72l21.02,11.54c-13.91-10.92-5.78-25.01-2.93-29.12-3.88.77-21.14,4.98-18.09,17.57h0Z"/>
      <path class="cls-13" d="M76.95,59.11s2.74-5.97,5.6-6.86c-11.7-6.59-11.28-21.03-10.14-28.57-4.16,4.33-8.14,14.3,4.55,35.43Z"/>
      <path class="cls-2" d="M95.57,3l36.76,22.33s-.03-.09-.07-.25c-.24-.89-.94-4.02.57-5.32.4-.35.97-.56,1.75-.56.31,0,.66.03,1.04.11,1.18.23,3.86,1.59,7.45,3.68,13.1,7.64,38.35,24.87,46.8,30.98,1.1.79,2.01,1.71,2.75,2.7,6.53,8.74.45,24.04.45,24.04,0,0-2.66,7.02-6.02,15.22h-.01c-1.17,2.86-2.43,5.86-3.68,8.75-1.93,4.45-3.88,8.66-5.52,11.71-1,1.86-1.89,3.29-2.6,4.08-4.79,5.37-12.03,5.4-12.03,5.4l-2.84-.1-41.16,10.75-29.71-4.57c-6.71-6.1-10.22-13.92-12.01-21.27-6.98-1.68-7.87-5.12-7.87-5.12l6.23-12.97c.13-2.81.4-4.51.4-4.51-4.8-12.34,0-27.66,0-27.66.13-.61.27-1.21.44-1.8-12.32-20.79-8.38-30.64-4.26-34.94.62-.65,1.24-1.17,1.82-1.58,1.4-1.01,2.5-1.38,2.5-1.38h0c-3.04-12.6,14.21-16.81,18.09-17.58.48-.1.76-.14.76-.14M95.56,0c-.14,0-.29.01-.43.03,0,0-.35.05-.94.18-3.2.64-14.13,3.3-18.73,10.49-1.62,2.54-2.31,5.34-2.05,8.34-.3.18-.61.39-.94.63-.79.57-1.55,1.22-2.24,1.95-2.24,2.34-4.91,6.56-4.87,13.37.05,6.76,2.77,14.86,8.08,24.09-.05.2-.09.4-.13.61-.52,1.74-4.64,16.26-.16,28.75-.09.72-.2,1.89-.29,3.41l-5.97,12.43c-.31.64-.38,1.37-.2,2.05.21.8,1.54,4.64,8.31,6.79,2.39,8.63,6.57,15.71,12.46,21.07.44.4.98.66,1.56.75l29.71,4.57c.15.02.3.03.46.03.26,0,.51-.03.76-.1l40.74-10.64,2.4.08s.07,0,.1,0c0,0,0,0,.01,0,.35,0,8.64-.11,14.26-6.4.85-.95,1.84-2.48,3.01-4.66,1.53-2.84,3.43-6.86,5.63-11.94,1.08-2.49,2.27-5.31,3.64-8.64.03-.06.05-.11.08-.17,3.33-8.14,6.02-15.22,6.05-15.29.26-.64,6.6-16.92-.85-26.9-.95-1.28-2.09-2.41-3.4-3.34-7.89-5.71-33.41-23.19-47.04-31.14-5.49-3.19-7.32-3.83-8.39-4.04-.56-.11-1.1-.16-1.6-.16-1.82,0-3.01.7-3.7,1.28-.81.7-1.32,1.55-1.62,2.47L97.13.43c-.47-.29-1.02-.43-1.57-.43h0Z"/>
      <g>
        <path class="cls-1" d="M107.38,110.9s2.23-12.82,1.38-17.47c-.84-4.65-5.27-14.45-11.83-12.65s-3.03,18.91,2.08,25.15c5.11,6.24,6.69,5.68,8.37,4.96Z"/>
        <path class="cls-14" d="M108.95,97.85c-.12,5.67-1.57,14.01-1.57,14.01-1.68.72-3.26,1.28-8.37-4.96-.26-.32-.51-.67-.77-1.04,8.15,1.62,10.7-8,10.7-8.01Z"/>
        <path class="cls-9" d="M107.38,110.9s2.23-12.82,1.38-17.47c-.84-4.65-5.27-14.45-11.83-12.65s-3.03,18.91,2.08,25.15c5.11,6.24,6.69,5.68,8.37,4.96Z"/>
      </g>
    </g>
    <g>
      <path class="cls-8" d="M110.97,130.8s25.47,6.86,60.9,2.32h.01c.33-.04.64-.08.94-.12.19-.91,1.66-9.33-9.04-12.03-11.31-2.86-39.32-1.48-39.32-1.48,0,0-10.85,1.37-13.48,11.31Z"/>
      <path class="cls-15" d="M83.97,161.94c.01-5.57.05-9.69.1-11.42.31-9.44,5.65-15.96,9.64-17.44,3.53-1.31,14.24-2.09,16.73-2.24.34-.03.52-.04.52-.04,15.16,1.87,59.32,2.31,60.87,2.32h.04c.33-.04.64-.08.94-.12-.01.05-.02.08-.02.08l22.06,9.6c1.14,5.03.92,13.72,0,20.81-.92,7.08-5.94,30.62-5.94,30.62l4.34,48c-38.43,3.08-63.7,3.46-80.14,2.84-23.64-.89-29.03-3.85-29.03-3.85,0,0-.2-54.19-.1-79.15Z"/>
      <path class="cls-3" d="M110.97,130.8c15.16,1.87,59.32,2.31,60.87,2.32h.03c-16.97-8.73-60.9-2.32-60.9-2.32Z"/>
      <path class="cls-8" d="M154.42,206.79c-5.86-.75-10.33-2.87-13.39-6.36-3.06-3.48-4.59-8-4.59-13.59v-28.23c0-5.61,1.52-9.79,4.57-12.55,3.05-2.77,7.52-3.85,13.41-3.25s10.33,2.62,13.39,6.06c3.06,3.45,4.59,8.01,4.59,13.67v28.64c0,5.63-1.52,9.84-4.57,12.6-3.05,2.76-7.52,3.75-13.41,3ZM154.42,198.44c3.12.39,5.42-.14,6.91-1.58,1.49-1.44,2.23-3.69,2.23-6.74v-28.54c0-3.05-.74-5.47-2.21-7.25-1.47-1.78-3.78-2.84-6.93-3.17s-5.46.23-6.93,1.69c-1.47,1.46-2.21,3.7-2.21,6.73v28.33c0,3.03.74,5.44,2.23,7.24,1.49,1.8,3.79,2.9,6.91,3.29Z"/>
      <path class="cls-2" d="M139.41,119.16c8.52,0,18.6.36,24.36,1.81,10.7,2.7,9.23,11.13,9.04,12.03-.01.05-.02.08-.02.08l22.06,9.6c1.14,5.03.92,13.72,0,20.81-.92,7.08-5.94,30.62-5.94,30.62l4.34,48c-28.65,2.29-49.99,3.09-65.8,3.09-35.89,0-43.37-4.1-43.37-4.1,0,0-.3-81.12,0-90.57.31-9.44,5.65-15.96,9.64-17.44,3.53-1.31,14.25-2.09,16.73-2.24.34-.03.52-.04.52-.04,2.63-9.95,13.48-11.31,13.48-11.31,0,0,6.75-.33,14.96-.33M139.41,116.16v3-3h0c-8.19,0-15.04.33-15.1.34-.08,0-.15.01-.23.02-.49.06-11.4,1.55-15.32,11.44-3.86.28-12.57,1.02-16.09,2.32-5.37,1.99-11.25,9.73-11.59,20.16-.3,9.4-.01,87.37,0,90.68,0,1.09.6,2.1,1.56,2.62.83.46,9.18,4.47,44.81,4.47,18.14,0,40.36-1.04,66.04-3.1.8-.06,1.54-.44,2.05-1.06.52-.61.77-1.41.69-2.2l-4.3-47.55c.72-3.38,5.03-23.76,5.89-30.42.82-6.36,1.3-15.9-.05-21.86-.21-.93-.85-1.71-1.73-2.09l-20.06-8.73c.01-4.59-2.38-10.84-11.48-13.14-5-1.26-13.44-1.9-25.1-1.9h0Z"/>
      <path class="cls-3" d="M84.07,241.1s3.21,2.04,18.98,3.28c-3.12-19.93,1.34-54.89-.61-65.89-2.16-12.24-13.68-15.47-18.47-16.29-.09,24.96.1,78.9.1,78.9Z"/>
    </g>
    <g>
      <path class="cls-2" d="M93.17,136.53c.82,0,1.6.04,2.36.1,0,0,0,.01-.01.02,1.24.1,2.41.26,3.52.48,0,0,.02-.02.02-.03.7.14,1.39.3,2.05.48,0,0-.02.02-.02.03,17.37,4.85,18.9,24.3,18.9,24.3-5.48,26.79-23.41,41.76-23.41,41.76-.54-.17-1.14-.39-1.78-.65-4.45,5.71-12.07,14.43-12.07,14.43,0,0-3.94,7.46-10.69,9.01-6.75,1.54-22.36,6.46-26.86,10.26-4.02,3.39-10.38,11.48-19.1,11.48-1.05,0-2.13-.12-3.25-.37-.63-.14-1.21-.3-1.77-.48-8.65-2.69-9.5-8.79-10.03-8.79,0,0-.01,0-.02,0-.03,0-.08.01-.15.01-1.2,0-7.72-1.13-7.86-5.78-.07-2.41,1.96-4.93,4.04-6.86,2.16-2.01,4.39-3.4,4.39-3.4l-1.97-3.52s-.84-2.25,3.8-7.45c1.08-1.21,2.99-1.67,5.28-1.67,7.57,0,19.33,5.05,19.33,5.05,0,0,5.76-5.91,8.3-14.48,2.53-8.58,12.38-9.28,14.76-10.13,1.27-.45,2.49-2.94,3.36-5.18-4.85-3.19-8.21-5.5-8.21-5.5.42-5.27,20.67-26.37,22.15-27.84,7.69-7.69,12.02-15.19,12.02-15.19.79-.05,1.54-.07,2.29-.07.21,0,.42,0,.62,0,0,0,0,0,.01-.01M93.17,133.53c-.09,0-.17,0-.26.01-.13,0-.25,0-.38,0-.87,0-1.68.02-2.47.07-1,.06-1.91.62-2.41,1.49-.04.07-4.26,7.28-11.55,14.57-.64.64-6.13,6.33-11.62,12.65-9.74,11.25-11.23,14.94-11.4,17.07-.09,1.07.41,2.1,1.29,2.71.03.02,2.47,1.7,6.14,4.14-.4.78-.69,1.16-.83,1.32-.29.08-.73.18-1.12.27-3.79.87-12.66,2.9-15.28,11.77-1.58,5.34-4.57,9.61-6.29,11.75-3.85-1.49-12.27-4.47-18.46-4.47-3.41,0-5.94.9-7.52,2.68-5.28,5.92-4.81,9.32-4.37,10.5.05.14.12.28.19.41l.65,1.16c-.76.58-1.63,1.29-2.5,2.1C1.61,226.88-.08,229.96,0,232.87c.16,5.57,5.71,7.92,9.16,8.53,1.18,2.34,3.9,6.61,11,8.81.62.2,1.3.39,2,.54,1.29.3,2.61.45,3.92.45,8.26,0,14.49-5.99,18.62-9.95.92-.89,1.72-1.65,2.42-2.24,3.58-3.02,17.77-7.85,25.59-9.63,7.2-1.65,11.55-8.56,12.49-10.2,1.14-1.31,6.55-7.55,10.61-12.61.25.07.51.1.77.1.69,0,1.38-.24,1.92-.7.76-.64,18.8-15.96,24.43-43.46.06-.28.07-.56.05-.84-.07-.87-1.88-21.27-20.62-26.82-.15-.07-.3-.12-.45-.16-.72-.2-1.48-.37-2.24-.53-.15-.03-.31-.05-.46-.06-1-.18-2.03-.33-3.08-.42-.11-.02-.21-.04-.32-.05-.88-.08-1.76-.12-2.62-.12h0Z"/>
      <g>
        <path class="cls-1" d="M7.05,225.93c.28,2.86,1.3,7.99,4.95,10.16,0,0,1.35,6.42,9.05,11.27.56.18,1.15.34,1.77.48,10.4,2.39,17.85-7.31,22.35-11.11,4.5-3.8,20.11-8.72,26.86-10.26,6.75-1.55,10.69-9.01,10.69-9.01,0,0,14.48-16.59,15.19-18.98.7-2.38-.14-33.6-32.35-17.15,0,0-2.25,8.15-4.64,9-2.38.84-12.23,1.55-14.76,10.13-2.53,8.57-8.3,14.48-8.3,14.48,0,0-19.97-8.58-24.61-3.38-4.64,5.2-3.8,7.45-3.8,7.45l1.97,3.52s-2.23,1.39-4.39,3.4Z"/>
        <path class="cls-9" d="M81.11,216.53s-4.57,2.67-7.52,1.83-5.91-5.62-5.91-5.62"/>
        <path class="cls-14" d="M3,232.79c.14,4.93,7.45,5.9,8.01,5.77.52-.13,1.3,6.07,10.04,8.79-7.71-4.85-9.05-11.27-9.05-11.27-3.65-2.16-4.67-7.3-4.95-10.16-2.09,1.94-4.11,4.45-4.04,6.86Z"/>
        <path class="cls-14" d="M59.83,190.62c5.19,4.2,19.34,15.08,29.97,18.56,1.8-2.15,3.64-4.4,5.12-6.29,1.63-2.1,2.81-3.76,3-4.4.7-2.38-.14-33.6-32.35-17.15,0,0-.5,1.81-1.28,3.83-.87,2.24-2.1,4.73-3.36,5.17-.28.09-.65.19-1.1.29Z"/>
        <path class="cls-15" d="M119.99,161.92s-2.11-27-29.74-25.31c0,0-4.33,7.5-12.02,15.19-1.48,1.48-21.73,22.57-22.15,27.84,0,0,30.37,20.88,40.5,24.05,0,0,17.93-14.98,23.41-41.76Z"/>
        <path class="cls-8" d="M61.39,183.19c.5.33,1.03.68,1.59,1.05,11.07-13.61,32.51-39.91,38.15-46.64-.66-.18-1.35-.34-2.05-.48-5.94,7.11-22.65,27.6-37.68,46.07Z"/>
        <path class="cls-8" d="M57.31,180.43c.43.29.96.65,1.59,1.07,10.2-12.56,29.37-36.07,36.65-44.87-.76-.07-1.55-.1-2.36-.1-7.09,8.55-22.18,27.07-35.87,43.9Z"/>
      </g>
    </g>
  </g>
</svg>