<?xml version="1.0" encoding="UTF-8"?>
<svg id="Layer_2" data-name="Layer 2" xmlns="http://www.w3.org/2000/svg" viewBox="0 0 152.91 152.89">
  <defs>
    <style>
      .cls-1 {
        fill: #fff;
      }

      .cls-2 {
        fill: #1c1c1c;
      }

      .cls-3 {
        fill: #333;
      }

      .cls-4 {
        fill: none;
        stroke: #333;
        stroke-miterlimit: 10;
      }
    </style>
  </defs>
  <g id="Layer_2-2" data-name="Layer 2">
    <g>
      <g>
        <g>
          <path class="cls-3" d="M54.8,40.99l-21.69,37.58H3.08c-.02-.7-.03-1.41-.03-2.12,0-26.82,14.36-50.27,35.81-63.09l15.94,27.62Z"/>
          <polygon class="cls-1" points="119.7 78.57 98 116.16 54.83 116.16 33.12 78.57 33.11 78.57 54.8 40.99 98 40.99 119.7 78.57"/>
          <path class="cls-1" d="M114.15,13.37l-15.95,27.62h-43.39s-15.94-27.62-15.94-27.62c11-6.58,23.88-10.37,37.64-10.37s26.52,3.75,37.49,10.28c.06.03.11.06.15.09Z"/>
          <path class="cls-3" d="M149.96,76.45c0,.71-.02,1.42-.03,2.12h-30.23s-21.7-37.58-21.7-37.58h.2s15.95-27.62,15.95-27.62c21.45,12.82,35.81,36.27,35.81,63.09Z"/>
          <path class="cls-1" d="M149.93,78.57c-.76,26.68-15.74,49.78-37.63,62.01-.05.05-.11.08-.15.09l-14.15-24.52,21.71-37.58h30.23Z"/>
          <path class="cls-1" d="M54.83,116.16h-.03s-14.09,24.43-14.09,24.43C18.82,128.36,3.84,105.26,3.08,78.57h30.04s21.7,37.58,21.7,37.58Z"/>
          <path class="cls-3" d="M112.15,140.68c-10.56,5.87-22.7,9.22-35.65,9.22-12.99,0-25.19-3.38-35.78-9.29l-.02-.02,14.09-24.43h43.2s14.15,24.52,14.15,24.52Z"/>
        </g>
        <g>
          <path class="cls-4" d="M54.7,40.99l-21.69,37.58H2.98c-.02-.7-.03-1.41-.03-2.12,0-26.82,14.36-50.27,35.81-63.09l15.94,27.62Z"/>
          <polygon class="cls-4" points="119.6 78.57 97.9 116.16 54.73 116.16 33.03 78.57 33.01 78.57 54.7 40.99 97.9 40.99 119.6 78.57"/>
          <path class="cls-4" d="M114.05,13.37l-15.95,27.62h-43.39s-15.94-27.62-15.94-27.62c11-6.58,23.88-10.37,37.64-10.37,13.7,0,26.52,3.75,37.49,10.28.06.03.11.06.15.09Z"/>
          <path class="cls-4" d="M149.86,76.45c0,.71-.02,1.42-.03,2.12h-30.23s-21.7-37.58-21.7-37.58h.2s15.95-27.62,15.95-27.62c21.45,12.82,35.81,36.27,35.81,63.09Z"/>
          <path class="cls-4" d="M149.83,78.57c-.76,26.68-15.74,49.78-37.63,62.01-.05.05-.11.08-.15.09l-14.15-24.52,21.71-37.58h30.23Z"/>
          <path class="cls-4" d="M54.73,116.16h-.03s-14.09,24.43-14.09,24.43C18.72,128.36,3.74,105.26,2.98,78.57h30.04s21.7,37.58,21.7,37.58Z"/>
          <path class="cls-4" d="M112.05,140.68c-10.56,5.87-22.7,9.22-35.65,9.22-12.99,0-25.19-3.38-35.78-9.29l-.02-.02,14.09-24.43h43.2s14.15,24.52,14.15,24.52Z"/>
        </g>
      </g>
      <path class="cls-2" d="M76.45,3c13.7,0,26.52,3.75,37.49,10.28.06.03.11.06.15.09,21.45,12.82,35.81,36.27,35.81,63.09,0,.71-.02,1.42-.03,2.12-.76,26.68-15.74,49.78-37.63,62.01-.05.05-.11.08-.15.09-10.56,5.87-22.7,9.22-35.65,9.22-12.99,0-25.19-3.38-35.78-9.29l-.02-.02C18.77,128.36,3.79,105.26,3.03,78.57c-.02-.7-.03-1.41-.03-2.12,0-26.82,14.36-50.27,35.81-63.09,11-6.58,23.88-10.37,37.64-10.37M76.45,0c-13.83,0-27.38,3.73-39.18,10.79-11.15,6.67-20.49,16.13-27,27.36C3.55,49.74,0,62.98,0,76.45c0,.73.02,1.47.03,2.18.38,13.44,4.3,26.56,11.34,37.94,6.82,11.03,16.39,20.2,27.69,26.55.05.03.1.07.16.09,11.33,6.33,24.21,9.67,37.24,9.67,12.93,0,25.71-3.29,36.98-9.53.16-.08.31-.16.46-.26,11.28-6.34,20.84-15.51,27.65-26.53,7.04-11.38,10.96-24.49,11.34-37.92.02-.74.03-1.47.03-2.2,0-13.47-3.55-26.71-10.27-38.3-6.5-11.22-15.82-20.66-26.95-27.33-.07-.04-.16-.1-.28-.17C103.66,3.69,90.19,0,76.45,0h0Z"/>
    </g>
  </g>
</svg>