<svg width="232" height="106" viewBox="0 0 232 106" fill="none" xmlns="http://www.w3.org/2000/svg">
<path d="M1.77855 76.0781L13.9778 63.8789C14.3254 63.5312 14.7969 63.3359 15.2885 63.3359H216.119C216.61 63.3359 217.082 63.5312 217.429 63.8789L229.628 76.0781C229.976 76.4257 230.171 76.8972 230.171 77.3889L230.171 90.683C230.171 91.1747 229.976 91.6462 229.628 91.9938L217.429 104.193C217.081 104.541 216.61 104.736 216.118 104.736H15.2882C14.7966 104.736 14.3251 104.541 13.9774 104.193L1.77828 91.9938C1.43063 91.6462 1.23533 91.1747 1.23534 90.683L1.23561 77.3888C1.23562 76.8972 1.43092 76.4257 1.77855 76.0781Z" fill="url(#paint0_linear_140_60)"/>
<path d="M1.77876 13.978L13.9779 1.77879C14.3256 1.43114 14.7971 1.23584 15.2887 1.23584H216.119C216.61 1.23584 217.082 1.43114 217.429 1.77878L229.629 13.978C229.976 14.3256 230.172 14.7971 230.172 15.2888V80.1785C230.172 80.6701 229.976 81.1416 229.629 81.4892L217.429 93.6884C217.082 94.0361 216.61 94.2314 216.119 94.2314H15.2887C14.7971 94.2314 14.3256 94.0361 13.9779 93.6884L1.77875 81.4892C1.43111 81.1416 1.23581 80.6701 1.23581 80.1785V15.2888C1.23581 14.7971 1.43111 14.3256 1.77876 13.978Z" fill="url(#paint1_linear_140_60)"/>
<path d="M214.839 6.1792L225.228 16.5679V78.8989L214.839 89.2876H16.5678L6.17917 78.8989V16.5679L16.5678 6.1792H214.839Z" stroke="white" stroke-opacity="0.29" stroke-width="9.88657"/>
<path d="M1.77876 13.978L13.9779 1.77879C14.3256 1.43114 14.7971 1.23584 15.2887 1.23584H216.119C216.61 1.23584 217.082 1.43114 217.43 1.77879L229.629 13.978C229.976 14.3256 230.172 14.7971 230.172 15.2887V90.6829C230.172 91.1746 229.976 91.6461 229.629 91.9937L217.43 104.193C217.082 104.541 216.61 104.736 216.119 104.736H15.2887C14.7971 104.736 14.3256 104.541 13.9779 104.193L1.77875 91.9937C1.43111 91.6461 1.23581 91.1746 1.23581 90.6829V15.2888C1.23581 14.7971 1.43111 14.3256 1.77876 13.978Z" stroke="black" stroke-width="2.47164"/>
<defs>
<linearGradient id="paint0_linear_140_60" x1="1.23562" y1="87.1255" x2="230.171" y2="87.1255" gradientUnits="userSpaceOnUse">
<stop stop-color="#C3513C"/>
<stop offset="0.0540065" stop-color="#C3513C"/>
<stop offset="0.066652" stop-color="#EA8E5A"/>
<stop offset="0.221154" stop-color="#D8763E"/>
<stop offset="0.931409" stop-color="#D8763E"/>
<stop offset="0.943655" stop-color="#EA8E5A"/>
<stop offset="1" stop-color="#C3513C"/>
</linearGradient>
<linearGradient id="paint1_linear_140_60" x1="115.704" y1="1.23584" x2="115.704" y2="94.2314" gradientUnits="userSpaceOnUse">
<stop stop-color="#FFCA4D"/>
<stop offset="1" stop-color="#FFE854"/>
</linearGradient>
</defs>
</svg>
