<?xml version="1.0" encoding="UTF-8"?>
<svg xmlns="http://www.w3.org/2000/svg" version="1.1" viewBox="0 0 382.1 334.8">
  <!-- Generator: Adobe Illustrator 30.0.0, SVG Export Plug-In . SVG Version: 2.1.1 Build 123)  -->
  <defs>
    <style>
      .st0 {
        fill: #fee1c1;
      }

      .st1 {
        fill: #614644;
      }

      .st2 {
        fill: #4c9b4b;
      }

      .st3 {
        stroke: #dfd7da;
        stroke-miterlimit: 10;
      }

      .st3, .st4, .st5 {
        fill: none;
      }

      .st6 {
        fill: #c86c4e;
      }

      .st7 {
        fill: #67c02f;
      }

      .st8 {
        fill: #ffa159;
      }

      .st4 {
        stroke: #614644;
        stroke-width: 3px;
      }

      .st4, .st5 {
        stroke-linecap: round;
        stroke-linejoin: round;
      }

      .st9 {
        fill: #fc6b55;
      }

      .st10 {
        fill: #fefcef;
      }

      .st11 {
        fill: #84b259;
      }

      .st5 {
        stroke: #a96260;
        stroke-width: 1.5px;
      }

      .st12 {
        fill: #b7acb9;
      }

      .st13 {
        fill: #ffc651;
      }

      .st14 {
        fill: #bdb0c2;
      }

      .st15 {
        fill: #443b4f;
      }

      .st16 {
        fill: #fffbf4;
      }

      .st17 {
        fill: #070707;
      }

      .st18 {
        fill: #f9caaa;
      }

      .st19 {
        fill: #b3dd58;
      }

      .st20 {
        fill: #e5a695;
      }

      .st21 {
        fill: #da6e4a;
      }
    </style>
  </defs>
  <g id="A">
    <path class="st19" d="M161.7,227.7s-1,20,29.4,20,29.3-19.4,29.3-19.4l-58.7-.6h0Z"/>
  </g>
  <g id="L_x5F_F">
    <g>
      <g>
        <g>
          <g>
            <g>
              <path class="st19" d="M143.4,217.1s0,0,0,0h0c0,0,0,0,0,0h0Z"/>
              <path class="st19" d="M150,225.7c-.6-.3-1.1-.6-1.7-1-.6-.3-1.1-.7-1.7-1.1-.6-.4-1.1-.7-1.7-1.1-.6-.4-1.2-.9-1.9-1.4,0,0-.2,0-.4-.2-1.8,11.8-6.6,47.1-2.1,50.5.4.3,1,.6,1.8.9h0c.4.1.7.2,1.1.3,5,1.3,14.6,1.7,23,1.8,4.4,0,8.5,0,11.5,0,1.4,0,2.5,0,3.3,0,.8,0,1.2,0,1.2,0l6.7-23.2v-14.7s-21.9-.9-39.3-10.6h0ZM148.9,269l-1.8.2c0-.1,0-.2,0-.4.6,0,1.2,0,1.9,0,0,0,0,0,0,.1ZM143.1,269.3c0,0,0-.2,0-.3.4,0,1.1,0,1.8,0h0c0,.1-1.8.3-1.8.3h0Z"/>
              <path class="st16" d="M143.1,286.9c6.3,0,18.7.6,30.4,4.7,0,.2-.1.3-.2.5,0,.1,0,.2-.1.3-.1.3-.2.6-.3.9h0c-.1.4-.2.7-.3,1,0,.1,0,.2-.1.4,0,.2-.1.5-.2.7,0,.1,0,.3,0,.4,0,.3-.1.5-.2.8,0,.3-.1.5-.1.8h0c0,.4-.1.7-.1,1h0c0,.5-.1,1-.2,1.4,0,.1,0,.3,0,.4,0,.7-.1,1.4-.1,2,0,.2,0,.4,0,.6v.3h0c0,1,0,1.5,0,1.5,0,0-.2,5.3-9.3,4.1-9.1-1.2-18.3-5.3-18.3-5.3l-.3-6.5-.5-10h0Z"/>
              <path class="st16" d="M175,288.6c0,.2-.2.3-.3.5,0,0,0,0,0,0,0,0,0,.1-.1.2,0,0,0,.1-.1.2,0,.1-.1.3-.2.4-12.1-4.3-24.8-4.9-31.2-4.9v-.5s0-1.2,0-1.2c6.5,0,19.8.6,32,5.2h0Z"/>
              <path class="st16" d="M176.9,284.9c0,0,0,.2,0,.2-.2.6-.5,1.2-.9,1.9-12.6-4.9-26.4-5.5-33.1-5.5v-1.1c0,0,0-.3,0-.3,4.3-.2,18.2-.3,34.1,4.8h0Z"/>
              <path class="st0" d="M178.2,278.3c0,.5,0,1.1-.1,1.7h0c0,.3,0,.6-.1.9-.1,1-.4,1.9-.7,2.9-.1.3-.2.7-.4,1-15.9-5.1-29.8-4.9-34.1-4.8l-.4-7.4v-.4h0l-.2-3.2s.3,0,.8,0c0,0,0,.2,0,.3l1.8-.2h0c.6-.1,1.3-.1,2.1-.1,0,.1,0,.2,0,.4l1.8-.2s0,0,0-.1c6.3.1,16.7,1,29,4.4,0,0,0,0,0,0,0,0,0,.2,0,.4,0,.1,0,.2,0,.4,0,0,0,0,0,.1,0,0,0,.2,0,.3h0c0,.2,0,.3,0,.5,0,0,0,.1,0,.2,0,.1,0,.2,0,.3,0,.1,0,.3,0,.4h0c0,.2,0,.4,0,.5,0,.5,0,1.1,0,1.8h0Z"/>
              <path class="st13" d="M172.1,315.7l-.4,2.9c-7.6,1.7-12.3.7-12.3.7-4.6,8.2-9,5.6-9,5.6-12.5-9.8-21.4-8.5-26-7.3l12.2-11.8c.1-.3,1-4.5,0-7.2-1-2.7,22.9-2.6,23.8,3.1.8,5.3.1,5.5,0,5.5.4,0,8.9-.4,9.3-4,0,0,1.5-3.5,2.4,2.5.9,6,0,10,0,10h0Z"/>
              <path class="st15" d="M171.7,318.6l-.3,2.3s-4.4,1.9-10.9.9c0,0-2.4,11.6-25.1,9.7-22.7-1.9-13.1-11.8-13.1-11.8l2.1-2.1c4.6-1.2,13.5-2.5,26,7.3,0,0,4.4,2.5,9-5.6,0,0,4.6,1,12.3-.7h0Z"/>
            </g>
            <path class="st11" d="M189.3,233.7v2.6s-34.9,0-46.1-15.1c0,0-.2,0-.4-.2.3-2.1.5-3.5.6-3.8,0,0,0,0,0,0l.8.3,45.1,13.7v2.5h0Z"/>
            <path class="st11" d="M189.3,247.8s-18.5.8-25.4-5.5c0,0,5.5,6.4,17.9,6.9l-9.8,5.8,17.2-4v-3.2h0Z"/>
          </g>
          <path class="st21" d="M137.4,306s4.9-2.8,19.3,3.5c0,0-10.4-3-19.3-3.5Z"/>
          <path class="st1" d="M143.3,217.1h0s.8.3.8.3l2.7.8h.5c0,.1.5.3.5.3l2.4.7h0s1,.3,1,.3l38,11.6v19.9l-6.7,23.2s-.4,0-1.2,0c-.8,0-1.9,0-3.3,0,0,0,0,.2,0,.3h0c0,.2,0,.3,0,.5,0,0,0,.1,0,.2,0,.1,0,.2,0,.3,0,.1,0,.3,0,.4h0v.5c0,.5,0,1.1,0,1.8,0,.5,0,1.1-.1,1.7h0c0,.3,0,.6-.1.9-.1,1-.4,1.9-.7,2.9-.1.3-.2.7-.4,1,0,0,0,.2,0,.2-.2.6-.5,1.2-.9,1.9-12.5-4.8-26-5.5-32.8-5.5h-.3v-1.1c0,0,0-.3,0-.3l-.4-7.4v-.4h0c-.8-.3-1.4-.5-1.8-.9-4.5-3.4.4-38.7,2.1-50.5h0c.3-2.1.5-3.5.6-3.8h0M147,269.3l1.8-.2s0,0,0-.1c-.7,0-1.3,0-1.9,0,0,.1,0,.2,0,.4M143.1,269.3l1.8-.2h0c-.8,0-1.4,0-1.8,0,0,0,0,.2,0,.3M143.1,283.3c6.6,0,19.8.6,31.9,5.2,0,.2-.2.3-.3.5,0,0,0,0,0,0,0,0,0,.1-.1.2,0,0,0,.1,0,.2,0,.1-.2.3-.2.4,0,0,0,.1,0,.2,0,0,0-.1,0-.2-12.1-4.3-24.8-4.9-31.2-4.9v-.5s0-1.2,0-1.2h.1M143.1,286.9c6.3,0,18.7.6,30.4,4.7,0,.2-.1.3-.2.5,0,.1,0,.2-.1.3-.1.3-.2.6-.3.9h0c-.1.4-.2.7-.3,1,0,.1,0,.2-.1.4,0,.2-.1.5-.2.7,0,.1,0,.3,0,.4,0,.3-.1.5-.2.8,0,.3-.1.5-.1.8h0c0,.4-.1.7-.1,1h0c0,.5-.1,1-.2,1.4,0,.1,0,.3,0,.4,0,.7-.1,1.4-.1,2,0,.2,0,.4,0,.6v.3h0s0,0,0,.1c0,0,0,0,0,0,0,0,0,0,0,0,0,0,0,.2,0,.3,0,0,0,.2,0,.3,0,0,0,.2,0,.3,0,.2,0,.4.1.6,0,.3.1.6.2,1,.9,6,0,10,0,10l-.4,2.9-.3,2.3s-2.8,1.2-7.1,1.2-2.4,0-3.8-.3c0,0-2.1,9.9-20.2,9.9s-3.1,0-4.9-.2c-22.7-1.9-13.1-11.8-13.1-11.8l2.1-2.1,12.2-11.8c.1-.3,1-4.5,0-7.2,0,0,0-.1,0-.2s0-.1,0-.2h0s0,0,0,0c0,0,0,0,0,0,0,0,.1-.2.3-.2,0,0,.1,0,.2-.1s.1,0,.2-.1c0,0,0,0,0,0,0,0,.2,0,.3-.1,0,0,.1,0,.2,0h0c0,0,.2,0,.2,0,.1,0,.3,0,.4-.1.3,0,.6-.1,1-.2,0,0,0,0,.1,0,0,0,.1,0,.2,0,0,0,.1,0,.2,0,.1,0,.3,0,.4,0h0c.3,0,.6,0,.9,0h.1c.4,0,.8,0,1.2,0,.2,0,.5,0,.7,0l-.5-10M143.3,214.1c-.5,0-1,.1-1.4.4-.7.4-1.2,1-1.4,1.7,0,.2-.1.4-.1.6,0,.4-.3,1.7-.6,3.7,0,0,0,0,0,.1-7.2,48.5-2.8,51.8-.9,53.2.2.2.4.3.7.5l.3,6v.2h0s0,1.1,0,1.1c0,.3,0,.6.2.9,0,.3-.1.6-.1.9v1.2c0,0,0,.5,0,.5,0,.3,0,.6.2.9,0,.3-.1.6-.1.9l.4,7s0,0-.1,0h0c-.2,0-.4,0-.6,0h-.1s0,0,0,0c0,0,0,0,0,0h-.2s0,0,0,0c0,0,0,0-.1,0-.3,0-.6.1-.9.2h-.1c0,0-.1,0-.2,0h-.1c-.1,0-.2,0-.3,0,0,0-.1,0-.2,0,0,0-.2,0-.3,0,0,0,0,0,0,0,0,0-.1,0-.2,0-.1,0-.2,0-.3.1h0c0,0-.1,0-.2,0-.1,0-.2.1-.4.2-.2.1-.4.2-.5.3-.4.3-.8.6-1.1,1.1,0,0,0,0,0,.1,0,0,0,0,0,.1,0,.1-.1.2-.1.3-.2.5-.3.9-.3,1.4s0,.8.2,1.1c0,0,0,0,0,.1.5,1.2.3,3.5,0,4.6l-11.5,11.2-2.1,2.1s0,0,0,0c-.4.4-4.2,4.5-2.4,9.1,1.6,4.4,7.3,6.9,17.4,7.8,1.8.1,3.5.2,5.1.2,14.6,0,20.1-6.1,22.1-9.7.6,0,1.3,0,1.9,0,4.9,0,8-1.3,8.4-1.5.9-.4,1.6-1.3,1.8-2.3l.3-2.3.4-2.8c.2-.9.9-5,0-10.9,0-.4-.1-.8-.2-1.1,0-.3-.1-.5-.2-.8,0-.2,0-.3-.1-.4,0-.1,0-.2,0-.3,0,0,0,0,0,0,0,0,0-.2,0-.3h0c0-.5,0-1.1.1-1.9h0v-.2c0,0,0-.2,0-.3,0-.4,0-.8.1-1.3h0c0-.3,0-.5.1-.8,0,0,0-.2,0-.3,0-.2,0-.4.1-.6,0,0,0,0,0-.1,0-.2,0-.4.1-.6,0-.1,0-.3,0-.4h0c0-.3,0-.4.1-.6,0,0,0-.2,0-.2h0c0-.4.2-.7.2-1,0,0,0-.1,0-.2,0-.2.1-.5.2-.7v-.2c0,0,0,0,0,0,0,0,0-.2,0-.2,0,0,0-.1,0-.2.1-.2.2-.5.2-.8.1-.2.3-.4.4-.6h0c0-.1,0-.3,0-.3,0,0,0,0,0,0,0-.1.1-.2.2-.3,0,0,0-.1,0-.2,0,0,0,0,0,0v-.2c.1-.1.2-.2.2-.3.1-.2.2-.5.3-.7.3-.2.5-.5.7-.8.4-.7.7-1.4,1-2.2,0,0,0-.1,0-.2h0c0,0,0-.2,0-.2.1-.4.3-.7.4-1.1.4-1.1.6-2.2.8-3.4,0-.3.1-.7.1-1h0c0-.7.1-1.4.1-2.1,0-.4,0-.8,0-1.1h.2c.8,0,1.2,0,1.2,0,1.3,0,2.4-.9,2.8-2.2l6.7-23.2c0-.3.1-.6.1-.8v-19.9c0-1.3-.9-2.5-2.1-2.9l-38-11.6-.9-.3h0s0,0,0,0l-2.4-.7h-.5c0-.1-.5-.3-.5-.3l-2.6-.8-.7-.2c-.1,0-.3,0-.4-.1-.2,0-.4,0-.6,0h0Z"/>
        </g>
        <path class="st10" d="M151.3,219.5h0c0,.3-.6,2.5-1.3,6.2,0,.4-.2.9-.2,1.4-1.4,8.8-3.1,24.5-.9,41.8-.7,0-1.3,0-1.9,0-2.2-18-.4-34.2,1.1-42.9,0-.4.1-.9.2-1.2.6-3.6,1.2-5.6,1.2-5.7l.7.2h0s1,.3,1,.3h0Z"/>
        <g>
          <path class="st18" d="M178.2,276.1h0c0-.3,0-.4,0-.5,0-.1,0-.2,0-.3,0,0,0-.1,0-.2,0-.1,0-.2,0-.3h0c0-.2,0-.3,0-.4,0,0,0,0,0-.1,0-.1,0-.3,0-.4,0-.2,0-.4,0-.4,0,0,0,0,0,0-12.3-3.4-22.7-4.3-29-4.4-.7,0-1.3,0-1.9,0s-1.5,0-2.1,0c-.8,0-1.4,0-1.8,0-.5,0-.8,0-.8,0l.2,3.2v.4c.2,0,.6,0,1.1-.1,2.7-.2,9.9-.3,23,1.8,3.4.5,7.3,1.2,11.6,2.1,0-.1,0-.2,0-.3h0Z"/>
          <path class="st10" d="M147.8,218.5h0c0,.3-.5,2.1-1.1,5.2,0,.3-.1.6-.2,1-1.6,8.8-3.9,25.8-1.6,44.2-.8,0-1.4,0-1.8,0-2.4-19.4.2-37.3,1.8-45.8,0-.2,0-.4.1-.6.6-2.9,1-4.5,1-4.6l.9.2.9.2h0Z"/>
        </g>
      </g>
      <path class="st9" d="M175.9,287c-.2.4-.4.7-.6,1.1-.1.2-.2.4-.3.5h0c-12.2-4.6-25.5-5.3-32-5.2v-1.8c6.6,0,20.4.6,33,5.5h0Z"/>
      <path class="st9" d="M174.3,289.9c0,0,0,.1,0,.2,0,.2-.2.3-.2.5,0,.2-.1.3-.2.5,0,0,0,0,0,0,0,.1-.1.3-.2.4h0c-11.7-4.1-24.1-4.7-30.4-4.7v-.5s0-1.3,0-1.3c6.5,0,19.2.6,31.2,4.9h0Z"/>
    </g>
  </g>
  <g id="R_x5F_F">
    <g>
      <g>
        <g>
          <g>
            <g>
              <path class="st19" d="M238.8,217.1s0,0,0,0h0c0,0,0,0,0,0h0Z"/>
              <path class="st19" d="M192.9,236.2v14.7l6.7,23.2s.4,0,1.2,0c.8,0,1.9,0,3.3,0,2.9,0,7,.1,11.5,0,8.4,0,18-.5,23-1.8.4-.1.8-.2,1.1-.3h0c.8-.3,1.4-.5,1.8-.9,4.5-3.4-.4-38.7-2.1-50.5-.2.2-.4.2-.4.2-.6.5-1.2.9-1.9,1.4-.5.4-1.1.8-1.7,1.1-.6.4-1.1.7-1.7,1.1-.6.3-1.1.7-1.7,1-17.3,9.6-39.3,10.6-39.3,10.6h0ZM233.3,268.9c.7,0,1.3,0,1.9,0,0,.1,0,.2,0,.4l-1.8-.2s0,0,0-.1ZM237.2,269h0c.8,0,1.4,0,1.8,0,0,0,0,.2,0,.3l-1.8-.2h0Z"/>
              <path class="st16" d="M208.8,292.1c5.5-1.9,15.4-4.4,30.2-4.4l-.4,9.1-.3,6.5s-9.2,4.1-18.3,5.3c-9.1,1.2-9.3-4.1-9.3-4.1,0,0,0-.5,0-1.5h0v-1c0-.6,0-1.2-.1-2,0-.1,0-.3,0-.4,0-.5-.1-.9-.2-1.4h0c0-.3,0-.6-.1-1h0c0-.3,0-.6-.1-.9,0-.2,0-.5-.1-.7,0,0,0,0,0-.1,0-.1,0-.2,0-.4,0-.2-.1-.5-.2-.7,0-.1,0-.2-.1-.4,0-.2-.1-.5-.2-.7,0,0,0-.2,0-.3h0c0-.2-.1-.5-.2-.7,0,0,0-.1,0-.2,0,0,0-.1,0-.2h0Z"/>
              <path class="st16" d="M239.2,283.8v2.1c-15.3,0-25.4,2.5-31.1,4.5,0,0,0-.2-.1-.2,0,0,0,0,0-.1-.2-.3-.3-.7-.5-1,0,0,0,0,0,0,0,0,0-.2-.1-.2,5.1-2,15.5-5,31.9-4.9h0Z"/>
              <path class="st16" d="M239.3,280.1v1.9c-17.2,0-27.9,3.1-33,5.1-.4-.7-.7-1.4-1-2,0,0,0-.1,0-.2,6.5-2.1,12.6-3.3,18-4,7.7-1,13.6-.9,16.1-.8h0Z"/>
              <path class="st0" d="M203.9,278.2c0,.5,0,1.1.1,1.7h0c0,.3,0,.6.1.9.1,1,.4,1.9.7,2.9.1.3.2.7.4,1,15.9-5.1,29.8-4.9,34.1-4.8l.4-7.4v-.4h0l.2-3.2s-.3,0-.8,0c0,0,0,.2,0,.3l-1.8-.2h0c-.6-.1-1.3-.1-2.1-.1,0,.1,0,.2,0,.4l-1.8-.2s0,0,0-.1c-6.3.1-16.7,1-29,4.4,0,0,0,0,0,0,0,0,0,.2,0,.4,0,.1,0,.2,0,.4,0,0,0,0,0,.1,0,0,0,.2,0,.3h0c0,.2,0,.3,0,.5,0,0,0,.1,0,.2,0,.1,0,.2,0,.3,0,.1,0,.3,0,.4h0c0,.2,0,.4,0,.5,0,.5,0,1.1,0,1.8h0Z"/>
              <path class="st13" d="M210,315.7l.4,2.9c7.6,1.7,12.3.7,12.3.7,4.6,8.2,9,5.6,9,5.6,12.5-9.8,21.4-8.5,26-7.3l-12.2-11.8c-.1-.3-1-4.5,0-7.2,1-2.7-22.9-2.6-23.8,3.1-.8,5.3-.1,5.5,0,5.5-.4,0-8.9-.4-9.3-4,0,0-1.5-3.5-2.4,2.5-.9,6,0,10,0,10h0Z"/>
              <path class="st15" d="M210.4,318.6l.3,2.3s4.4,1.9,10.9.9c0,0,2.4,11.6,25.1,9.7,22.7-1.9,13.1-11.8,13.1-11.8l-2.1-2.1c-4.6-1.2-13.5-2.5-26,7.3,0,0-4.4,2.5-9-5.6,0,0-4.6,1-12.3-.7h0Z"/>
            </g>
            <path class="st11" d="M192.9,233.6v2.6s34.9,0,46.1-15.1c0,0,.2,0,.4-.2-.3-2.1-.5-3.5-.6-3.8,0,0,0,0,0,0l-.8.3-45.1,13.7v2.5h0Z"/>
            <path class="st11" d="M192.9,247.7s18.5.8,25.4-5.5c0,0-5.5,6.4-17.9,6.9l9.8,5.8-17.2-4v-3.2h0Z"/>
          </g>
          <path class="st21" d="M244.7,306s-4.9-2.8-19.3,3.5c0,0,10.4-3,19.3-3.5Z"/>
          <path class="st1" d="M238.8,217.1h0c0,.3.3,1.7.6,3.8,1.8,11.8,6.6,47.1,2.1,50.5-.4.3-1,.6-1.8.9h0v.4s-.4,7.4-.4,7.4h0v1.9h-.4c-16.9,0-27.5,3.1-32.6,5.1-.4-.7-.7-1.4-1-2,0,0,0-.1,0-.2h0c-.1-.4-.2-.7-.4-1-.3-1-.5-2-.7-2.9,0-.3,0-.6-.1-.9h0c0-.6-.1-1.2-.1-1.8,0-.6,0-1.2,0-1.8v-.3h0v-.2c0-.1,0-.3,0-.4,0-.1,0-.2,0-.3,0,0,0-.1,0-.2,0-.1,0-.2,0-.3h0c0-.2,0-.3,0-.4-1.4,0-2.5,0-3.3,0-.8,0-1.2,0-1.2,0l-6.7-23.2v-19.9l38-11.6.5-.2h.3c0,0,.2-.1.2-.1h0s2.4-.8,2.4-.8h.5c0-.1.4-.3.4-.3h0s2.7-.9,2.7-.9l.8-.3h0M235.1,269.2c0-.1,0-.2,0-.4-.6,0-1.2,0-1.9,0,0,0,0,0,0,.1l1.8.2M239.1,269.2c0,0,0-.2,0-.3-.4,0-1.1,0-1.8,0h0c0,.1,1.8.3,1.8.3M239,283.8h.1v2.1h-.3c-15.1,0-25.2,2.5-30.8,4.5h0c0,0,0-.2-.1-.2,0,0,0,0,0-.1-.2-.3-.3-.7-.5-1,0,0,0,0,0,0,0,0,0-.2-.1-.2,5.1-2,15.5-4.9,31.7-4.9M239,287.7h0M239,287.7l-.4,9.1c.2,0,.5,0,.7,0,.4,0,.9,0,1.2,0h.1c.3,0,.6,0,.9,0h0c.2,0,.3,0,.4,0,0,0,.1,0,.2,0,0,0,.1,0,.2,0,0,0,0,0,.1,0,.4,0,.7.1,1,.2.1,0,.3,0,.4.1,0,0,.2,0,.2,0h0c0,0,.1,0,.2,0,.1,0,.2,0,.3.1,0,0,0,0,0,0,0,0,.1,0,.2.1s.1,0,.2.1c.1,0,.2.2.3.2,0,0,0,0,0,0,0,0,0,0,0,0h0c0,0,0,.1,0,.2s0,.1,0,.2c-1,2.7-.1,7,0,7.2l12.2,11.8,2.1,2.1s9.6,9.9-13.1,11.8c-1.7.1-3.4.2-4.9.2-18.1,0-20.2-9.9-20.2-9.9-1.4.2-2.6.3-3.8.3-4.4,0-7.1-1.2-7.1-1.2l-.3-2.3-.4-2.9s-.9-3.9,0-10c0-.4.1-.7.2-1,0-.2,0-.4.1-.6,0-.1,0-.2,0-.3,0-.1,0-.2,0-.3,0,0,0-.2,0-.3,0,0,0,0,0,0,0,0,0,0,0-.1h0v-1c0-.6,0-1.2-.1-2,0-.1,0-.3,0-.4,0-.5-.1-.9-.2-1.4h0c0-.3,0-.6-.1-1h0c0-.3,0-.6-.1-.9,0-.2,0-.5-.1-.7,0,0,0,0,0-.1,0-.1,0-.2,0-.4,0-.2-.1-.5-.2-.7,0-.1,0-.2-.1-.4,0-.2-.1-.5-.2-.7,0,0,0-.2,0-.3h0c0-.2-.1-.5-.2-.7,0,0,0-.1,0-.2,0,0,0-.2,0-.2,5.5-1.9,15.4-4.4,30.2-4.4M238.8,214.1c-.4,0-.8,0-1.1.2l-.6.2-2.6.8h-.5c0,.1-.5.3-.5.3l-2.4.8s0,0,0,0h-.1s-.3.1-.3.1c0,0,0,0,0,0l-.5.2-38,11.6c-1.3.4-2.1,1.6-2.1,2.9v19.9c0,.3,0,.6.1.8l6.7,23.2c.4,1.2,1.5,2.1,2.8,2.2,0,0,.5,0,1.3,0h.2c0,.4,0,.8,0,1.2,0,.7,0,1.3.1,1.9h0c0,.5,0,.8.1,1.1.2,1.2.4,2.3.8,3.4.1.4.2.7.4,1h0c0,0,0,.2,0,.2,0,0,0,.1,0,.2.3.8.7,1.6,1.1,2.4.2.3.4.6.7.8,0,.3.2.5.3.8v.2c0,0,.1,0,.1,0h0s0,0,0,0c.1.3.3.5.4.8,0,0,0,0,0,0h0c.1.4.3.7.5,1,0,.2,0,.5.1.7v.2c0,0,0,0,0,0,0,0,0,.1,0,.2,0,0,0,0,0,0,0,.2.1.4.2.5,0,0,0,.1,0,.2,0,0,0,.1,0,.2,0,.2.1.4.2.6,0,0,0,0,0,0h0c0,.2,0,.3,0,.3,0,.2,0,.3.1.5h0c0,.2,0,.3,0,.4s0,.2,0,.3c0,.1,0,.2,0,.4,0,0,0,.1,0,.1,0,.2,0,.4.1.6,0,.1,0,.2,0,.3,0,.2,0,.5.1.7h0s0,0,0,0c0,.4.1.9.1,1.3,0,0,0,.2,0,.3h0c0,.1,0,.2,0,.2,0,.7.1,1.3.1,1.8h0v.2h0c0,.2,0,.2,0,.2,0,.1,0,.2,0,.3,0,.1,0,.3-.1.4,0,.3-.1.5-.2.8,0,.3-.1.7-.2,1.1-.9,5.9-.2,10.1,0,10.9l.4,2.8.3,2.3c.1,1,.8,1.9,1.8,2.3.3.1,3.5,1.5,8.4,1.5s1.3,0,1.9,0c2,3.6,7.5,9.7,22.1,9.7s3.4,0,5.1-.2c10.1-.9,15.7-3.4,17.4-7.8,1.7-4.6-2-8.7-2.4-9.1h0c0,0-2.1-2.1-2.1-2.1l-11.5-11.2c-.2-1.2-.4-3.4,0-4.6,0,0,0,0,0-.1.1-.4.2-.7.2-1.1s0-.9-.2-1.3c0-.2-.2-.4-.3-.5,0,0,0,0,0,0,0,0,0,0,0-.1-.3-.4-.7-.8-1.1-1.1-.1,0-.3-.2-.5-.3-.1,0-.2-.1-.3-.1,0,0-.1,0-.2,0h0s0,0,0,0c0,0,0,0,0,0-.1,0-.2,0-.3-.1,0,0-.1,0-.2,0,0,0-.1,0-.2,0,0,0,0,0-.1,0h0c0,0-.2,0-.2,0-.1,0-.2,0-.3,0h-.1c0,0-.1,0-.2,0h-.1c-.3,0-.6-.1-.9-.2,0,0,0,0-.1,0h-.3s-.2,0-.2,0c-.2,0-.4,0-.6,0,0,0,0,0-.1,0h0l.3-6c0,0,0-.2,0-.3,0-.3,0-.5-.1-.8.1-.3.2-.6.2-.9v-2.1c.1-.3,0-.6,0-.9.1-.3.2-.6.2-.9v-1.6c0,0,0,0,0,0v-.3h0l.3-6c.2-.1.5-.3.7-.5,1.9-1.4,6.2-4.8-.9-53.3-.3-2.2-.5-3.5-.6-3.8,0,0,0,0,0-.1-.2-.8-.6-1.5-1.4-2-.5-.3-1-.4-1.6-.4h0ZM239,290.7h0Z"/>
        </g>
        <path class="st10" d="M230.9,219.5h0c0,.3.6,2.5,1.3,6.2,0,.4.2.9.2,1.4,1.4,8.8,3.1,24.5.9,41.8.7,0,1.3,0,1.9,0,2.2-18,.4-34.2-1.1-42.9,0-.4-.1-.9-.2-1.2-.6-3.6-1.2-5.6-1.2-5.7l-.7.2h0s-1,.3-1,.3h0Z"/>
        <g>
          <path class="st18" d="M203.9,276.1h0c0-.3,0-.4,0-.5,0-.1,0-.2,0-.3,0,0,0-.1,0-.2,0-.1,0-.2,0-.3h0c0-.2,0-.3,0-.4,0,0,0,0,0-.1,0-.1,0-.3,0-.4,0-.2,0-.4,0-.4,0,0,0,0,0,0,12.3-3.4,22.7-4.3,29-4.4.7,0,1.3,0,1.9,0s1.5,0,2.1,0c.8,0,1.4,0,1.8,0,.5,0,.8,0,.8,0l-.2,3.2v.4c-.2,0-.6,0-1.1-.1-2.7-.2-9.9-.3-23,1.8-3.4.5-7.3,1.2-11.6,2.1,0-.1,0-.2,0-.3h0Z"/>
          <path class="st10" d="M234.4,218.4h0c0,.3.5,2.1,1.1,5.2,0,.3.1.6.2,1,1.6,8.8,3.9,25.8,1.6,44.3.8,0,1.4,0,1.8,0,2.4-19.4-.2-37.3-1.8-45.8,0-.2,0-.4-.1-.6-.6-2.9-1-4.5-1-4.6l-.9.2-.9.2h0Z"/>
        </g>
      </g>
      <path class="st9" d="M239.2,282v1.8c-16.4,0-26.9,3-32,4.9-.1-.3-.3-.5-.4-.7-.2-.3-.4-.6-.5-.9,5.1-2,15.9-5.2,33-5.1h0Z"/>
      <path class="st9" d="M239.1,285.9v1.8c-14.8,0-24.8,2.5-30.2,4.4h0s0,0,0,0c0-.2-.1-.3-.2-.5s-.1-.3-.2-.5c0-.2-.2-.4-.3-.6,5.6-2,15.8-4.5,31-4.5h0Z"/>
    </g>
  </g>
  <g id="R_x5F_Hand">
    <g>
      <path class="st1" d="M236.7,111.8s18.1,9.2,21.7,14c3.6,4.9,6.6,13.5,6.6,13.5l24.9,17.9c1.6,0,3.1.5,4.4,1.4,0,0,5.7.3,7.7,5,0,0,12.9,7.4,21.7,14.9,1.7-.5,2.9-.8,3.2-.9,0,0,0,0,.1,0,2,0,4.6,9.3,4.9,9.3h0c2.7-2,5.2-2.8,8.1-2.8s6.2.8,10.6,1.8c8.8,2,22.3,9.4,22.3,9.4.9,4.8-5.4,7.1-6.1,7.3h0s0,0,0,0c0,0,.1,0,.3.2h0c1.9,1.4,11.7,9,11.9,12.5.2,3.5-4.1,4.8-5,5-.1,0-.2,0-.2,0,0,0,.1.1.2.2,2.8,3.1,4.3,5.3,4.3,5.3-1.5,3.3-4.1,4.2-6.5,4.2s-5.6-1.4-5.6-1.4c0,0,0,0,0,0,0,.1,0,.3-.1.4-.9,3.4-4,4.2-6.7,4.2s-2.4-.2-3.3-.3c-1-.2-1.6-.4-1.6-.4,0,0,0,.1-.1.2-1.1,1.9-3,2.5-5.3,2.5-7.2,0-18-6.7-18-6.7-14.7-5.2-22.8-14.8-22.8-14.8-.6.1-1.2.2-1.8.2-3.3,0-6.8-1.6-6.8-1.6,0-.9,0-1.8,0-2.7-8.7-2.8-24-8.3-27.4-11.2-.1,0-.2-.2-.3-.3-.5-.5-1.1-.9-1.6-1.4-.7-.1-1.5-.3-2.2-.5-8.7-6.1-27.7-18.5-27.7-18.5l-14-31.1,10.2-35.2M366.9,202.7h0M236.7,108.8c-.4,0-.8,0-1.2.2-.8.4-1.4,1.1-1.7,1.9l-10.2,35.2c-.2.7-.1,1.4.1,2.1l14,31.1c.2.5.6,1,1.1,1.3.2.1,19.1,12.4,27.6,18.4.3.2.7.4,1.1.5.5.1.9.2,1.4.3.4.3.7.7,1.1,1,.1,0,.2.2.3.2,4,3.5,20,9,26.4,11.2,0,.2,0,.4,0,.7,0,1.1.7,2.1,1.7,2.6.4.2,4.2,1.9,8.1,1.9s.4,0,.6,0c2.8,2.9,10.5,10,22.6,14.4,2.1,1.2,11.9,7,19.3,7s5.3-1.1,6.6-2.4c1.3.2,2.5.4,3.6.4,3.9,0,6.8-1.4,8.5-3.8,1.1.3,2.5.6,4,.6,4.2,0,7.4-2.1,9.2-6,.4-.9.3-2-.2-2.9,0,0-.8-1.1-2.1-2.8,2-1.4,3.4-3.5,3.3-6.3-.2-3.5-4.9-8.1-9.7-12.1,2.5-1.9,4.3-4.8,3.7-8.4-.2-.9-.7-1.7-1.5-2.1-.6-.3-13.9-7.6-23.1-9.7-4.5-1-8-1.9-11.3-1.9s-4.5.4-6.6,1.4c-1.8-4.7-3.4-7.9-6.4-7.9s-.4,0-.7,0c-.2,0-.9.2-2,.5-7.6-6.2-17.3-12-20.1-13.7-2.4-4.3-7-5.4-8.9-5.7-1.4-.8-2.9-1.3-4.5-1.5l-23.5-16.9c-.9-2.4-3.5-9.1-6.7-13.4-3.9-5.2-19.7-13.3-22.8-14.9-.4-.2-.9-.3-1.4-.3h0Z"/>
      <path class="st7" d="M270.8,164.8c-10,9.1-9.1,24.9,1.3,33.6.1.1.2.2.3.3,4.7,4.1,32.1,13,33.4,13s29.9-15.1,25.8-24.3c-4.1-9.2-29.4-23.7-29.4-23.7-2-4.7-7.7-5-7.7-5h0c-1.5-1.1-3.2-1.6-5-1.4-5.3.4-12.6,2.1-18.6,7.6h0Z"/>
      <path class="st7" d="M236.7,111.8s18.1,9.2,21.7,14c3.6,4.9,6.6,13.5,6.6,13.5l26,18.7c1.3.7,2.3,1.2,2.3,1.2,0,0,20.1,47.4-25,37.3-8.7-6.1-27.7-18.5-27.7-18.5l-14-31.1,10.2-35.2h0Z"/>
      <g>
        <path class="st10" d="M299.8,212.6s4.9,2.3,8.6,1.4c0,0,8.1,9.6,22.8,14.8,0,0,19,11.7,23.3,4.1,0,0,0-.1.1-.2,0,0,.6.2,1.6.4,2.8.5,8.7,1,10-3.9,0-.1,0-.3.1-.4,0,0,0,0,0,0,0,0,8.7,4.6,12.1-2.8,0,0-1.5-2.3-4.3-5.3,0,0-.1-.1-.2-.2,0,0,0,0,.2,0,.9-.2,5.2-1.5,5-5-.2-3.5-10-11.1-11.9-12.5-.2-.2-.3-.2-.3-.2,0,0,0,0,0,0,.7-.2,7-2.5,6.1-7.3,0,0-13.5-7.4-22.3-9.4-8.8-2-13.3-3-18.7,1-.2.2-2.9-9.7-5-9.3s-28.5,6.3-27.2,34.9h0Z"/>
        <path class="st12" d="M328.5,209c1.9,1.1,16.3,8.7,24.1-6.9,0,0,7.2,2.5,14.6.9-.2-.2-.3-.2-.3-.2,0,0,0,0,0,0-3.6.2-11.4.4-14.8-1.8,0,0-9.9,15.9-23.6,8.2h0Z"/>
        <path class="st12" d="M354.5,207.7c-.2.3-3.9,8.3-15.9,16.9l15.9-16.9Z"/>
        <path class="st12" d="M374.1,220.7c0,0-.1-.1-.2-.2,0,0,0,0,.2,0-2.7-1.7-15.5-9.6-20.2-11.6h0c-.1.2-.2.4-.4.6,0,0,15.8,10.3,20.6,11.3h0Z"/>
        <path class="st12" d="M346.9,216.9s.1,0,.4.2c2.2,1.6,14.1,10.4,18.9,12.1,0-.1,0-.3.1-.4-3.2-2.3-13.8-9.8-18.4-12.3-.2-.1-.3-.2-.5-.3l-.4.6h0Z"/>
        <path class="st12" d="M340.8,222.4s.1,0,.3.2c1.5,1.3,8.6,7.3,13.4,10.4,0,0,0-.1.1-.2,0,0,.6.2,1.6.4-3.5-2.9-10.9-8.8-14.4-11-.2-.1-.3-.2-.5-.3l-.4.5h0Z"/>
      </g>
      <path class="st3" d="M327,177.8c-2,.4-28.5,6.3-27.2,34.9"/>
      <path class="st2" d="M295.9,168.3s-16-5-23.5,3.9c0,0-3.6,4.8,0,12s4,5.7,3.6,5-2.6-2.8-2.4-5.9,12.6-13.4,12.6-13.4c0,0,7.6-1.8,9.7-1.6h0Z"/>
      <path class="st14" d="M331,187.7c.5-.4-16.7,9.9-21.3,24.7,0,0,6.8-14,21.3-24.7Z"/>
    </g>
  </g>
  <g id="L_x5F_Hand">
    <g>
      <path class="st1" d="M145.3,111.7l10.2,35.2-14,31.1s-19,12.4-27.7,18.5c-.8.2-1.5.3-2.2.5-.5.5-1,1-1.6,1.4-.1.1-.2.2-.3.3-3.4,3-18.8,8.4-27.4,11.2,0,.9,0,1.8,0,2.7,0,0-3.5,1.6-6.8,1.6s-1.2,0-1.8-.2c0,0-8.1,9.6-22.8,14.8,0,0-10.8,6.7-18,6.7s-4.3-.7-5.3-2.5c0,0,0-.1-.1-.2,0,0-.6.2-1.6.4-.9.2-2,.3-3.3.3-2.8,0-5.8-.8-6.7-4.2,0-.1,0-.3-.1-.4,0,0,0,0,0,0,0,0-2.7,1.4-5.6,1.4s-5-.9-6.5-4.2c0,0,1.5-2.3,4.3-5.3,0,0,.1-.1.2-.2,0,0,0,0-.2,0-.9-.2-5.2-1.5-5-5,.2-3.5,10-11.1,11.9-12.5h0c.2-.2.3-.2.3-.2,0,0,0,0,0,0h0c-.7-.2-7-2.5-6.1-7.3,0,0,13.5-7.4,22.3-9.4,4.4-1,7.7-1.8,10.6-1.8s5.4.8,8.1,2.8h0c.3,0,2.8-9.3,4.9-9.3s0,0,.1,0c.4,0,1.6.3,3.2.9,8.9-7.6,21.7-14.9,21.7-14.9,2-4.7,7.7-5,7.7-5,1.3-.9,2.8-1.4,4.4-1.4l24.9-17.9s2.9-8.6,6.6-13.5c3.6-4.9,21.7-14,21.7-14M145.3,108.7c-.5,0-.9.1-1.4.3-3.1,1.6-18.9,9.8-22.8,14.9-3.2,4.3-5.8,10.9-6.7,13.4l-23.4,16.9c-1.6.1-3.1.7-4.5,1.5-2,.3-6.6,1.4-8.9,5.7-2.8,1.7-12.5,7.4-20.1,13.7-1.1-.3-1.8-.4-2-.5-.2,0-.4,0-.7,0h0c-3,0-4.6,3.2-6.4,7.9-2.1-.9-4.2-1.4-6.6-1.4s-6.8.8-11.3,1.9c-9.1,2.1-22.5,9.4-23.1,9.7-.8.4-1.4,1.2-1.5,2.1-.6,3.6,1.2,6.4,3.7,8.4C4.9,207.1.2,211.8,0,215.2c-.2,2.8,1.3,4.9,3.3,6.3-1.3,1.6-2.1,2.7-2.1,2.8-.6.9-.7,2-.2,2.9,1.8,3.9,5,6,9.2,6s2.9-.3,4-.6c1.7,2.5,4.6,3.8,8.5,3.8s2.4-.1,3.6-.4c1.3,1.3,3.4,2.4,6.6,2.4,7.4,0,17.2-5.7,19.3-7,12.1-4.4,19.9-11.5,22.6-14.4.2,0,.4,0,.6,0,3.9,0,7.7-1.7,8.1-1.9,1-.5,1.7-1.5,1.7-2.6,0-.2,0-.4,0-.7,6.5-2.1,22.4-7.6,26.4-11.2,0,0,.2-.1.3-.2.4-.3.7-.6,1.1-1,.5-.1.9-.2,1.4-.3.4,0,.7-.2,1.1-.5,8.5-6,27.4-18.3,27.6-18.4.5-.3.9-.8,1.1-1.3l14-31.1c.3-.6.4-1.4.1-2.1l-10.2-35.2c-.2-.9-.9-1.6-1.7-1.9-.4-.2-.8-.2-1.2-.2h0Z"/>
      <path class="st7" d="M111.3,164.8c10,9.1,9.1,24.9-1.3,33.6-.1.1-.2.2-.3.3-4.7,4.1-32.2,13-33.4,13s-29.9-15.1-25.8-24.3c4.1-9.2,29.4-23.7,29.4-23.7,2-4.7,7.7-5,7.7-5h0c1.5-1.1,3.2-1.6,5.1-1.4,5.3.4,12.6,2.1,18.6,7.6h0Z"/>
      <path class="st7" d="M145.3,111.7s-18.1,9.2-21.7,14c-3.6,4.9-6.6,13.5-6.6,13.5l-26,18.7c-1.3.7-2.3,1.2-2.3,1.2,0,0-20.1,47.4,25,37.3,8.7-6.1,27.7-18.5,27.7-18.5l14-31.1-10.2-35.2h0Z"/>
      <g>
        <path class="st10" d="M82.3,212.6s-4.9,2.3-8.6,1.4c0,0-8.1,9.6-22.8,14.8,0,0-19,11.7-23.3,4.1,0,0,0-.1-.1-.2,0,0-.6.2-1.6.4-2.8.5-8.7,1-10-3.9,0-.1,0-.3-.1-.4,0,0,0,0,0,0,0,0-8.7,4.6-12.1-2.8,0,0,1.5-2.3,4.3-5.3,0,0,.1-.1.2-.2,0,0,0,0-.2,0-.9-.2-5.2-1.5-5-5,.2-3.5,10-11.1,11.9-12.5.2-.2.3-.2.3-.2,0,0,0,0,0,0-.7-.2-7-2.5-6.1-7.3,0,0,13.5-7.4,22.3-9.4,8.8-2,13.3-3,18.7,1,.2.2,2.9-9.7,5-9.3s28.5,6.3,27.2,34.9h0Z"/>
        <path class="st12" d="M53.5,209c-1.9,1.1-16.3,8.7-24.1-6.9,0,0-7.2,2.5-14.6.9.2-.2.3-.2.3-.2,0,0,0,0,0,0,3.6.2,11.4.4,14.8-1.8,0,0,9.9,15.9,23.6,8.2h0Z"/>
        <path class="st12" d="M27.6,207.6c.2.3,3.9,8.3,15.9,16.9l-15.9-16.9Z"/>
        <path class="st12" d="M8,220.7c0,0,.1-.1.2-.2,0,0,0,0-.2,0,2.7-1.7,15.5-9.6,20.2-11.6h0c.1.2.2.4.4.6,0,0-15.8,10.3-20.6,11.3h0Z"/>
        <path class="st12" d="M35.1,216.9s-.1,0-.3.2c-2.2,1.6-14.1,10.4-18.9,12.1,0-.1,0-.3-.1-.4,3.2-2.3,13.8-9.8,18.4-12.3.2-.1.3-.2.5-.3l.4.6h0Z"/>
        <path class="st12" d="M41.2,222.4s0,0-.3.2c-1.5,1.3-8.6,7.3-13.4,10.4,0,0,0-.1-.1-.2,0,0-.6.2-1.6.4,3.5-2.9,10.9-8.8,14.4-11,.2-.1.3-.2.5-.3l.4.5h0Z"/>
      </g>
      <path class="st3" d="M55,177.8c2,.4,28.5,6.3,27.2,34.9"/>
      <path class="st2" d="M86.2,168.3s16-5,23.5,3.9c0,0,3.6,4.8,0,12s-4,5.7-3.6,5,2.6-2.8,2.4-5.9c-.2-3.1-12.6-13.4-12.6-13.4,0,0-7.6-1.8-9.7-1.6h0Z"/>
      <path class="st14" d="M51.1,187.6c-.5-.4,16.7,9.9,21.3,24.7,0,0-6.8-14-21.3-24.7Z"/>
    </g>
  </g>
  <g id="BODY">
    <g>
      <path class="st19" d="M191.1,237.6c-34.1-3-46.3-11.6-50.4-18.2-3-4.8-1.9-8.5-1.9-8.5v-29.4s4.9-29.8,30.8-49.9l21.6,14.6,21.6-14.6c25.9,20.1,30.8,49.9,30.8,49.9v29.4s6.3,21.5-52.4,26.7h0Z"/>
      <path class="st7" d="M243.4,181.5s-1.1-6.5-4.8-15.4c-2.3,6.4-5.7,17.2-5.1,23.5.9,9.6,1.8,36.1,1.8,36.3,0,.8-.6,1.5-1.4,1.6h0c-.8,0-1.5-.6-1.5-1.4,0-.3-.9-26.6-1.8-36.1-.8-8,4.2-22,6.3-27.7-4.6-9.6-12.1-21.2-24.2-30.6l19.8-13.4s5.3,27.3,14.4,38.6c0,0,3.4,11.5-3.5,24.7h0Z"/>
      <path class="st7" d="M146.5,160.6c1.6,4,7.8,20.4,6.9,29.2-.9,9.6-1.8,35.9-1.8,36.1,0,.8-.7,1.4-1.5,1.4h0c-.8,0-1.5-.7-1.4-1.6,0-.3.9-26.7,1.8-36.3.7-6.8-3.5-19.1-5.7-25.2-4.3,9.8-5.5,17.1-5.5,17.1-6.9-13.1-3.5-24.7-3.5-24.7,9.1-11.3,14.4-38.6,14.4-38.6l19.8,13.4c-11.5,8.9-18.8,19.7-23.5,29h0Z"/>
      <path class="st4" d="M139,181.9v29.4s-1.1,3.8,1.9,8.5c4.2,6.6,16.3,15.2,50.4,18.2,58.6-5.2,52.4-26.7,52.4-26.7v-29.4h0c6.9-13.1,3.5-24.7,3.5-24.7-9.1-11.3-14.4-38.6-14.4-38.6l-19.8,13.4h0l-21.6,14.6-21.3-14.4c0,0,.1-.1.2-.2l-19.8-13.4s-5.3,27.3-14.4,38.6c0,0-3.3,11.1,3.1,23.9,0,.5-.1.7-.1.7"/>
    </g>
    <g>
      <path class="st19" d="M191.1,237.6c-34.1-3-46.3-11.6-50.4-18.2-3-4.8-1.9-8.5-1.9-8.5v-29.4s4.9-29.8,30.8-49.9l21.6,14.6,21.6-14.6c25.9,20.1,30.8,49.9,30.8,49.9v29.4s6.3,21.5-52.4,26.7h0Z"/>
      <path class="st7" d="M243.4,181.5s-1.1-6.5-4.8-15.4c-2.3,6.4-5.7,17.2-5.1,23.5.9,9.6,1.8,36.1,1.8,36.3,0,.8-.6,1.5-1.4,1.6h0c-.8,0-1.5-.6-1.5-1.4,0-.3-.9-26.6-1.8-36.1-.8-8,4.2-22,6.3-27.7-4.6-9.6-12.1-21.2-24.2-30.6l19.8-13.4s5.3,27.3,14.4,38.6c0,0,3.4,11.5-3.5,24.7h0Z"/>
      <path class="st7" d="M146.5,160.6c1.6,4,7.8,20.4,6.9,29.2-.9,9.6-1.8,35.9-1.8,36.1,0,.8-.7,1.4-1.5,1.4h0c-.8,0-1.5-.7-1.4-1.6,0-.3.9-26.7,1.8-36.3.7-6.8-3.5-19.1-5.7-25.2-4.3,9.8-5.5,17.1-5.5,17.1-6.9-13.1-3.5-24.7-3.5-24.7,9.1-11.3,14.4-38.6,14.4-38.6l19.8,13.4c-11.5,8.9-18.8,19.7-23.5,29h0Z"/>
      <path class="st4" d="M139,181.9v29.4s-1.1,3.8,1.9,8.5c4.2,6.6,16.3,15.2,50.4,18.2,58.6-5.2,52.4-26.7,52.4-26.7v-29.4h0c6.9-13.1,3.5-24.7,3.5-24.7-9.1-11.3-14.4-38.6-14.4-38.6l-19.8,13.4h0l-21.6,14.6-21.3-14.4c0,0,.1-.1.2-.2l-19.8-13.4s-5.3,27.3-14.4,38.6c0,0-3.3,11.1,3.1,23.9,0,.5-.1.7-.1.7"/>
    </g>
  </g>
  <g id="Head">
    <g>
      <path class="st1" d="M190.4,3h0c53.1.2,55.9,56.5,55.7,71.5.2-.1.2-.2.3-.2,0,0,0,0,0,0h0c1.6-1.5,3.3-2.5,4.8-2.5s2.1.5,2.9,1.8c5.3,7.9,6.4,14.7,2.3,21.8-2.9,5.1-11.1,13.4-17.2,13.4s-1.1,0-1.7-.2c0,1.2.2,2.4.3,3.3.2,2.3,0,4.7-.8,6.9-11,33.1-40.5,35.3-46.1,35.3s-.7,0-.8,0c-.1,0-.4,0-.8,0-5.6,0-34.8-2.2-45.9-35.3-.7-2.2-1-4.6-.8-6.9,0-1,.2-2.1.3-3.3-.5.2-1.1.2-1.7.2-6.1,0-14.3-8.3-17.2-13.4-4.1-7.1-2.9-13.8,2.3-21.8.8-1.3,1.8-1.8,2.9-1.8s3.2,1,4.8,2.5h0s.1,0,.3.2c-.2-15,2.6-71.3,55.7-71.5h.3M190.4,0h-.4c-16.1,0-29.3,5.2-39.1,15.2-15.7,16-18.9,40.2-19.4,53.9-.7-.2-1.4-.3-2.2-.3-2.2,0-4.1,1.1-5.4,3.1-6.1,9.2-6.9,17.2-2.4,24.9,2.8,4.9,10.7,13.7,18.2,14.8h0c-.2,2.8,0,5.6.9,8.1,12.1,36.3,45,37.3,48.7,37.3s.6,0,.8,0c.2,0,.5,0,.8,0,3.7,0,36.9-1.1,48.9-37.3.9-2.6,1.2-5.3.9-8.1h0c7.5-1.1,15.4-9.9,18.2-14.8,4.5-7.8,3.7-15.7-2.4-24.9-1.3-2-3.3-3.1-5.4-3.1s-1.4.1-2.2.3c-.5-13.8-3.7-38-19.4-53.9C219.9,5.2,206.7,0,190.6,0h-.2Z"/>
      <path class="st0" d="M254.1,73.6c-2-3-4.9-1.9-7.8.7h0c0,0-4.3,3.4-7.3,6.2l-2.4,13.1s-3.1-36.9-9.6-42.8c-6.3-5.7-34.8-.4-36.8,0-2-.4-30.5-5.6-36.8,0-6.6,5.9-9.6,42.8-9.6,42.8l-2.4-13.1c-3-2.8-7.2-6.1-7.3-6.2,0,0,0,0,0,0h0c-2.9-2.6-5.8-3.7-7.8-.7-5.3,7.9-6.4,14.7-2.3,21.8,3.2,5.6,12.8,15.1,19,13.2,12.7,34.3,44.1,40.1,47.1,40.5h0s0,0,.1,0c0,0,.1,0,.1,0h0c3-.5,34.4-6.2,47.1-40.6,6.2,2,15.8-7.5,19-13.2,4.1-7.1,2.9-13.8-2.3-21.8h0Z"/>
      <path class="st20" d="M127.1,80.5s7.8-.2,10.8,12.2c0,0-7.8,3.8-.9,10.9,0,0-17.5-10.6-9.9-23Z"/>
      <ellipse class="st17" cx="169.8" cy="98.9" rx="3.6" ry="6.4"/>
      <path class="st8" d="M158.8,86c1.5-.4,4.8-2.6,15.4,4.3,0,0,5.4,1.9,7.5.4,0,0,2.8,2.9-1,4.8s-12.4-4.4-17.5-5.7-8.4-.3-8.4-.3c0,0,2.7-3.2,4-3.6h0Z"/>
      <path class="st18" d="M190.4,3h-.3c-53.1.2-55.9,56.6-55.7,71.6.3,1.1.5,1.5.5,1.5l6.6,4.4,2.4,13.1s3.1-36.9,9.6-42.8c6.2-5.6,33.9-.6,36.7,0h0s0,0,.1,0c0,0,.1,0,.1,0h0c2.8-.6,30.5-5.6,36.7,0,6.6,5.9,9.6,42.8,9.6,42.8l2.4-13.1,6.6-4.4s.2-.3.5-1.5c.2-14.9-2.6-71.4-55.7-71.5h0Z"/>
      <path class="st20" d="M253.4,80.5s-7.8-.2-10.8,12.2c0,0,7.8,3.8.9,10.9,0,0,17.5-10.6,9.9-23h0Z"/>
      <path class="st8" d="M237.9,111.9c-.3-4.2-.9-11.6-1.1-18.3,0,0-7,19.5-20.9,28.9-1-2.9-8.3-1.7-16-11.3,0,0-2.8,6.3-9.6,6.5-6.8-.2-9.6-6.5-9.6-6.5-7.7,9.6-15,8.5-16,11.3-13.9-9.4-20.9-28.9-20.9-28.9-.2,6.7-.8,14.1-1.1,18.3-.2,2.3,0,4.7.8,6.9,11.8,35.4,44.4,35.4,46.7,35.2,2.3.2,35.1.1,46.9-35.2.7-2.2,1-4.6.8-6.9h0ZM190.3,140.8c-20.6-4.4-17.8-13.7-17.8-13.7,13.8-1.1,17.1-5.1,17.8-7.6.7,2.4,4,6.5,17.8,7.6,0,0,2.8,9.2-17.8,13.7h0Z"/>
      <ellipse class="st17" cx="210.8" cy="98.9" rx="3.6" ry="6.4"/>
      <path class="st8" d="M221.8,86c-1.5-.4-4.8-2.6-15.4,4.3,0,0-5.4,1.9-7.5.4,0,0-2.8,2.9,1,4.8s12.4-4.4,17.5-5.7,8.4-.3,8.4-.3c0,0-2.7-3.2-4-3.6h0Z"/>
      <path class="st18" d="M199.5,107.1c2.7,2.8.6,3.7-2.6,5.5-3.6,2.1-6.7,3.1-6.7,3.1,0,0-3.1-.9-6.7-3.1-3.1-1.8-5.3-2.7-2.6-5.5.3-.3-3.6,1.5-3.3,3.1.3,1.6,8.5,8.6,12.6,7.9,4,.7,12.3-6.3,12.6-7.9.3-1.6-3.7-3.4-3.3-3.1Z"/>
      <path class="st5" d="M181.1,107.1c.3-.3-3.6,1.5-3.3,3.1.3,1.6,8.5,8.6,12.6,7.9,4,.7,12.3-6.3,12.6-7.9.3-1.6-3.7-3.4-3.3-3.1"/>
      <path class="st18" d="M190.3,130.2c-6.3.6-10-1.1-10-1.1,1.3,2.8,10,3.2,10,3.2,0,0,8.7-.4,10-3.2,0,0-3.6,1.7-10,1.1Z"/>
      <path class="st6" d="M156,124.7l-4,10.5c-.6-.9-1.3-1.7-1.9-2.7l5.9-7.8h0Z"/>
      <path class="st6" d="M147.8,114.5l-4,5.2c-.1-.3-.2-.6-.3-.9-.1-.3-.2-.7-.3-1l4.6-3.3h0Z"/>
      <path class="st6" d="M164,146.3c-.9-.6-1.8-1.2-2.6-1.8l3.8-8.5-1.1,10.3h0Z"/>
      <path class="st6" d="M180.4,153c-.8-.2-1.6-.4-2.4-.6l.3-8.5,2.1,9.1h0Z"/>
      <path class="st6" d="M224.7,125.8l3.9,9.4c.6-.9,1.3-1.7,1.9-2.7l-5.8-6.7h0Z"/>
      <path class="st6" d="M232.6,113.5l4.2,6.1c.1-.3.2-.6.3-.9.1-.3.2-.7.3-1l-4.8-4.2h0Z"/>
      <path class="st6" d="M216.6,146.3c.9-.6,1.8-1.2,2.6-1.8l-4.8-8,2.1,9.8Z"/>
      <path class="st6" d="M200.2,153c.8-.2,1.6-.4,2.4-.6l-.7-8.2-1.7,8.8h0Z"/>
    </g>
  </g>
</svg>