<?xml version="1.0" encoding="UTF-8"?>
<svg xmlns="http://www.w3.org/2000/svg" version="1.1" viewBox="0 0 219.6 353">
  <!-- Generator: Adobe Illustrator 30.0.0, SVG Export Plug-In . SVG Version: 2.1.1 Build 123)  -->
  <defs>
    <style>
      .st0 {
        fill: #fee1c1;
      }

      .st1 {
        fill: #614644;
      }

      .st2 {
        fill: #4b3743;
      }

      .st3 {
        fill: #ffd616;
      }

      .st4 {
        fill: #606060;
      }

      .st5 {
        fill: #afdbde;
      }

      .st6 {
        fill: #d03f42;
      }

      .st7 {
        fill: #fc6b55;
      }

      .st8 {
        fill: #f8fef2;
      }

      .st9 {
        fill: none;
        stroke: #a96260;
        stroke-linecap: round;
        stroke-linejoin: round;
        stroke-width: 1.5px;
      }

      .st10 {
        fill: #ffe41d;
      }

      .st11 {
        fill: #694851;
      }

      .st12 {
        fill: #c6930c;
      }

      .st13 {
        fill: #443b4f;
      }

      .st14 {
        fill: #070707;
      }

      .st15 {
        fill: #816067;
      }

      .st16 {
        fill: #f9caaa;
      }

      .st17 {
        fill: #ff6c55;
      }

      .st18 {
        fill: #c69f11;
      }
    </style>
  </defs>
  <g id="R_x5F_F">
    <g>
      <g>
        <g>
          <path class="st7" d="M156.7,324.7s0-4.4-2.9-10.5,7.9-6.8,7.9-6.8l2.8,13.4-7.9,3.9h0Z"/>
          <path class="st6" d="M163.4,308.8c-.3,0-7.6,1.4-7.3,3.6s2.5,10.9,2.5,10.9h5.2s2.3-7.9,2.2-8.3-2.5-6.2-2.5-6.2h0Z"/>
          <path class="st8" d="M156.2,292.8c.1.8.3,1.5.4,2.2.1.7.3,1.4.5,2,.1.4.2.9.4,1.3.2.7.4,1.4.7,1.9.7,2,1.4,3.1,1.4,3.1l2,22.2c0-.4.2-1.1,2.8,2.4,3.2,4.4,24.8-2.7,24.8-2.7l-2.3-10.7s-.5-5,1.8-15.4c.2-.8.3-1.5.4-2.3,0-.7.1-1.4.1-2.1,0-.5,0-1,0-1.4,0-.7,0-1.4-.2-2.1,0-.5-.1-1-.2-1.5-4.8-.9-16-1.9-32.5,3.1h0Z"/>
          <path class="st16" d="M155.6,284.9c11.8-.7,23.3-.7,31.6-.5-1.2-3.2-2.6-5.2-2.6-5.2,0,0-1.2-9.7-3.5-14.1-2.3-4.4-24-1.5-25.3,14.1-.2,2-.2,3.9-.2,5.7Z"/>
          <path class="st0" d="M155.6,284.9c0,3,.3,5.7.7,8,16.5-5,27.7-4,32.5-3.1-.4-2-1-3.8-1.6-5.4-8.3-.2-19.8-.1-31.6.5h0Z"/>
          <path class="st17" d="M157.1,297c17.9-5.4,28.1-4.5,32-3.7,0-.7,0-1.4-.2-2.1-4.6-.8-14.9-1.4-32.3,3.9l.5,2h0Z"/>
          <path class="st17" d="M157.5,298.3c.2.7.4,1.4.7,1.9,17.1-5,27-4.2,30.9-3.4,0-.7.1-1.4.1-2.1-4.4-.8-14.5-1.5-31.7,3.6Z"/>
          <path class="st4" d="M144.1,336.1c.1.4.3.7.4,1.1,1.5,3.2,18.6,2.1,20.8,1.9h.2c9,3,23.5,1,28,.2-.2.6-.4,1.3-.6,2,.5-1.3.8-2.4.9-3.5,1.1-6.1-1.9-9-3-13.6-1.5-6.1-12.1-1.7-14-1.3s-2.7,3.3-8.7,3.3-6.7-4.9-6.7-4.9l-4.9,1.6c-3.3,1.4-6.9,1.9-9.6,2.3-2.5,2.2-4.8,5.8-2.9,10.9h0Z"/>
          <path class="st13" d="M142.1,341.9c6.3,3,22.9,2.2,22.9,2.2,1.9,1,5.5.8,5.5.8,14.1,1.5,20.7.6,21,0,.6-1.3,1.1-2.4,1.5-3.5,0,0,0,0,0,0,.2-.7.4-1.3.6-2-4.4.7-19,2.8-28-.2h-.2c-2.2.2-19.3,1.3-20.8-1.9-.2-.4-.3-.7-.4-1.1-1.9-5.1.4-8.7,2.9-10.9-.9.1-1.7.2-2.4.4-4.4.8-5.9,3.3-6,3.5-.4.6-2.8,9.9,3.5,12.8h0Z"/>
        </g>
        <path class="st1" d="M175.6,263.1c2.7,0,4.8.7,5.4,1.9,2.3,4.4,3.5,14.1,3.5,14.1,0,0,3,4.4,4.1,10.5,0,.5.2,1,.2,1.5.1.7.2,1.4.2,2.1,0,.5,0,.9,0,1.4,0,.7,0,1.4-.1,2.1,0,.8-.2,1.5-.4,2.3-2.3,10.5-1.8,15.4-1.8,15.4l1.5,6.9c1.2.4,2.1,1.3,2.5,2.8,1.1,4.6,4.1,7.5,3,13.6-.2,1.1-.5,2.2-.9,3.5,0,0,0,0,0,0-.4,1.1-.9,2.2-1.5,3.5-.2.4-2.5.8-7.4.8s-7.8-.2-13.6-.8c0,0-.3,0-.8,0-1.2,0-3.3-.1-4.6-.8,0,0-2.1.1-5,.1-5.4,0-13.9-.3-17.9-2.3-6.3-3-3.9-12.2-3.5-12.8.1-.2,1.7-2.6,6-3.5.6-.1,1.4-.2,2.4-.4,2.7-.4,6.3-1,9.6-2.3-.3-1.8-.9-5-2.8-8.7-2.1-4.4,3.1-6,6.1-6.6l-.4-4.4s-.6-1-1.4-3.1c-.2-.6-.4-1.2-.7-1.9-.1-.4-.2-.8-.4-1.3-.2-.6-.3-1.3-.5-2-.1-.7-.3-1.4-.4-2.2-.6-3.6-.9-8.2-.5-13.7.9-11.4,12.7-16,19.9-16M175.6,260.1h0c-8.9,0-21.8,5.8-22.9,18.8-.4,5-.2,9.9.5,14.4.1.9.3,1.7.4,2.3.1.7.3,1.4.5,2.1.1.5.3.9.4,1.3,0,0,0,0,0,0,.3.9.5,1.5.7,2.1.5,1.4.9,2.3,1.2,2.9v1.2c-2.7.9-4.6,2.3-5.6,4.2-.6,1.3-1.1,3.3.1,6,1,2.1,1.6,3.9,2,5.4-2.3.7-4.7,1-6.6,1.3-1,.1-1.8.3-2.5.4-4.9.9-7.2,3.6-7.9,4.7,0,0,0,0,0,0-.9,1.4-1.9,6.4-.8,10.5.9,3.1,2.7,5.4,5.5,6.7,3.6,1.7,10.1,2.5,19.2,2.5s3.5,0,4.4,0c1.7.6,3.7.8,5.2.8s.6,0,.8,0c5.2.5,9.8.8,13.7.8,8.2,0,9.4-1.1,10-2.5.7-1.4,1.2-2.6,1.6-3.8,0,0,0,0,0,0,.5-1.3.9-2.7,1.1-4,.9-5-.5-8.3-1.8-11.2-.5-1.2-1-2.4-1.3-3.6-.4-1.7-1.4-3.1-2.8-4.1l-1.1-5.3c0-.8-.2-5.5,1.8-14.4.2-.8.3-1.6.4-2.6,0-.9.1-1.6.1-2.3,0-.5,0-1.1,0-1.6,0-.8-.1-1.6-.2-2.4,0-.5-.1-1-.3-1.6-1-5.3-3.3-9.5-4.2-11-.3-2.5-1.6-10.3-3.7-14.5-1.2-2.2-4-3.5-8.1-3.5h0Z"/>
      </g>
      <g>
        <g>
          <path class="st8" d="M187,219.2s2.2,29.4,0,35.5c0,0,4,18.6,3.2,23.1s-49.1,2.7-49.1,2.7l-.6-63.5s39.3-6.3,46.6,2.3h0Z"/>
          <path class="st1" d="M167.2,214.7c8.7,0,16.9,1,19.8,4.5,0,0,2.2,29.4,0,35.5,0,0,4,18.6,3.2,23.1-.5,2.5-15.4,3-28.6,3s-20.5-.4-20.5-.4l-.6-63.5s13.9-2.2,26.8-2.2M167.2,211.7v3-3h0c-12.9,0-26.7,2.2-27.2,2.3-1.5.2-2.5,1.5-2.5,3l.6,63.5c0,1.6,1.3,2.9,2.9,3,.1,0,9.9.4,20.6.4s14.5-.2,19.4-.6c7.4-.6,11.6-1.6,12.2-4.9.9-4.5-2.1-19.1-3-23.5,1.9-7.6.3-31.1-.1-35.9,0-.6-.3-1.2-.7-1.7-3.2-3.8-10.4-5.6-22.1-5.6h0Z"/>
        </g>
        <path class="st5" d="M140.4,216.9l.6,63.5s5.6.2,12.9.3l.3-16.6-2.4-48.6c-6.6.6-11.5,1.4-11.5,1.4h0Z"/>
      </g>
    </g>
  </g>
  <g id="L_x5F_F">
    <g>
      <g>
        <g>
          <path class="st7" d="M91.5,329.3s0-4.6-3.1-11c-3.1-6.3,8.3-7.2,8.3-7.2l3,14-8.2,4.1h0Z"/>
          <path class="st6" d="M98.5,312.6c-.3,0-7.9,1.5-7.6,3.8s2.6,11.4,2.6,11.4h5.4s2.4-8.3,2.3-8.7-2.7-6.5-2.7-6.5h0Z"/>
          <g>
            <path class="st8" d="M108.8,309.7c1.4,1.3,4.9,4.4,6.5,4.6h.2c1.3,0,3.6-1.4,5.5-2.7l.3-2.5c.2-.2.5-.4.7-.6-.2,0-.4,0-.6.2-2.5,1.9-5.3,3.5-5.9,3.5-.7-.1-3.3-2.2-5.3-4-.4-.4-1.1-.4-1.5,0-.4.4-.4,1.1,0,1.5h0Z"/>
            <path class="st8" d="M91.4,296.9c0,.4.1.7.2,1.1,11.8-3.5,28.8-1.3,35-.4,0-.4.1-.8.2-1.2-5.7-.9-23.7-3.3-35.3.4Z"/>
            <path class="st8" d="M90.9,292.5c0,.8.2,1.6.3,2.4,12.2-3.8,30-1.4,35.8-.4,0-.5,0-1,.1-1.5-4.7-1.8-16.5-4.9-36.3-.4h0Z"/>
            <path class="st16" d="M90.2,285.8c15.5-.4,30,.3,37.2.7,0-5.9-.5-10.5-.5-10.5-3.4-12.5-16.2-13-16.2-13,0,0-20.3.2-20.7,15.7,0,2.1,0,4.5.2,7h0Z"/>
            <path class="st0" d="M90.2,285.8c.2,2.1.4,4.4.7,6.7,19.8-4.5,31.6-1.4,36.3.4.2-2.2.2-4.3.2-6.4-7.2-.4-21.7-1.1-37.2-.7h0Z"/>
            <path class="st5" d="M108.8,309.7c1.4,1.3,4.9,4.4,6.5,4.6h.2c1.3,0,3.6-1.4,5.5-2.7l.3-2.5c.2-.2.5-.4.7-.6-.2,0-.4,0-.6.2-2.5,1.9-5.3,3.5-5.9,3.5-.7-.1-3.3-2.2-5.3-4-.4-.4-1.1-.4-1.5,0-.4.4-.4,1.1,0,1.5h0Z"/>
            <path class="st17" d="M91.2,294.8c0,.7.2,1.4.3,2.1,11.6-3.7,29.6-1.3,35.3-.4,0-.7.2-1.4.3-2.1-5.8-.9-23.7-3.3-35.8.4h0Z"/>
            <path class="st17" d="M91.6,298h0c0,.7.2,1.4.3,2,11.3-3.4,28.1-1.3,34.3-.4.2-.7.3-1.4.4-2-6.2-1-23.1-3.1-35,.4h0Z"/>
          </g>
          <path class="st8" d="M96.3,322.7c0,.3-1.2,6.1,4.7,6.1s6.9-3.2,8.8-3.6c1.2-.2,5.5-2,9.1-2h.4l1.6-11.5c-1.9,1.3-4.2,2.7-5.5,2.7h-.2c-1.6-.2-5.1-3.2-6.5-4.6-.4-.4-.4-1,0-1.5.4-.4,1-.5,1.5,0,2,1.9,4.7,3.9,5.3,4,.7,0,3.4-1.6,5.9-3.5.2-.1.4-.2.6-.2,2.1-1.9,3.4-5.1,4.2-8.9-6.1-.9-23-3-34.3.4,1.7,10.6,3.9,20.4,4.4,22.6h0Z"/>
          <path class="st3" d="M77.2,340.3c.1.4.3.7.4,1.1,1.5,3.2,18.6,2,20.9,1.9h.2c9,3,23.6,1,28.1.2.2-.7.3-1.4.4-2,1.1-6.6-1.9-9.9-3.1-14.9-.6-2.7-2.7-3.5-5.2-3.5-3.6,0-7.9,1.8-9.1,2-2,.4-2.8,3.6-8.8,3.6s-4.7-5.8-4.7-6.1h0l-7.1,2.5c-1.5.7-3.2,1.2-4.7,1.6-1,.3-1,.3,0,0-.6.2-10.7,4.4-7.3,13.5h0Z"/>
          <path class="st13" d="M74.4,346c6.4,3.2,23.4,2.4,23.4,2.4,2,1.1,5.6.9,5.6.9,14.4,1.6,21.1.7,21.4,0,1-2.1,1.7-4,2.1-5.7-4.5.7-19,2.8-28.1-.2h-.2c-2.2.2-19.4,1.3-20.9-1.9-.2-.4-.3-.7-.4-1.1-3.4-9.1,6.7-13.3,7.3-13.5-3,.7-5.8,1-7.5,1.4-4.4.9-6,3.6-6.2,3.8-.4.7-2.8,10.8,3.6,14h0Z"/>
        </g>
        <path class="st1" d="M110.8,263s12.8.5,16.2,13c0,0,.9,8.4.2,16.9,0,.5,0,1-.1,1.5,0,.7-.2,1.4-.2,2.1,0,.4-.1.8-.2,1.2-.1.7-.2,1.4-.4,2-.8,3.7-2.1,7-4.2,8.9-.2.2-.5.4-.7.6l-.3,2.5-1.6,11.5h-.4c2.4,0,4.5.8,5.2,3.5,1.1,5,4.1,8.2,3.1,14.9,0,.6-.2,1.3-.4,2-.4,1.7-1.1,3.5-2.1,5.7-.2.4-2.6.9-7.6.9s-8-.2-13.8-.9c0,0-.3,0-.9,0-1.2,0-3.3-.1-4.7-.9,0,0-2.1.1-5.2.1-5.5,0-14.1-.4-18.2-2.5-6.4-3.2-4-13.3-3.6-14,.1-.2,1.7-2.9,6.2-3.8,1.7-.4,4.5-.6,7.5-1.4,2-.5,2-.5,0,0,1.6-.4,3.2-.9,4.7-1.6l1.6-.5c-.4-1.8-1.2-3.9-2.3-6.3-2.1-4.2,2.4-6,5.5-6.7-.7-3.5-1.4-7.4-2-11.5-.1-.7-.2-1.4-.3-2h0c0-.4-.1-.8-.2-1.1,0-.7-.2-1.4-.3-2.1,0-.8-.2-1.6-.3-2.4-.6-5-1-9.8-.8-13.7.4-15.6,20.7-15.7,20.7-15.7M110.8,260h0c-8,0-23.3,4-23.7,18.6-.1,3.8.2,8.5.9,14.1,0,.4,0,.8.2,1.2,0,.4,0,.8.2,1.2h0s.1,1.1.1,1.1v1c.2.2.2.4.2.6,0,.1,0,.3,0,.4,0,0,0,0,0,.1.1.7.2,1.4.3,2.1.4,2.8.9,5.8,1.5,8.9-2.5,1-4.2,2.3-5,4.1-.6,1.3-1.1,3.4.2,6,.5,1.1,1,2.1,1.3,3.2-1,.4-2.1.7-3.3,1h0s0,0-.1,0c-1.7.4-3.4.7-4.9.9-.9.1-1.7.3-2.4.4-5,1-7.3,3.9-8.1,5.1-.8,1.2-2,6.7-.7,11.4.9,3.2,2.8,5.6,5.4,7,3.6,1.8,10.2,2.8,19.5,2.8s3.7,0,4.6,0c1.7.7,3.8.9,5.3.9s.6,0,.8,0c5.3.6,10,.9,13.9.9,8.4,0,9.6-1.2,10.3-2.6,1-2.2,1.8-4.3,2.2-6.2.2-.7.3-1.4.5-2.3.9-5.3-.5-8.9-1.8-12-.5-1.4-1-2.6-1.3-4-.6-2.5-2.1-4.3-4.3-5.2l1.2-8.8.2-1.4c2.3-2.2,4-5.6,5-10.4.1-.6.3-1.4.4-2.2v-.4c.1-.3.1-.6.2-.9.1-.7.2-1.4.3-2.2,0-.5.1-1.1.1-1.6.7-8.7-.2-17.1-.2-17.5,0-.1,0-.3,0-.5-3.1-11.6-13.8-15-19-15.2h-.1Z"/>
      </g>
      <g>
        <path class="st8" d="M86.7,225.4l1.4,53.4v1.4c4.2.6,7,.1,11.8.2,14.4.4,26.1,1,33.7.5h0c3.1-.2,5.5-.5,7.3-.7v-.5c0,0,2.1-15.7,2.1-15.7,13.4-1.6,10.1-35,10.1-35-23.9-7.7-66.3-3.6-66.3-3.6h0Z"/>
        <path class="st17" d="M97.3,224.8l.8,55.7h1.9l-.8-55.8c-.7,0-1.3,0-1.9.1h0Z"/>
        <path class="st17" d="M91.4,225.1l.8,55.4c.7,0,1.3,0,1.9,0l-.8-55.5c-.7,0-1.3,0-1.9.1h0Z"/>
      </g>
      <path class="st1" d="M112.2,224.3c13.3,0,29.2,1,40.8,4.7,0,0,3.2,33.5-10.1,35l-2.1,15.7v.5c-1.8.2-4.2.5-7.3.7h0c-2,.1-4.2.2-6.7.2-7.1,0-16.3-.5-27-.7-.4,0-.7,0-1.1,0h-.7c-1.4,0-2.7,0-3.9,0h0s0,0,0,0c-.4,0-.8,0-1.2,0-1.5,0-3.1,0-4.8-.3v-1.4s-1.4-53.4-1.4-53.4c0,0,11.3-1.1,25.5-1.1M112.2,221.3h0c-14.2,0-25.3,1.1-25.8,1.1-1.6.1-2.8,1.5-2.7,3.1l1.4,53.3v1.4c0,1.5,1.2,2.7,2.6,2.9,2.1.3,3.8.3,5.2.3h.2c.3,0,.7,0,1.1,0s.3,0,.4,0h.7c.8,0,1.7,0,2.7,0h1c.3,0,.5,0,.8,0,4.1.1,7.9.2,11.6.4,5.9.2,11,.4,15.4.4s5,0,6.9-.2h0c3.4-.2,5.9-.5,7.4-.7,1.3-.2,2.4-1.2,2.6-2.6v-.5c0,0,1.9-13.6,1.9-13.6,13.2-4.7,10.7-34.2,10.4-37.8-.1-1.2-.9-2.2-2.1-2.6-9.9-3.2-24-4.8-41.7-4.8h0Z"/>
    </g>
  </g>
  <g id="R_x5F_H">
    <g>
      <g>
        <g>
          <path class="st10" d="M181,148.6l13.7,35.6,4.4,12.3c4.5-1.5,8.6-2.9,9.7-3.1,2.4-.5,4.7-6,5-7.3.3-1.2-10.8-22.1-11.9-28.9-.7-4.4-2.5-9.4-3.7-12.4-.6-1.6-2.4-2.3-3.9-1.7l-13.4,5.4h0Z"/>
          <path class="st18" d="M175.6,180.9s10.1,19.9,10.5,19.9,2.3-.7,5.3-1.8c2.3-.8,5.1-1.7,7.7-2.6l-4.4-12.3-13.7-35.6h-.2c0,0-.7.4-.7.4l-4.5,32h0Z"/>
        </g>
        <path class="st16" d="M175,213.8c0,1.4,1.5,9.7,2.6,14.3.4,1.6.8,2.8,1,3.1,1,1.1,1.3,1.8,1.3,1.8,0,0,7.4-1.9,15.6-4.7,0,0,0,0,0,0,.2,0,.4-.1.5-.2,6.2-3.1,3.2-27.5,2-35.7,8.7-3.8,12.4-2.9,13-2.9h0l-.5-2.1s-5.5-2.2-13,2.5c-.3.2-.6.4-.8.5,0,0,0,0,0,0,0,0,0,0,0,0-1.2.4-15.5,4.4-15.8,4.7-8.3,6.2-6.2,16.8-6.1,18.7h0Z"/>
        <path class="st0" d="M195.6,228.4c8.3-2.8,17.4-6.5,20.8-10.3,0,0,1.2-15.8-4.4-25l-.9-3.6h0c-.6,0-4.3-.9-13,2.9,1.2,8.2,4.2,32.6-2,35.7-.2,0-.4.2-.5.2h0Z"/>
      </g>
      <path class="st1" d="M195.4,142.9c1.2,0,2.3.7,2.8,1.9,1.2,3,3,8,3.7,12.4,1.1,6.8,12.2,27.7,11.9,28.9-.2.7-1.1,2.9-2.2,4.8l.5,2.2c5.6,9.1,4.4,25,4.4,25-3.4,3.7-12.6,7.5-20.8,10.3,0,0,0,0,0,0-8.3,2.8-15.6,4.7-15.6,4.7,0,0-.2-.7-1.3-1.8-.3-.3-.6-1.5-1-3.1-1.1-4.6-2.5-12.9-2.6-14.3-.1-1.9-2.3-12.6,6.1-18.7,0,0,.6-.2,1.5-.5-3.1-5.9-7-13.7-7-13.7l4.5-32,.7-.3h.2c0,0,13.4-5.5,13.4-5.5.4-.1.8-.2,1.1-.2M195.4,139.9h0c-.8,0-1.5.1-2.3.4l-13.3,5.4h-.1c0,0,0,0,0,0l-.7.3c-1,.4-1.7,1.3-1.8,2.4l-4.5,32c0,.6,0,1.2.3,1.8,0,0,2.9,5.8,5.6,11-8.1,6.6-6.9,16.7-6.6,20.1,0,.3,0,.5,0,.6.1,1.8,1.6,10.2,2.7,14.8.7,2.6,1.1,3.7,1.7,4.4.4.4.6.7.6.9.2.8.6,1.2,1.3,1.7.4.2.8.3,1.2.3s.7,0,1-.1c.3,0,7.6-1.9,15.8-4.7,0,0,0,0,.1,0,11.4-3.9,18.9-7.6,22.1-11.1.4-.5.7-1.1.8-1.8,0-.7,1.2-16.5-4.5-26.4v-.6c.9-1.8,1.6-3.7,1.8-4.6.4-1.4,0-2.4-3.8-10.4-3-6.3-7.4-15.9-8-19.6-.7-4.5-2.5-9.6-3.9-13-.9-2.3-3.1-3.8-5.6-3.8h0Z"/>
    </g>
  </g>
  <g id="B">
    <g>
      <path class="st8" d="M111,130.8s25.5,6.9,60.9,2.3h0c.3,0,.6,0,.9-.1.2-.9,1.7-9.3-9-12-11.3-2.9-39.3-1.5-39.3-1.5,0,0-10.8,1.4-13.5,11.3h0Z"/>
      <path class="st3" d="M84,161.9c0-5.6,0-9.7,0-11.4.3-9.4,5.7-16,9.6-17.4,3.5-1.3,14.2-2.1,16.7-2.2.3,0,.5,0,.5,0,15.2,1.9,59.3,2.3,60.9,2.3h0c.3,0,.6,0,.9-.1,0,0,0,0,0,0l22.1,9.6c1.1,5,.9,13.7,0,20.8-.9,7.1-5.9,30.6-5.9,30.6l4.3,48c-38.4,3.1-63.7,3.5-80.1,2.8-23.6-.9-29-3.9-29-3.9,0,0-.2-54.2,0-79.1h0Z"/>
      <path class="st12" d="M111,130.8c15.2,1.9,59.3,2.3,60.9,2.3h0c-17-8.7-60.9-2.3-60.9-2.3Z"/>
      <path class="st8" d="M154.4,206.8c-5.9-.8-10.3-2.9-13.4-6.4-3.1-3.5-4.6-8-4.6-13.6v-28.2c0-5.6,1.5-9.8,4.6-12.6,3.1-2.8,7.5-3.9,13.4-3.2s10.3,2.6,13.4,6.1c3.1,3.4,4.6,8,4.6,13.7v28.6c0,5.6-1.5,9.8-4.6,12.6-3.1,2.8-7.5,3.8-13.4,3h0ZM154.4,198.4c3.1.4,5.4-.1,6.9-1.6s2.2-3.7,2.2-6.7v-28.5c0-3.1-.7-5.5-2.2-7.2s-3.8-2.8-6.9-3.2-5.5.2-6.9,1.7c-1.5,1.5-2.2,3.7-2.2,6.7v28.3c0,3,.7,5.4,2.2,7.2,1.5,1.8,3.8,2.9,6.9,3.3h0Z"/>
      <path class="st1" d="M139.4,119.2c8.5,0,18.6.4,24.4,1.8,10.7,2.7,9.2,11.1,9,12,0,0,0,0,0,0l22.1,9.6c1.1,5,.9,13.7,0,20.8-.9,7.1-5.9,30.6-5.9,30.6l4.3,48c-28.6,2.3-50,3.1-65.8,3.1-35.9,0-43.4-4.1-43.4-4.1,0,0-.3-81.1,0-90.6.3-9.4,5.7-16,9.6-17.4,3.5-1.3,14.2-2.1,16.7-2.2.3,0,.5,0,.5,0,2.6-9.9,13.5-11.3,13.5-11.3,0,0,6.8-.3,15-.3M139.4,116.2v3-3h0c-8.2,0-15,.3-15.1.3,0,0-.2,0-.2,0-.5,0-11.4,1.6-15.3,11.4-3.9.3-12.6,1-16.1,2.3-5.4,2-11.2,9.7-11.6,20.2-.3,9.4,0,87.4,0,90.7,0,1.1.6,2.1,1.6,2.6.8.5,9.2,4.5,44.8,4.5s40.4-1,66-3.1c.8,0,1.5-.4,2.1-1.1.5-.6.8-1.4.7-2.2l-4.3-47.6c.7-3.4,5-23.8,5.9-30.4.8-6.4,1.3-15.9,0-21.9-.2-.9-.9-1.7-1.7-2.1l-20.1-8.7c0-4.6-2.4-10.8-11.5-13.1-5-1.3-13.4-1.9-25.1-1.9h0Z"/>
      <path class="st12" d="M84.1,241.1s3.2,2,19,3.3c-3.1-19.9,1.3-54.9-.6-65.9-2.2-12.2-13.7-15.5-18.5-16.3,0,25,0,78.9,0,78.9Z"/>
    </g>
  </g>
  <g id="L_x5F_H">
    <g>
      <path class="st1" d="M93.2,136.5c.8,0,1.6,0,2.4.1,0,0,0,0,0,0,1.2.1,2.4.3,3.5.5,0,0,0,0,0,0,.7.1,1.4.3,2.1.5,0,0,0,0,0,0,17.4,4.9,18.9,24.3,18.9,24.3-5.5,26.8-23.4,41.8-23.4,41.8-.5-.2-1.1-.4-1.8-.6-4.4,5.7-12.1,14.4-12.1,14.4,0,0-3.9,7.5-10.7,9-6.8,1.5-22.4,6.5-26.9,10.3-4,3.4-10.4,11.5-19.1,11.5s-2.1-.1-3.2-.4c-.6-.1-1.2-.3-1.8-.5-8.6-2.7-9.5-8.8-10-8.8h0s0,0-.1,0c-1.2,0-7.7-1.1-7.9-5.8,0-2.4,2-4.9,4-6.9,2.2-2,4.4-3.4,4.4-3.4l-2-3.5s-.8-2.2,3.8-7.4c1.1-1.2,3-1.7,5.3-1.7,7.6,0,19.3,5.1,19.3,5.1,0,0,5.8-5.9,8.3-14.5,2.5-8.6,12.4-9.3,14.8-10.1,1.3-.4,2.5-2.9,3.4-5.2-4.8-3.2-8.2-5.5-8.2-5.5.4-5.3,20.7-26.4,22.2-27.8,7.7-7.7,12-15.2,12-15.2.8,0,1.5,0,2.3,0h.6M93.2,133.5c0,0-.2,0-.3,0h-.4c-.9,0-1.7,0-2.5,0-1,0-1.9.6-2.4,1.5,0,0-4.3,7.3-11.6,14.6-.6.6-6.1,6.3-11.6,12.6-9.7,11.2-11.2,14.9-11.4,17.1,0,1.1.4,2.1,1.3,2.7,0,0,2.5,1.7,6.1,4.1-.4.8-.7,1.2-.8,1.3-.3,0-.7.2-1.1.3-3.8.9-12.7,2.9-15.3,11.8-1.6,5.3-4.6,9.6-6.3,11.8-3.8-1.5-12.3-4.5-18.5-4.5s-5.9.9-7.5,2.7c-5.3,5.9-4.8,9.3-4.4,10.5,0,.1.1.3.2.4l.7,1.2c-.8.6-1.6,1.3-2.5,2.1-3.4,3.1-5.1,6.2-5,9.1.2,5.6,5.7,7.9,9.2,8.5,1.2,2.3,3.9,6.6,11,8.8.6.2,1.3.4,2,.5,1.3.3,2.6.4,3.9.4,8.3,0,14.5-6,18.6-9.9.9-.9,1.7-1.6,2.4-2.2,3.6-3,17.8-7.9,25.6-9.6,7.2-1.6,11.6-8.6,12.5-10.2,1.1-1.3,6.6-7.6,10.6-12.6.2,0,.5.1.8.1.7,0,1.4-.2,1.9-.7.8-.6,18.8-16,24.4-43.5,0-.3,0-.6,0-.8,0-.9-1.9-21.3-20.6-26.8-.2,0-.3-.1-.4-.2-.7-.2-1.5-.4-2.2-.5-.2,0-.3,0-.5,0-1-.2-2-.3-3.1-.4-.1,0-.2,0-.3,0-.9,0-1.8-.1-2.6-.1h0Z"/>
      <g>
        <path class="st0" d="M7.1,225.9c.3,2.9,1.3,8,4.9,10.2,0,0,1.4,6.4,9,11.3.6.2,1.1.3,1.8.5,10.4,2.4,17.8-7.3,22.3-11.1s20.1-8.7,26.9-10.3c6.8-1.6,10.7-9,10.7-9,0,0,14.5-16.6,15.2-19,.7-2.4-.1-33.6-32.3-17.1,0,0-2.2,8.1-4.6,9-2.4.8-12.2,1.6-14.8,10.1-2.5,8.6-8.3,14.5-8.3,14.5,0,0-20-8.6-24.6-3.4-4.6,5.2-3.8,7.4-3.8,7.4l2,3.5s-2.2,1.4-4.4,3.4h0Z"/>
        <path class="st9" d="M81.1,216.5s-4.6,2.7-7.5,1.8-5.9-5.6-5.9-5.6"/>
        <path class="st16" d="M3,232.8c.1,4.9,7.4,5.9,8,5.8.5-.1,1.3,6.1,10,8.8-7.7-4.9-9.1-11.3-9.1-11.3-3.7-2.2-4.7-7.3-4.9-10.2-2.1,1.9-4.1,4.4-4,6.9h0Z"/>
        <path class="st16" d="M59.8,190.6c5.2,4.2,19.3,15.1,30,18.6,1.8-2.1,3.6-4.4,5.1-6.3,1.6-2.1,2.8-3.8,3-4.4.7-2.4-.1-33.6-32.3-17.1,0,0-.5,1.8-1.3,3.8-.9,2.2-2.1,4.7-3.4,5.2-.3,0-.7.2-1.1.3h0Z"/>
        <path class="st3" d="M120,161.9s-2.1-27-29.7-25.3c0,0-4.3,7.5-12,15.2-1.5,1.5-21.7,22.6-22.2,27.8,0,0,30.4,20.9,40.5,24.1,0,0,17.9-15,23.4-41.8h0Z"/>
        <path class="st8" d="M61.4,183.2c.5.3,1,.7,1.6,1.1,11.1-13.6,32.5-39.9,38.2-46.6-.7-.2-1.3-.3-2.1-.5-5.9,7.1-22.7,27.6-37.7,46.1h0Z"/>
        <path class="st8" d="M57.3,180.4c.4.3,1,.6,1.6,1.1,10.2-12.6,29.4-36.1,36.7-44.9-.8,0-1.6-.1-2.4-.1-7.1,8.6-22.2,27.1-35.9,43.9h0Z"/>
      </g>
    </g>
  </g>
  <g id="H">
    <g>
      <path class="st0" d="M76.2,60.4s-4.8,15.3,0,27.7c0,0-4.3,27.9,13.3,43.9l29.7,4.6,46.4-12.1s20.6-20.1,12.8-57.1-94.2-45.7-102.2-6.9h0Z"/>
      <path class="st16" d="M108,111.3s-11.4,18.3-15.5,21.1l12.4,1.9,14.3,2.2-.9-12.2-9-13.1h-1.3Z"/>
      <path class="st0" d="M77.9,88.2l-8.3,17.4s1,4,9.6,5.5l-1.3-22.9Z"/>
      <ellipse class="st14" cx="82.1" cy="92.1" rx="2.9" ry="6.6"/>
      <path class="st11" d="M91.9,74.2c-.8-.5-2.5-2.7-8.2,4.4,0,0-2.8,1.9-4,.5,0,0-1.5,2.9.5,4.9s6.6-4.6,9.3-5.8,4.5-.3,4.5-.3c0,0-1.4-3.3-2.1-3.7h0Z"/>
      <path class="st11" d="M76.9,59.1s2.7-6,5.6-6.9c.2,0,.5-.1.7-.1,3.1,0,30.9,9.3,30.9,9.3,0,0-11.9,5.6-12.8,10.4-.9,4.8-3.2,21-3.2,21,0,0,3.3,2.8,5.8,1.9l3,12.1.4,1.6,4.1,18.1,2.7-1.2,4.2-1,44.9,1.5s7.2,0,12-5.4c.7-.8,1.6-2.2,2.6-4.1,1.6-3.1,3.6-7.3,5.5-11.7,1.2-2.9,2.5-5.9,3.7-8.7h0c3.4-8.2,6-15.2,6-15.2,0,0,6.1-15.3-.4-24-.7-1-1.6-1.9-2.8-2.7-8.4-6.1-33.7-23.3-46.8-31-3.6-2.1-6.3-3.5-7.4-3.7-1.4-.3-2.2,0-2.8.5-1.5,1.3-.8,4.4-.6,5.3,0,.1,0,.2,0,.2L95.6,3s-.3,0-.8.1c-3.9.8-21.1,5-18.1,17.6h0s-1.1.4-2.5,1.4c-.6.4-1.2.9-1.8,1.6-4.2,4.3-8.1,14.3,4.5,35.4Z"/>
      <path class="st2" d="M108,111.3l3,14.6,7.3-1.5,44.9,1.5s7.2,0,12-5.4c.7-.8,1.6-2.2,2.6-4.1,1.6-3.1,3.6-7.3,5.5-11.7,1.2-2.9,2.5-5.9,3.7-8.7-.4.5-11.9,15.5-14.7,15.2,0,0,3.4-11.1,2.6-9.9-.8,1.2-22.1,15.6-22.1,15.6,0,0,4.4-11,4.3-13.9-.1-2.9-16.5,12.7-16.5,12.7,0,0,2.9-12.3,2.4-11.4-.5.9-18.8,7.3-18.8,7.3l.8-7.8-11.8,5.9s-4.2,1.1-5.2,1.7h0Z"/>
      <path class="st15" d="M132.8,19.8c-1.5,1.3-.8,4.4-.6,5.3l7.4,5c-.2-.3-4.3-5.1-2.9-8,.4-.9,2.9-.3,6.2.9-3.6-2.1-6.3-3.5-7.4-3.7-1.4-.3-2.2,0-2.8.5h0Z"/>
      <path class="st15" d="M76.7,20.7l21,11.5c-13.9-10.9-5.8-25-2.9-29.1-3.9.8-21.1,5-18.1,17.6h0Z"/>
      <path class="st15" d="M76.9,59.1s2.7-6,5.6-6.9c-11.7-6.6-11.3-21-10.1-28.6-4.2,4.3-8.1,14.3,4.6,35.4h0Z"/>
      <path class="st1" d="M95.6,3l36.8,22.3s0,0,0-.2c-.2-.9-.9-4,.6-5.3.4-.4,1-.6,1.8-.6s.7,0,1,.1c1.2.2,3.9,1.6,7.4,3.7,13.1,7.6,38.3,24.9,46.8,31,1.1.8,2,1.7,2.8,2.7,6.5,8.7.4,24,.4,24,0,0-2.7,7-6,15.2h0c-1.2,2.9-2.4,5.9-3.7,8.8-1.9,4.4-3.9,8.7-5.5,11.7-1,1.9-1.9,3.3-2.6,4.1-4.8,5.4-12,5.4-12,5.4h-2.8c0,0-41.2,10.7-41.2,10.7l-29.7-4.6c-6.7-6.1-10.2-13.9-12-21.3-7-1.7-7.9-5.1-7.9-5.1l6.2-13c.1-2.8.4-4.5.4-4.5-4.8-12.3,0-27.7,0-27.7.1-.6.3-1.2.4-1.8-12.3-20.8-8.4-30.6-4.3-34.9.6-.6,1.2-1.2,1.8-1.6,1.4-1,2.5-1.4,2.5-1.4h0c-3-12.6,14.2-16.8,18.1-17.6.5,0,.8-.1.8-.1M95.6,0c-.1,0-.3,0-.4,0,0,0-.3,0-.9.2-3.2.6-14.1,3.3-18.7,10.5-1.6,2.5-2.3,5.3-2.1,8.3-.3.2-.6.4-.9.6-.8.6-1.6,1.2-2.2,2-2.2,2.3-4.9,6.6-4.9,13.4,0,6.8,2.8,14.9,8.1,24.1,0,.2,0,.4-.1.6-.5,1.7-4.6,16.3-.2,28.8,0,.7-.2,1.9-.3,3.4l-6,12.4c-.3.6-.4,1.4-.2,2.1.2.8,1.5,4.6,8.3,6.8,2.4,8.6,6.6,15.7,12.5,21.1.4.4,1,.7,1.6.8l29.7,4.6c.2,0,.3,0,.5,0,.3,0,.5,0,.8-.1l40.7-10.6h2.4c0,0,0,0,.1,0h0c.4,0,8.6-.1,14.3-6.4.9-.9,1.8-2.5,3-4.7,1.5-2.8,3.4-6.9,5.6-11.9,1.1-2.5,2.3-5.3,3.6-8.6,0,0,0-.1,0-.2,3.3-8.1,6-15.2,6.1-15.3.3-.6,6.6-16.9-.9-26.9-.9-1.3-2.1-2.4-3.4-3.3-7.9-5.7-33.4-23.2-47-31.1-5.5-3.2-7.3-3.8-8.4-4-.6-.1-1.1-.2-1.6-.2-1.8,0-3,.7-3.7,1.3-.8.7-1.3,1.5-1.6,2.5L97.1.4c-.5-.3-1-.4-1.6-.4h0Z"/>
      <g>
        <path class="st0" d="M107.4,110.9s2.2-12.8,1.4-17.5c-.8-4.7-5.3-14.4-11.8-12.7s-3,18.9,2.1,25.2,6.7,5.7,8.4,5h0Z"/>
        <path class="st16" d="M108.9,97.8c-.1,5.7-1.6,14-1.6,14-1.7.7-3.3,1.3-8.4-5-.3-.3-.5-.7-.8-1,8.2,1.6,10.7-8,10.7-8h0Z"/>
        <path class="st9" d="M107.4,110.9s2.2-12.8,1.4-17.5c-.8-4.7-5.3-14.4-11.8-12.7s-3,18.9,2.1,25.2,6.7,5.7,8.4,5h0Z"/>
      </g>
    </g>
  </g>
</svg>